<?xml version="1.0" encoding="UTF-8"?>
<svg id="Layer_1" data-name="Layer 1" xmlns="http://www.w3.org/2000/svg" version="1.1" viewBox="0 0 526.8 1437.5">
  <defs>
    <style>
      .cls-1 {
        font-size: 16px;
      }

      .cls-1, .cls-2, .cls-3, .cls-4, .cls-5, .cls-6, .cls-7, .cls-8, .cls-9, .cls-10, .cls-11, .cls-12, .cls-13, .cls-14, .cls-15, .cls-16, .cls-17, .cls-18, .cls-19, .cls-20, .cls-21, .cls-22, .cls-23, .cls-24, .cls-25, .cls-26, .cls-27, .cls-28, .cls-29, .cls-30, .cls-31, .cls-32, .cls-33, .cls-34, .cls-35, .cls-36, .cls-37, .cls-38, .cls-39, .cls-40, .cls-41, .cls-42, .cls-43, .cls-44, .cls-45, .cls-46 {
        isolation: isolate;
      }

      .cls-1, .cls-47 {
        fill: #3d3d3d;
      }

      .cls-1, .cls-29, .cls-34 {
        font-family: NeueHaasUnicaW1G-Regular, 'Neue Haas Unica W1G';
      }

      .cls-2, .cls-3, .cls-4, .cls-5, .cls-6, .cls-7, .cls-48, .cls-8, .cls-9, .cls-10, .cls-11, .cls-12, .cls-13, .cls-14, .cls-15, .cls-16, .cls-17, .cls-18, .cls-19, .cls-20, .cls-21, .cls-22, .cls-23, .cls-24, .cls-25, .cls-26, .cls-27, .cls-28, .cls-29, .cls-30, .cls-49, .cls-31, .cls-32, .cls-33, .cls-38, .cls-39, .cls-40, .cls-41, .cls-42, .cls-43, .cls-44, .cls-45, .cls-46 {
        fill: none;
      }

      .cls-2, .cls-3, .cls-4, .cls-5, .cls-6, .cls-7, .cls-8, .cls-9, .cls-10, .cls-11, .cls-12, .cls-13, .cls-14, .cls-15, .cls-16, .cls-17, .cls-18, .cls-19, .cls-20, .cls-21, .cls-22, .cls-23, .cls-24, .cls-25, .cls-26, .cls-27, .cls-28, .cls-30, .cls-31, .cls-32, .cls-33, .cls-38, .cls-39, .cls-40, .cls-41, .cls-42, .cls-43, .cls-44, .cls-45, .cls-46 {
        mix-blend-mode: multiply;
        stroke-miterlimit: 2;
      }

      .cls-2, .cls-8, .cls-9, .cls-33, .cls-38 {
        stroke: #a632ed;
      }

      .cls-2, .cls-39, .cls-44 {
        stroke-width: 6px;
      }

      .cls-47, .cls-50 {
        stroke-width: 0px;
      }

      .cls-3, .cls-7, .cls-28 {
        stroke: #fc4720;
      }

      .cls-3, .cls-21, .cls-22 {
        stroke-width: 4.3px;
      }

      .cls-4, .cls-18, .cls-30 {
        stroke-width: 5.1px;
      }

      .cls-4, .cls-20, .cls-23 {
        stroke: #f17459;
      }

      .cls-5 {
        stroke-width: 17.4px;
      }

      .cls-5, .cls-16 {
        stroke: #e79917;
      }

      .cls-6 {
        stroke-width: 1.3px;
      }

      .cls-6, .cls-10, .cls-14, .cls-15, .cls-24, .cls-25, .cls-27, .cls-32, .cls-46 {
        stroke: #e8e8e8;
      }

      .cls-7, .cls-16 {
        stroke-width: 5.5px;
      }

      .cls-48, .cls-29, .cls-49 {
        stroke: #3d3d3d;
        stroke-linejoin: round;
      }

      .cls-8 {
        stroke-width: 7.7px;
      }

      .cls-9 {
        stroke-width: 15.3px;
      }

      .cls-10 {
        stroke-width: .5px;
      }

      .cls-11, .cls-20, .cls-41 {
        stroke-width: 4.7px;
      }

      .cls-11, .cls-21, .cls-40 {
        stroke: #5347dd;
      }

      .cls-12 {
        stroke-width: 20px;
      }

      .cls-12, .cls-18 {
        stroke: #209e66;
      }

      .cls-13 {
        stroke: #7edda3;
        stroke-width: 23px;
      }

      .cls-14 {
        stroke-width: 3.4px;
      }

      .cls-15 {
        stroke-width: 3px;
      }

      .cls-17 {
        stroke: #03b768;
        stroke-width: 16.2px;
      }

      .cls-19 {
        stroke: #1c8dc4;
        stroke-width: 19.6px;
      }

      .cls-22 {
        stroke: #bfd801;
      }

      .cls-23 {
        stroke-width: 9.4px;
      }

      .cls-24 {
        stroke-width: 1.7px;
      }

      .cls-25 {
        stroke-width: 2.1px;
      }

      .cls-26 {
        stroke-width: 6.4px;
      }

      .cls-26, .cls-42 {
        stroke: #df4d8c;
      }

      .cls-27 {
        stroke-width: .9px;
      }

      .cls-28 {
        stroke-width: 29.3px;
      }

      .cls-29, .cls-49 {
        stroke-width: 5px;
      }

      .cls-29, .cls-34 {
        font-size: 10px;
      }

      .cls-30, .cls-43, .cls-44 {
        stroke: #4278a5;
      }

      .cls-31 {
        stroke-width: 19.1px;
      }

      .cls-31, .cls-39 {
        stroke: #b3c622;
      }

      .cls-32 {
        stroke-width: 3.8px;
      }

      .cls-33 {
        stroke-width: 9.8px;
      }

      .cls-34, .cls-50 {
        fill: #fff;
      }

      .cls-35, .cls-51 {
        display: none;
      }

      .cls-37 {
        fill: #000;
        font-family: Helvetica, Helvetica;
        font-size: 7px;
      }

      .cls-38 {
        stroke-width: 8.1px;
      }

      .cls-40 {
        stroke-width: 20.4px;
      }

      .cls-41, .cls-45 {
        stroke: #e94242;
      }

      .cls-42 {
        stroke-width: 31.9px;
      }

      .cls-43 {
        stroke-width: 6.8px;
      }

      .cls-45 {
        stroke-width: 8.5px;
      }

      .cls-46 {
        stroke-width: 2.6px;
      }
    </style>
  </defs>
  <g class="cls-36">
    <g id="Layer_1-2" data-name="Layer 1">
      <g>
        <path class="cls-33" d="M517.6,13.1v469.8"/>
        <path class="cls-28" d="M467.5,13.1c0,233.5-103.1,233.5-103.1,467"/>
        <path class="cls-26" d="M96.2,13.1c0,233.5-18.9,233.5-18.9,467"/>
        <path class="cls-11" d="M69.2,13.1c0,233.5-18.9,233.5-18.9,467"/>
        <path class="cls-6" d="M166.9,13.1c0,233.5,254.6,236.3,254.6,469.8"/>
        <path class="cls-18" d="M117.9,13.1c0,233.5,5.1,233.5,5.1,467"/>
        <path class="cls-46" d="M117.4,13.1c0,233.5,10.1,233.5,10.1,467"/>
        <path class="cls-16" d="M136.7,13.1c0,233.5,126.9,233.5,126.9,467"/>
        <path class="cls-27" d="M183.9,13.1c0,233.5-91,233.5-91,467"/>
        <path class="cls-4" d="M382,13.1c0,233.5,97.6,236.3,97.6,469.8"/>
        <path class="cls-45" d="M375.2,13.1c0,233.5,97.6,236.3,97.6,469.8"/>
        <path class="cls-12" d="M261.1,13.1c0,233.5-55.5,233.5-55.5,467"/>
        <path class="cls-19" d="M314.9,13.1c0,233.5-4.7,233.5-4.7,467"/>
        <path class="cls-6" d="M44.7,13.1c0,233.5,348.8,236.3,348.8,469.8"/>
        <path class="cls-10" d="M398.6,13.1c0,233.5-301.2,233.5-301.2,467"/>
        <path class="cls-15" d="M511.2,13.1v469.8"/>
        <path class="cls-8" d="M419.2,13.1c0,233.5-183.2,233.5-183.2,467"/>
        <path class="cls-25" d="M414.3,13.1c0,233.5-183.2,233.5-183.2,467"/>
        <path class="cls-10" d="M398.2,13.1c0,233.5-301.2,233.5-301.2,467"/>
        <path class="cls-6" d="M509.1,13.1v469.8"/>
        <path class="cls-24" d="M93.6,13.1c0,233.5-11.7,233.5-11.7,467"/>
        <path class="cls-27" d="M370.5,13.1c0,233.5,97.6,236.3,97.6,469.8"/>
        <path class="cls-10" d="M397.8,13.1c0,233.5-301.2,233.5-301.2,467"/>
        <path class="cls-24" d="M451.9,13.1c0,233.5-103.1,233.5-103.1,467"/>
        <path class="cls-10" d="M115.9,13.1c0,233.5,10.1,233.5,10.1,467"/>
        <path class="cls-7" d="M248.3,13.1c0,233.5-55.5,233.5-55.5,467"/>
        <path class="cls-6" d="M244.9,13.1c0,233.5-55.5,233.5-55.5,467"/>
        <path class="cls-24" d="M450.2,13.1c0,233.5-103.1,233.5-103.1,467"/>
        <path class="cls-17" d="M500.4,13.1v469.8"/>
        <path class="cls-40" d="M439.2,13.1c0,233.5-103.1,233.5-103.1,467"/>
        <path class="cls-9" d="M85.1,13.1c0,233.5-18.9,233.5-18.9,467"/>
        <path class="cls-32" d="M75.5,13.1c0,233.5,9.1,233.5,9.1,467"/>
        <path class="cls-43" d="M74.7,13.1c0,233.5-18.9,233.5-18.9,467"/>
        <path class="cls-23" d="M161.6,13.1c0,233.5,254.6,236.3,254.6,469.8"/>
        <path class="cls-41" d="M154.6,13.1c0,233.5,254.6,236.3,254.6,469.8"/>
        <path class="cls-2" d="M149.3,13.1c0,233.5,254.6,236.3,254.6,469.8"/>
        <path class="cls-10" d="M115.5,13.1c0,233.5,5.1,233.5,5.1,467"/>
        <path class="cls-3" d="M113.2,13.1c0,233.5,5.1,233.5,5.1,467"/>
        <path class="cls-39" d="M131,13.1c0,233.5,126.9,233.5,126.9,467"/>
        <path class="cls-10" d="M304.9,13.1c0,233.5-4.7,233.5-4.7,467"/>
        <path class="cls-6" d="M182.9,13.1c0,233.5-91,233.5-91,467"/>
        <path class="cls-6" d="M181.6,13.1c0,233.5-91,233.5-91,467"/>
        <path class="cls-13" d="M358.6,13.1c0,233.5,97.6,236.3,97.6,469.8"/>
        <path class="cls-5" d="M338.4,13.1c0,233.5,97.6,236.3,97.6,469.8"/>
        <path class="cls-27" d="M243.9,13.1c0,233.5-55.5,233.5-55.5,467"/>
        <path class="cls-42" d="M227.5,13.1c0,233.5-55.5,233.5-55.5,467"/>
        <path class="cls-21" d="M201.8,13.1c0,233.5-55.5,233.5-55.5,467"/>
        <path class="cls-25" d="M303.6,13.1c0,233.5-4.7,233.5-4.7,467"/>
        <path class="cls-31" d="M293,13.1c0,233.5-4.7,233.5-4.7,467"/>
        <path class="cls-32" d="M34.5,13.1v467"/>
        <path class="cls-27" d="M32.2,13.1v467"/>
        <path class="cls-24" d="M43.2,13.1c0,233.5,348.8,236.3,348.8,469.8"/>
        <path class="cls-10" d="M42.2,13.1c0,233.5,348.8,236.3,348.8,469.8"/>
        <path class="cls-22" d="M490.2,13.1v469.8"/>
        <path class="cls-27" d="M412.8,13.1c0,233.5-183.2,233.5-183.2,467"/>
        <path class="cls-44" d="M409.4,13.1c0,233.5-183.2,233.5-183.2,467"/>
        <path class="cls-46" d="M405.2,13.1c0,233.5-183.2,233.5-183.2,467"/>
        <path class="cls-20" d="M64.5,13.1c0,233.5-18.9,233.5-18.9,467"/>
        <path class="cls-46" d="M145,13.1c0,233.5,254.6,236.3,254.6,469.8"/>
        <path class="cls-6" d="M282.8,13.1c0,233.5-4.7,233.5-4.7,467"/>
        <path class="cls-38" d="M207.6,13.1c0,233.5-55.5,233.5-55.5,467"/>
        <path class="cls-6" d="M31.1,13.1v467"/>
        <path class="cls-10" d="M403.7,13.1c0,233.5-183.2,233.5-183.2,467"/>
        <path class="cls-10" d="M61.9,13.1c0,233.5-18.9,233.5-18.9,467"/>
        <path class="cls-14" d="M197.5,13.1c0,233.5-60.5,233.5-60.5,467"/>
        <path class="cls-27" d="M281.7,13.1c0,233.5-4.7,233.5-4.7,467"/>
        <path class="cls-46" d="M280,13.1c0,233.5-4.7,233.5-4.7,467"/>
        <path class="cls-10" d="M39.2,13.1c0,233.5,71.2,233.5,71.2,467"/>
        <path class="cls-24" d="M402.6,13.1c0,233.5-183.2,233.5-183.2,467"/>
        <path class="cls-6" d="M401.2,13.1c0,233.5-183.2,233.5-183.2,467"/>
        <path class="cls-27" d="M143.3,13.1c0,233.5,254.6,236.3,254.6,469.8"/>
        <path class="cls-25" d="M127,13.1c0,233.5,126.9,233.5,126.9,467"/>
        <path class="cls-25" d="M328.7,13.1c0,233.5,97.6,236.3,97.6,469.8"/>
        <path class="cls-24" d="M277.9,13.1c0,233.5-4.7,233.5-4.7,467"/>
        <path class="cls-24" d="M487.2,13.1v469.8"/>
        <path class="cls-10" d="M400.3,13.1c0,233.5-183.2,233.5-183.2,467"/>
        <path class="cls-27" d="M397.1,13.1c0,233.5-301.2,233.5-301.2,467"/>
        <path class="cls-24" d="M395.8,13.1c0,233.5-301.2,233.5-301.2,467"/>
        <path class="cls-10" d="M125.7,13.1c0,233.5,126.9,233.5,126.9,467"/>
        <path class="cls-24" d="M180.1,13.1c0,233.5-91,233.5-91,467"/>
        <path class="cls-10" d="M40,13.1c0,233.5,210.4,233.5,210.4,467"/>
        <path class="cls-27" d="M38.6,13.1c0,233.5,71.2,233.5,71.2,467"/>
        <path class="cls-27" d="M485.9,13.1v469.8"/>
        <path class="cls-10" d="M399.9,13.1c0,233.5-183.2,233.5-183.2,467"/>
        <path class="cls-25" d="M60.7,13.1c0,233.5-18.9,233.5-18.9,467"/>
        <path class="cls-30" d="M197.2,13.1c0,233.5-55.5,233.5-55.5,467"/>
        <path class="cls-6" d="M59,13.1c0,233.5-18.9,233.5-18.9,467"/>
        <path class="cls-6" d="M142.3,13.1c0,233.5,254.6,236.3,254.6,469.8"/>
        <path class="cls-25" d="M110,13.1c0,233.5,5.1,233.5,5.1,467"/>
        <path class="cls-6" d="M276.4,13.1c0,233.5-4.7,233.5-4.7,467"/>
        <path class="cls-46" d="M189.5,13.1c0,233.5-55.5,233.5-55.5,467"/>
        <path class="cls-10" d="M39.6,13.1c0,233.5,210.4,233.5,210.4,467"/>
        <path class="cls-27" d="M37.7,13.1c0,233.5,71.2,233.5,71.2,467"/>
        <path class="cls-10" d="M399.5,13.1c0,233.5-183.2,233.5-183.2,467"/>
        <path class="cls-10" d="M399,13.1c0,233.5-183.2,233.5-183.2,467"/>
        <path class="cls-10" d="M125.3,13.1c0,233.5,126.9,233.5,126.9,467"/>
        <path class="cls-10" d="M58.1,13.1c0,233.5-18.9,233.5-18.9,467"/>
        <path class="cls-10" d="M188,13.1c0,233.5-55.5,233.5-55.5,467"/>
        <path class="cls-10" d="M187.6,13.1c0,233.5-55.5,233.5-55.5,467"/>
        <path class="cls-46" d="M186.1,13.1c0,233.5-55.5,233.5-55.5,467"/>
        <path class="cls-25" d="M427.9,13.1c0,233.5-103.1,233.5-103.1,467"/>
        <path class="cls-27" d="M57.5,13.1c0,233.5-18.9,233.5-18.9,467"/>
        <path class="cls-10" d="M141.4,13.1c0,233.5,254.6,236.3,254.6,469.8"/>
        <path class="cls-15" d="M274.3,13.1c0,233.5-4.7,233.5-4.7,467"/>
        <path class="cls-27" d="M41.5,13.1c0,233.5,348.8,236.3,348.8,469.8"/>
        <path class="cls-6" d="M56.4,13.1c0,233.5-18.9,233.5-18.9,467"/>
        <path class="cls-27" d="M108.5,13.1c0,233.5,5.1,233.5,5.1,467"/>
        <path class="cls-6" d="M327,13.1c0,233.5,97.6,236.3,97.6,469.8"/>
        <path class="cls-10" d="M124.8,13.1c0,233.5,126.9,233.5,126.9,467"/>
        <path class="cls-27" d="M178.8,13.1c0,233.5-91,233.5-91,467"/>
        <path class="cls-10" d="M178.2,13.1c0,233.5-91,233.5-91,467"/>
        <path class="cls-10" d="M326.1,13.1c0,233.5,97.6,236.3,97.6,469.8"/>
        <path class="cls-10" d="M184.6,13.1c0,233.5-55.5,233.5-55.5,467"/>
        <path class="cls-10" d="M272.6,13.1c0,233.5-4.7,233.5-4.7,467"/>
        <path class="cls-10" d="M30.3,13.1v467"/>
        <path class="cls-27" d="M29.6,13.1v467"/>
        <path class="cls-10" d="M40.9,13.1c0,233.5,348.8,236.3,348.8,469.8"/>
        <path class="cls-27" d="M426.4,13.1c0,233.5-103.1,233.5-103.1,467"/>
        <path class="cls-10" d="M141,13.1c0,233.5,254.6,236.3,254.6,469.8"/>
        <path class="cls-10" d="M140.6,13.1c0,233.5,254.6,236.3,254.6,469.8"/>
        <path class="cls-27" d="M107.6,13.1c0,233.5,5.1,233.5,5.1,467"/>
        <path class="cls-10" d="M107,13.1c0,233.5,5.1,233.5,5.1,467"/>
        <path class="cls-10" d="M325.7,13.1c0,233.5,97.6,236.3,97.6,469.8"/>
        <path class="cls-10" d="M29,13.1v467"/>
        <path class="cls-10" d="M40.5,13.1c0,233.5,348.8,236.3,348.8,469.8"/>
        <path class="cls-10" d="M485.3,13.1v469.8"/>
        <path class="cls-10" d="M425.8,13.1c0,233.5-103.1,233.5-103.1,467"/>
        <path class="cls-24" d="M484.2,13.1v469.8"/>
        <path class="cls-10" d="M140.1,13.1c0,233.5,254.6,236.3,254.6,469.8"/>
        <path class="cls-27" d="M271.9,13.1c0,233.5-4.7,233.5-4.7,467"/>
        <path class="cls-27" d="M325.1,13.1c0,233.5,97.6,236.3,97.6,469.8"/>
        <path class="cls-27" d="M28.4,13.1v467"/>
        <path class="cls-10" d="M37.1,13.1c0,233.5,71.2,233.5,71.2,467"/>
        <path class="cls-10" d="M425.4,13.1c0,233.5-103.1,233.5-103.1,467"/>
        <path class="cls-6" d="M424.5,13.1c0,233.5-103.1,233.5-103.1,467"/>
        <path class="cls-10" d="M139.7,13.1c0,233.5,254.6,236.3,254.6,469.8"/>
        <path class="cls-6" d="M106.1,13.1c0,233.5,5.1,233.5,5.1,467"/>
        <path class="cls-27" d="M124.2,13.1c0,233.5,126.9,233.5,126.9,467"/>
        <path class="cls-10" d="M394.8,13.1c0,233.5-301.2,233.5-301.2,467"/>
        <path class="cls-10" d="M423.7,13.1c0,233.5-103.1,233.5-103.1,467"/>
        <path class="cls-10" d="M36.6,13.1c0,233.5,71.2,233.5,71.2,467"/>
        <path class="cls-10" d="M423.3,13.1c0,233.5-103.1,233.5-103.1,467"/>
        <path class="cls-10" d="M177.8,13.1c0,233.5-91,233.5-91,467"/>
        <path class="cls-10" d="M271.3,13.1c0,233.5-4.7,233.5-4.7,467"/>
        <path class="cls-10" d="M483.2,13.1v469.8"/>
        <path class="cls-27" d="M482.5,13.1v469.8"/>
        <path class="cls-10" d="M55.6,13.1c0,233.5-18.9,233.5-18.9,467"/>
        <path class="cls-10" d="M27.7,13.1v467"/>
        <path class="cls-33" d="M517.6,483v467"/>
        <path class="cls-28" d="M364.4,483c0,233.5,133.7,233.5,133.7,467"/>
        <path class="cls-26" d="M76.6,483c0,233.5,352.7,233,352.7,466.5"/>
        <path class="cls-11" d="M50.6,483c0,233.5,230.9,233.5,230.9,467"/>
        <path class="cls-6" d="M509.2,483c0,233.5-230.6,233.5-230.6,467"/>
        <path class="cls-18" d="M122.6,483c0,233.5,111.5,233.3,111.5,466.8"/>
        <path class="cls-46" d="M220.9,483c0,233.5,92.8,233.5,92.8,467"/>
        <path class="cls-16" d="M263.5,483c0,233.5,214.3,233.5,214.3,467"/>
        <path class="cls-27" d="M97.4,483c0,233.5,204.2,233.5,204.2,467"/>
        <path class="cls-4" d="M479.4,483c0,233.5-209.2,233.5-209.2,467"/>
        <path class="cls-45" d="M472.7,483c0,233.5-2.7,233.5-2.7,467"/>
        <path class="cls-12" d="M205.6,483c0,233.5,52.1,233.5,52.1,467"/>
        <path class="cls-19" d="M310.5,483.1c0,233.5,145.8,233.4,145.8,466.9"/>
        <path class="cls-6" d="M486.9,483c0,233.5-270.4,233.5-270.4,467"/>
        <path class="cls-10" d="M96.8,483c0,233.5,204.2,233.5,204.2,467"/>
        <path class="cls-15" d="M484.8,483c0,233.5-319.3,233.5-319.3,467"/>
        <path class="cls-8" d="M235.9,483c0,233.5,39.9,233.5,39.9,467"/>
        <path class="cls-25" d="M230.7,483c0,233.5,80.7,233.5,80.7,467"/>
        <path class="cls-10" d="M96.4,483c0,233.5,204.2,233.5,204.2,467"/>
        <path class="cls-6" d="M482.7,483c0,233.5-329.8,233.5-329.8,467"/>
        <path class="cls-24" d="M81.3,483c0,233.5,1.2,233.5,1.2,467"/>
        <path class="cls-27" d="M467.8,483c0,233.5-315.9,233.5-315.9,467"/>
        <path class="cls-10" d="M42.2,483c0,233.5,39.3,233.5,39.3,467"/>
        <path class="cls-24" d="M325.1,482.9c0,233.5,45.3,233.6,45.3,467.1"/>
        <path class="cls-10" d="M229.3,483c0,233.5,80.8,233.5,80.8,467"/>
        <path class="cls-7" d="M192.9,483c0,233.5-51.3,233.5-51.3,467"/>
        <path class="cls-6" d="M222.7,483c0,233.5,86.6,233.5,86.6,467"/>
        <path class="cls-24" d="M266.8,483c0,233.5-24.3,233.5-24.3,467"/>
        <path class="cls-17" d="M500.5,483c0,233.5-82.5,233.5-82.5,467"/>
        <path class="cls-40" d="M336.1,482.8c0,233.5,63.7,233.7,63.7,467.2"/>
        <path class="cls-9" d="M65.8,483c0,233.5,38.7,233.5,38.7,467"/>
        <path class="cls-32" d="M89.6,483c0,233.5,56.8,233.5,56.8,467"/>
        <path class="cls-43" d="M56.4,483c0,233.5,329.7,233.5,329.7,467"/>
        <path class="cls-23" d="M415.8,483c0,233.5-323.9,233.5-323.9,467"/>
        <path class="cls-41" d="M408.9,483c0,233.5-184.8,233.5-184.8,467"/>
        <path class="cls-2" d="M403.7,483c0,233.5-23.8,233.5-23.8,467"/>
        <path class="cls-10" d="M132.7,483c0,233.5-47.4,233.5-47.4,467"/>
        <path class="cls-3" d="M118,483c0,233.5,101.6,233.5,101.6,467"/>
        <path class="cls-39" d="M257.5,483c0,233.5,116.4,233.5,116.4,467"/>
        <path class="cls-10" d="M298.6,483.1c0,233.5-243.3,236.2-243.3,469.7"/>
        <path class="cls-6" d="M87,483c0,233.5,48.7,233.5,48.7,467"/>
        <path class="cls-6" d="M95.5,483c0,233.5,204.1,233.5,204.1,467"/>
        <path class="cls-13" d="M455.7,483c0,233.5-97.7,233.5-97.7,467"/>
        <path class="cls-5" d="M435.7,483c0,233.5-228.1,233.5-228.1,467"/>
        <path class="cls-27" d="M130.3,483c0,233.5-82,236.3-82,469.8"/>
        <path class="cls-42" d="M171.8,483c0,233.5,10.8,233.5,10.8,467"/>
        <path class="cls-21" d="M146.2,483c0,233.5,197.9,233.5,197.9,467"/>
        <path class="cls-25" d="M348.7,483.1c0,233.5-108.2,233.4-108.2,466.9"/>
        <path class="cls-31" d="M288.7,483.2c0,233.5,44.2,233.2,44.2,466.7"/>
        <path class="cls-32" d="M40.1,483c0,233.5,39.2,233.5,39.2,467"/>
        <path class="cls-27" d="M94.4,483c0,233.5,204.1,233.5,204.1,467"/>
        <path class="cls-24" d="M397.5,483c0,233.5-281,233.5-281,467"/>
        <path class="cls-10" d="M512.6,483c0,233.5-38,233.5-38,467"/>
        <path class="cls-22" d="M490.2,483c0,233.5-261.3,233.4-261.3,467"/>
        <path class="cls-27" d="M129.4,483c0,233.5-81.9,236.3-81.9,469.8"/>
        <path class="cls-44" d="M226.2,483c0,233.5-68.5,233.5-68.5,467"/>
        <path class="cls-46" d="M218.7,483c0,233.5,88.6,233.5,88.6,467"/>
        <path class="cls-20" d="M45.5,483c0,233.5,74.3,233.5,74.3,467"/>
        <path class="cls-46" d="M511.1,483c0,233.5-27.9,233.5-27.9,467"/>
        <path class="cls-6" d="M347,483.1c0,233.5-108.3,233.4-108.3,466.9"/>
        <path class="cls-38" d="M152.2,483c0,233.5,284.9,233.5,284.9,467"/>
        <path class="cls-6" d="M37.5,483c0,233.5,39.3,233.5,39.3,467"/>
        <path class="cls-10" d="M132.2,483c0,233.5-47.4,233.5-47.4,467"/>
        <path class="cls-10" d="M86.1,483.1c0,233.5,48.8,233.4,48.8,466.9"/>
        <path class="cls-14" d="M127.1,483c0,233.5-81.8,236.3-81.8,469.8"/>
        <path class="cls-27" d="M320.4,483c0,233.5-82.7,233.5-82.7,467"/>
        <path class="cls-46" d="M276.2,483c0,233.5,168.9,233.5,168.9,467"/>
        <path class="cls-10" d="M217.2,483c0,233.5,88.6,233.5,88.6,467"/>
        <path class="cls-24" d="M115.2,483c0,233.5-72.4,236.3-72.4,469.8"/>
        <path class="cls-6" d="M134.4,483c0,233.5,16.4,233.5,16.4,467"/>
        <path class="cls-27" d="M422.3,483c0,233.5-174.6,233.3-174.6,466.8"/>
        <path class="cls-25" d="M273.8,483c0,233.5,47.5,233.5,47.5,467"/>
        <path class="cls-25" d="M391.8,483c0,233.5-333.5,236.3-333.5,469.8"/>
        <path class="cls-24" d="M278.3,483.1c0,233.5-224,236.2-224,469.7"/>
        <path class="cls-24" d="M426.6,483c0,233.5,54.7,233.5,54.7,467"/>
        <path class="cls-10" d="M216.7,483c0,233.5,88.6,233.5,88.6,467"/>
        <path class="cls-27" d="M85.4,483.1c0,233.5,48.8,233.4,48.8,466.9"/>
        <path class="cls-24" d="M93.2,483c0,233.5,204.1,233.5,204.1,467"/>
        <path class="cls-10" d="M321,483c0,233.5-157.2,233.5-157.2,467"/>
        <path class="cls-24" d="M36,483c0,233.5,39.3,233.5,39.3,467"/>
        <path class="cls-10" d="M272.6,483c0,233.5,47.4,233.5,47.4,467"/>
        <path class="cls-27" d="M216.1,483c0,233.5,88.6,233.5,88.6,467"/>
        <path class="cls-27" d="M396.3,483c0,233.5-281,233.5-281,467"/>
        <path class="cls-10" d="M131.8,483c0,233.5-47.4,233.5-47.4,467"/>
        <path class="cls-25" d="M34.1,483c0,233.5,39.3,233.5,39.3,467"/>
        <path class="cls-30" d="M141.7,483c0,233.5-102.3,236.3-102.3,469.8"/>
        <path class="cls-6" d="M29.4,483v469.8"/>
        <path class="cls-6" d="M395.2,483c0,233.5-281,233.5-281,467"/>
        <path class="cls-25" d="M113.4,483c0,233.5-77.6,236.3-77.6,469.8"/>
        <path class="cls-6" d="M253.9,483c0,233.5-201.1,236.3-201.1,469.8"/>
        <path class="cls-46" d="M111,483c0,233.5-77.6,236.3-77.6,469.8"/>
        <path class="cls-10" d="M253,483c0,233.5-201.1,236.3-201.1,469.8"/>
        <path class="cls-27" d="M138.5,483.2c0,233.5,11.3,233.3,11.3,466.8"/>
        <path class="cls-10" d="M109.5,483c0,233.5-77.6,236.3-77.6,469.8"/>
        <path class="cls-10" d="M137.9,483c0,233.5,11.3,233.5,11.3,467"/>
        <path class="cls-10" d="M272.1,483c0,233.5,47.4,233.5,47.4,467"/>
        <path class="cls-10" d="M84.4,483c0,233.5,211.8,233.4,211.8,467"/>
        <path class="cls-10" d="M189.8,483c0,233.5,114.3,233.5,114.3,467"/>
        <path class="cls-10" d="M131.4,483c0,233.5-47.4,233.5-47.4,467"/>
        <path class="cls-46" d="M136.4,483c0,233.5,1.5,233.5,1.5,467"/>
        <path class="cls-25" d="M251.7,483c0,233.5-201.1,236.3-201.1,469.8"/>
        <path class="cls-27" d="M28.4,483v469.8"/>
        <path class="cls-10" d="M425.5,483c0,233.5,17.8,233.5,17.8,467"/>
        <path class="cls-15" d="M270.4,483c0,233.5,47.4,233.5,47.4,467"/>
        <path class="cls-27" d="M421.4,483c0,233.5-174.6,233.3-174.6,466.8"/>
        <path class="cls-6" d="M82.8,483c0,233.5,212.5,233.5,212.5,467"/>
        <path class="cls-27" d="M108.9,483c0,233.5-77.6,236.3-77.6,469.8"/>
        <path class="cls-6" d="M424.7,483c0,233.5,17.8,233.5,17.8,467"/>
        <path class="cls-10" d="M321.4,483c0,233.5-209.8,233.5-209.8,467"/>
        <path class="cls-27" d="M32.6,483c0,233.5,39.3,233.5,39.3,467"/>
        <path class="cls-10" d="M84.8,483.1c0,233.5,48.8,233.4,48.8,466.9"/>
        <path class="cls-10" d="M394.3,483c0,233.5-281,233.5-281,467"/>
        <path class="cls-10" d="M131,483c0,233.5-47.4,233.5-47.4,467"/>
        <path class="cls-10" d="M300.4,483.2c0,233.5-213.4,233.3-213.4,466.8"/>
        <path class="cls-10" d="M83.8,482.9c0,233.5,49.4,233.5,49.4,467"/>
        <path class="cls-27" d="M91.9,483c0,233.5,202.4,233.5,202.4,467"/>
        <path class="cls-10" d="M393.9,483c0,233.5-281,233.5-281,467"/>
        <path class="cls-27" d="M323.8,483c0,233.5-160.7,233.5-160.7,467"/>
        <path class="cls-10" d="M393.5,483c0,233.5-281,233.5-281,467"/>
        <path class="cls-10" d="M423.8,483c0,233.5,17.8,233.5,17.8,467"/>
        <path class="cls-27" d="M133.3,483c0,233.5,15.4,233.5,15.4,467"/>
        <path class="cls-10" d="M189.2,483c0,233.5,114.4,233.5,114.4,467"/>
        <path class="cls-10" d="M423.4,483c0,233.5-100.7,233.5-100.7,467"/>
        <path class="cls-10" d="M32,483c0,233.5,39.3,233.5,39.3,467"/>
        <path class="cls-10" d="M420.8,483c0,233.5-174.6,233.3-174.6,466.8"/>
        <path class="cls-10" d="M423,483c0,233.5,9.7,233.5,9.7,467"/>
        <path class="cls-10" d="M323.1,483c0,233.5-160.7,233.5-160.7,467"/>
        <path class="cls-24" d="M400,483c0,233.5-154.9,233.3-154.9,466.8"/>
        <path class="cls-10" d="M390.5,483c0,233.5-333.5,236.3-333.5,469.8"/>
        <path class="cls-27" d="M322.5,483c0,233.5-160.7,233.5-160.7,467"/>
        <path class="cls-27" d="M398.8,483c0,233.5-154.9,233.3-154.9,466.8"/>
        <path class="cls-27" d="M31.3,483c0,233.5,39.3,233.5,39.3,467"/>
        <path class="cls-10" d="M108.3,483c0,233.5-77.6,236.3-77.6,469.8"/>
        <path class="cls-10" d="M321.9,483c0,233.5-160.7,233.5-160.7,467"/>
        <path class="cls-6" d="M268.3,483c0,233.5,47.4,233.5,47.4,467"/>
        <path class="cls-10" d="M390.1,483c0,233.5-333.5,236.3-333.5,469.8"/>
        <path class="cls-6" d="M188.4,483c0,233.5,114.4,233.5,114.4,467"/>
        <path class="cls-27" d="M299.7,483c0,233.5-213.4,233.4-213.4,467"/>
        <path class="cls-10" d="M30.7,483c0,233.5,39.3,233.5,39.3,467"/>
        <path class="cls-10" d="M250.5,483c0,233.5-201.1,236.3-201.1,469.8"/>
        <path class="cls-10" d="M107.8,483c0,233.5-77.6,236.3-77.6,469.8"/>
        <path class="cls-10" d="M250,483c0,233.5-201.1,236.3-201.1,469.8"/>
        <path class="cls-10" d="M30.3,483c0,233.5,39.3,233.5,39.3,467"/>
        <path class="cls-10" d="M299,483.1c0,233.5-193.3,233.4-193.3,466.9"/>
        <path class="cls-10" d="M393.1,483c0,233.5-281,233.5-281,467"/>
        <path class="cls-27" d="M389.5,483c0,233.5-333.5,236.3-333.5,469.8"/>
        <path class="cls-10" d="M42.8,483c0,233.5,90,233.5,90,467"/>
        <path class="cls-10" d="M27.7,483v469.8"/>
        <path class="cls-33" d="M517.6,952.8v467"/>
        <path class="cls-28" d="M498.1,952.8v467"/>
        <path class="cls-26" d="M428.9,952.9c0,233.5-7,233.4-7,466.9"/>
        <path class="cls-11" d="M281.5,952.8c0,233.5,135.9,233.5,135.9,467"/>
        <path class="cls-6" d="M278.5,952.8c0,233.5,135.9,233.5,135.9,467"/>
        <path class="cls-18" d="M234,952.8c0,233.5,143.4,233.5,143.4,467"/>
        <path class="cls-46" d="M481.9,952.8c0,233.5-6.2,233.5-6.2,467"/>
        <path class="cls-16" d="M477.9,952.8c0,233.5-6.2,233.5-6.2,467"/>
        <path class="cls-27" d="M474.7,952.8c0,233.5-6.2,233.5-6.2,467"/>
        <path class="cls-4" d="M270.2,952.8c0,233.5,135.9,233.5,135.9,467"/>
        <path class="cls-45" d="M470,952.8c0,233.5-6.2,233.5-6.2,467"/>
        <path class="cls-12" d="M257.7,952.8c0,233.5,135.9,233.5,135.9,467"/>
        <path class="cls-19" d="M456,952.8c0,233.5-6.2,233.5-6.2,467"/>
        <path class="cls-6" d="M247.1,952.8c0,233.5,135.9,233.5,135.9,467"/>
        <path class="cls-10" d="M446,952.8c0,233.5-6.2,233.5-6.2,467"/>
        <path class="cls-15" d="M244.9,952.8c0,233.5,135.9,233.5,135.9,467"/>
        <path class="cls-8" d="M276.8,952.8c0,233.5,135.9,233.5,135.9,467"/>
        <path class="cls-25" d="M444.7,952.8c0,233.5-6.2,233.5-6.2,467"/>
        <path class="cls-10" d="M314.9,952.8c0,233.5-207.9,233.5-207.9,467"/>
        <path class="cls-6" d="M151.8,952.8c0,233.5-53.4,233.5-53.4,467"/>
        <path class="cls-24" d="M76.2,952.8c0,233.5,14,233.5,14,467"/>
        <path class="cls-27" d="M150.8,952.8c0,233.5-53.4,233.5-53.4,467"/>
        <path class="cls-10" d="M75.1,952.8c0,233.5,14,233.5,14,467"/>
        <path class="cls-24" d="M313.8,952.8c0,233.5-207.9,233.5-207.9,467"/>
        <path class="cls-10" d="M306.8,952.8c0,233.5-233.6,233.5-233.6,467"/>
        <path class="cls-7" d="M141.6,952.8c0,233.5-84.2,233.5-84.2,467"/>
        <path class="cls-6" d="M305.9,952.8c0,233.5-233.6,233.5-233.6,467"/>
        <path class="cls-24" d="M240.8,952.8c0,233.5-7.2,233.5-7.2,467"/>
        <path class="cls-17" d="M417.9,952.8c0,233.5-80.6,233.5-80.6,467"/>
        <path class="cls-40" d="M399.7,952.8c0,233.5-80.6,233.5-80.6,467"/>
        <path class="cls-9" d="M104.2,952.8c0,233.5,43.2,233.5,43.2,467"/>
        <path class="cls-32" d="M238.1,952.8c0,233.5-7.2,233.5-7.2,467"/>
        <path class="cls-43" d="M386.1,952.8c0,233.5-80.6,233.5-80.6,467"/>
        <path class="cls-23" d="M91.9,952.8c0,233.5,43.2,233.5,43.2,467"/>
        <path class="cls-41" d="M224.1,952.8c0,233.5,2.6,233.5,2.6,467"/>
        <path class="cls-2" d="M379.7,952.8c0,233.5-80.6,233.5-80.6,467"/>
        <path class="cls-10" d="M87,952.8c0,233.5,43.2,233.5,43.2,467"/>
        <path class="cls-3" d="M219.6,952.8c0,233.5,2.6,233.5,2.6,467"/>
        <path class="cls-39" d="M373.7,952.8c0,233.5-80.6,233.5-80.6,467"/>
        <path class="cls-10" d="M50.7,952.9c0,233.5,69.3,233.4,69.3,466.9"/>
        <path class="cls-6" d="M216.9,952.8c0,233.5,2.6,233.5,2.6,467"/>
        <path class="cls-6" d="M370.1,952.8c0,233.5-80.6,233.5-80.6,467"/>
        <path class="cls-13" d="M358,952.8c0,233.5-80.6,233.5-80.6,467"/>
        <path class="cls-5" d="M207.5,952.8c0,233.5,2.6,233.5,2.6,467"/>
        <path class="cls-27" d="M50,952.9c0,233.5,69.3,233.4,69.3,466.9"/>
        <path class="cls-42" d="M182.9,952.8c0,233.5,2.6,233.5,2.6,467"/>
        <path class="cls-21" d="M344.2,952.8c0,233.5-80.3,233.5-80.3,467"/>
        <path class="cls-25" d="M161.2,952.8c0,233.5,7.3,233.5,7.3,467"/>
        <path class="cls-31" d="M332.7,952.8c0,233.5-80.6,233.5-80.6,467"/>
        <path class="cls-32" d="M84.9,952.8c0,233.5,43.2,233.5,43.2,467"/>
        <path class="cls-27" d="M322.7,952.8c0,233.5-80.6,233.5-80.6,467"/>
        <path class="cls-24" d="M82.1,952.8c0,233.5,43.2,233.5,43.2,467"/>
        <path class="cls-10" d="M322.1,952.8c0,233.5-80.6,233.5-80.6,467"/>
        <path class="cls-22" d="M229.3,952.8c0,233.5,2.6,233.5,2.6,467"/>
        <path class="cls-27" d="M49.2,952.9c0,233.5,69.3,233.4,69.3,466.9"/>
        <path class="cls-44" d="M157.6,952.8c0,233.5,2.6,233.5,2.6,467"/>
        <path class="cls-46" d="M320.6,952.8c0,233.5-80.6,233.5-80.6,467"/>
        <path class="cls-20" d="M120.2,952.8c0,233.5,251.6,233.5,251.6,467"/>
        <path class="cls-46" d="M442.4,952.8c0,233.5-6.2,233.5-6.2,467"/>
        <path class="cls-6" d="M164.1,952.8c0,233.5,213.3,233.5,213.3,467"/>
        <path class="cls-38" d="M437.1,952.8c0,233.5-6.2,233.5-6.2,467"/>
        <path class="cls-6" d="M117.2,952.8c0,233.5,251.6,233.5,251.6,467"/>
        <path class="cls-10" d="M116.3,952.8c0,233.5,251.6,233.5,251.6,467"/>
        <path class="cls-10" d="M150.1,952.8c0,233.5-53.4,233.5-53.4,467"/>
        <path class="cls-14" d="M46.2,952.9c0,233.5,39.8,233.4,39.8,466.9"/>
        <path class="cls-27" d="M149.5,952.8c0,233.5-53.4,233.5-53.4,467"/>
        <path class="cls-46" d="M311.7,952.8c0,233.5-207.9,233.5-207.9,467"/>
        <path class="cls-10" d="M310.2,952.8c0,233.5-207.9,233.5-207.9,467"/>
        <path class="cls-24" d="M42.8,952.9c0,155.7.1,311.3.4,466.9"/>
        <path class="cls-6" d="M138.2,952.8c0,233.5-84.2,233.5-84.2,467"/>
        <path class="cls-27" d="M137.2,952.8c0,233.5-84.2,233.5-84.2,467"/>
        <path class="cls-25" d="M304.2,952.8c0,233.5-233.6,233.5-233.6,467"/>
        <path class="cls-25" d="M36.1,952.8c0,233.5,5.2,233.5,5.2,467"/>
        <path class="cls-24" d="M34.2,952.8c0,233.5,5.2,233.5,5.2,467"/>
        <path class="cls-24" d="M302.3,952.8c0,233.5-233.6,233.5-233.6,467"/>
        <path class="cls-10" d="M301.3,952.8c0,233.5-233.6,233.5-233.6,467"/>
        <path class="cls-27" d="M154.2,952.8c0,233.5,2.6,233.5,2.6,467"/>
        <path class="cls-24" d="M318.5,952.8c0,233.5-80.6,233.5-80.6,467"/>
        <path class="cls-10" d="M153.5,952.8c0,233.5,2.6,233.5,2.6,467"/>
        <path class="cls-24" d="M80.4,952.8c0,233.5,43.2,233.5,43.2,467"/>
        <path class="cls-10" d="M317.4,952.8c0,233.5-80.6,233.5-80.6,467"/>
        <path class="cls-27" d="M316.8,952.8c0,233.5-80.6,233.5-80.6,467"/>
        <path class="cls-27" d="M79.2,952.8c0,233.5,43.2,233.5,43.2,467"/>
        <path class="cls-10" d="M78.5,952.8c0,233.5,43.2,233.5,43.2,467"/>
        <path class="cls-25" d="M72.6,952.8c0,233.5-25.3,233.5-25.3,467"/>
        <path class="cls-30" d="M39.4,952.8c0,233.5-3.3,233.5-3.3,467"/>
        <path class="cls-6" d="M58.3,952.9c0,233.5,304.6,233.4,304.6,466.9"/>
        <path class="cls-6" d="M115.5,952.8c0,233.5,251.6,233.5,251.6,467"/>
        <path class="cls-25" d="M56.6,952.9c0,233.5,304.6,233.4,304.6,466.9"/>
        <path class="cls-6" d="M54.9,952.9c0,233.5,304.6,233.4,304.6,466.9"/>
        <path class="cls-46" d="M53,952.9c0,233.5,304.6,233.4,304.6,466.9"/>
        <path class="cls-10" d="M51.5,952.9c0,233.5,304.6,233.4,304.6,466.9"/>
        <path class="cls-27" d="M163,952.8c0,233.5,213.3,233.5,213.3,467"/>
        <path class="cls-10" d="M51.1,952.9c0,233.5,304.6,233.4,304.6,466.9"/>
        <path class="cls-10" d="M148.9,952.8c0,233.5-53.4,233.5-53.4,467"/>
        <path class="cls-10" d="M309.8,952.8c0,233.5-207.9,233.5-207.9,467"/>
        <path class="cls-10" d="M309.3,952.8c0,233.5-207.9,233.5-207.9,467"/>
        <path class="cls-10" d="M308.9,952.8c0,233.5-207.9,233.5-207.9,467"/>
        <path class="cls-10" d="M74.7,952.8c0,233.5,14,233.5,14,467"/>
        <path class="cls-46" d="M147.4,952.8c0,233.5-53.4,233.5-53.4,467"/>
        <path class="cls-25" d="M32.4,952.8v467"/>
        <path class="cls-27" d="M30.9,952.8v467"/>
        <path class="cls-10" d="M300.8,952.8c0,233.5-233.6,233.5-233.6,467"/>
        <path class="cls-15" d="M299.1,952.8c0,233.5-233.6,233.5-233.6,467"/>
        <path class="cls-27" d="M152.9,952.8c0,233.5,2.6,233.5,2.6,467"/>
        <path class="cls-6" d="M297,952.8c0,233.5-233.6,233.5-233.6,467"/>
        <path class="cls-27" d="M30.1,952.8v467"/>
        <path class="cls-6" d="M295.7,952.8c0,233.5-233.6,233.5-233.6,467"/>
        <path class="cls-10" d="M114.6,952.8c0,233.5,251.6,233.5,251.6,467"/>
        <path class="cls-27" d="M114,952.8c0,233.5,251.6,233.5,251.6,467"/>
        <path class="cls-10" d="M243.2,952.8c0,233.5,132.5,233.5,132.5,467"/>
        <path class="cls-10" d="M113.4,952.8c0,233.5,251.6,233.5,251.6,467"/>
        <path class="cls-10" d="M112.9,952.8c0,233.5,251.6,233.5,251.6,467"/>
        <path class="cls-10" d="M112.5,952.8c0,233.5,251.6,233.5,251.6,467"/>
        <path class="cls-10" d="M242.7,952.8c0,233.5,132.5,233.5,132.5,467"/>
        <path class="cls-27" d="M432.6,952.8c0,233.5-6.2,233.5-6.2,467"/>
        <path class="cls-10" d="M112.1,952.8c0,233.5,251.6,233.5,251.6,467"/>
        <path class="cls-27" d="M242.1,952.8c0,233.5,132.5,233.5,132.5,467"/>
        <path class="cls-10" d="M74.3,952.8c0,233.5,14,233.5,14,467"/>
        <path class="cls-10" d="M308.5,952.8c0,233.5-207.9,233.5-207.9,467"/>
        <path class="cls-27" d="M145.7,952.8c0,233.5-53.4,233.5-53.4,467"/>
        <path class="cls-10" d="M308.1,952.8c0,233.5-207.9,233.5-207.9,467"/>
        <path class="cls-10" d="M307.6,952.8c0,233.5-207.9,233.5-207.9,467"/>
        <path class="cls-10" d="M73.8,952.8c0,233.5,14,233.5,14,467"/>
        <path class="cls-10" d="M145,952.8c0,233.5-53.4,233.5-53.4,467"/>
        <path class="cls-10" d="M307.2,952.8c0,233.5-207.9,233.5-207.9,467"/>
        <path class="cls-10" d="M144.6,952.8c0,233.5-53.4,233.5-53.4,467"/>
        <path class="cls-24" d="M135.9,952.8c0,233.5-84.2,233.5-84.2,467"/>
        <path class="cls-10" d="M29.4,952.8v467"/>
        <path class="cls-27" d="M134.6,952.8c0,233.5-84.2,233.5-84.2,467"/>
        <path class="cls-27" d="M133.8,952.8c0,233.5-84.2,233.5-84.2,467"/>
        <path class="cls-27" d="M71.1,952.8c0,233.5-25.3,233.5-25.3,467"/>
        <path class="cls-10" d="M29,952.8v467"/>
        <path class="cls-10" d="M133.1,952.8c0,233.5-84.2,233.5-84.2,467"/>
        <path class="cls-6" d="M294.5,952.8c0,233.5-233.6,233.5-233.6,467"/>
        <path class="cls-10" d="M48.5,952.9c0,233.5,69.3,233.4,69.3,466.9"/>
        <path class="cls-6" d="M315.7,952.8c0,233.5-80.6,233.5-80.6,467"/>
        <path class="cls-27" d="M77.9,952.8c0,233.5,43.2,233.5,43.2,467"/>
        <path class="cls-10" d="M77.2,952.8c0,233.5,43.2,233.5,43.2,467"/>
        <path class="cls-10" d="M48.1,952.9c0,233.5,69.3,233.4,69.3,466.9"/>
        <path class="cls-10" d="M44.3,952.9c0,233.5,39.8,233.4,39.8,466.9"/>
        <path class="cls-10" d="M43.9,952.9c0,233.5,39.8,233.4,39.8,466.9"/>
        <path class="cls-10" d="M70.4,952.8c0,233.5-25.3,233.5-25.3,467"/>
        <path class="cls-10" d="M70,952.8c0,233.5-25.3,233.5-25.3,467"/>
        <path class="cls-10" d="M69.6,952.8c0,233.5-25.3,233.5-25.3,467"/>
        <path class="cls-27" d="M28.4,952.8v467"/>
        <path class="cls-10" d="M132.7,952.8c0,233.5-84.2,233.5-84.2,467"/>
        <path class="cls-10" d="M27.7,952.8v467"/>
      </g>
    </g>
    <g id="Layer_2" data-name="Layer 2" class="cls-51">
      <g>
        <g class="cls-36">
          <g class="cls-36">
            <text class="cls-37" transform="translate(456.1 17.4) rotate(90) scale(1.4 1)"><tspan x="0" y="0">YES</tspan></text>
          </g>
          <g class="cls-36">
            <g class="cls-36">
              <text class="cls-37" transform="translate(456.1 37.2) rotate(90) scale(1.4 1)"><tspan x="0" y="0" xml:space="preserve"> 301</tspan></text>
            </g>
          </g>
        </g>
        <g class="cls-36">
          <g class="cls-36">
            <text class="cls-37" transform="translate(109 17.4) rotate(90) scale(1.4 1)"><tspan x="0" y="0">FOREIGN</tspan></text>
          </g>
          <g class="cls-36">
            <g class="cls-36">
              <text class="cls-37" transform="translate(109 62.4) rotate(90) scale(1.4 1)"><tspan x="0" y="0" xml:space="preserve"> 264</tspan></text>
            </g>
          </g>
        </g>
        <g class="cls-36">
          <g class="cls-36">
            <text class="cls-37" transform="translate(278.6 17.4) rotate(90) scale(1.4 1)"><tspan x="0" y="0">NO</tspan></text>
          </g>
          <g class="cls-36">
            <g class="cls-36">
              <text class="cls-37" transform="translate(278.6 32.2) rotate(90) scale(1.4 1)"><tspan x="0" y="0" xml:space="preserve"> 487</tspan></text>
            </g>
          </g>
        </g>
        <g class="cls-36">
          <g class="cls-36">
            <text class="cls-37" transform="translate(34 17.4) rotate(90) scale(1.4 1)"><tspan x="0" y="0">UNKNOWN</tspan></text>
          </g>
          <g class="cls-36">
            <g class="cls-36">
              <text class="cls-37" transform="translate(34 69.5) rotate(90) scale(1.4 1)"><tspan x="0" y="0" xml:space="preserve"> 42</tspan></text>
            </g>
          </g>
        </g>
        <g class="cls-36">
          <g class="cls-36">
            <text class="cls-37" transform="translate(453.3 487.2) rotate(90) scale(1.4 1)"><tspan x="0" y="0">NAN</tspan></text>
          </g>
          <g class="cls-36">
            <g class="cls-36">
              <text class="cls-37" transform="translate(453.3 508.1) rotate(90) scale(1.4 1)"><tspan x="0" y="0" xml:space="preserve"> 314</tspan></text>
            </g>
          </g>
        </g>
        <g class="cls-36">
          <g class="cls-36">
            <text class="cls-37" transform="translate(312 487.2) rotate(90) scale(1.4 1)"><tspan x="0" y="0">YES</tspan></text>
          </g>
          <g class="cls-36">
            <g class="cls-36">
              <text class="cls-37" transform="translate(312 507) rotate(90) scale(1.4 1)"><tspan x="0" y="0" xml:space="preserve"> 304</tspan></text>
            </g>
          </g>
        </g>
        <g class="cls-36">
          <g class="cls-36">
            <text class="cls-37" transform="translate(60.1 487.2) rotate(90) scale(1.4 1)"><tspan x="0" y="0">FOREIGN</tspan></text>
          </g>
          <g class="cls-36">
            <g class="cls-36">
              <text class="cls-37" transform="translate(60.1 532.3) rotate(90) scale(1.4 1)"><tspan x="0" y="0" xml:space="preserve"> 165</tspan></text>
            </g>
          </g>
        </g>
        <g class="cls-36">
          <g class="cls-36">
            <text class="cls-37" transform="translate(171.3 487.2) rotate(90) scale(1.4 1)"><tspan x="0" y="0">NO</tspan></text>
          </g>
          <g class="cls-36">
            <g class="cls-36">
              <text class="cls-37" transform="translate(171.3 502) rotate(90) scale(1.4 1)"><tspan x="0" y="0" xml:space="preserve"> 311</tspan></text>
            </g>
          </g>
        </g>
        <g class="cls-36">
          <g class="cls-36">
            <text class="cls-37" transform="translate(405.7 906.7) rotate(90) scale(1.4 1)"><tspan x="0" y="0">YES</tspan></text>
          </g>
          <g class="cls-36">
            <g class="cls-36">
              <text class="cls-37" transform="translate(405.7 926.5) rotate(90) scale(1.4 1)"><tspan x="0" y="0" xml:space="preserve"> 538</tspan></text>
            </g>
          </g>
        </g>
        <g class="cls-36">
          <g class="cls-36">
            <text class="cls-37" transform="translate(205.7 911.7) rotate(90) scale(1.4 1)"><tspan x="0" y="0">NO</tspan></text>
          </g>
          <g class="cls-36">
            <g class="cls-36">
              <text class="cls-37" transform="translate(205.7 926.5) rotate(90) scale(1.4 1)"><tspan x="0" y="0" xml:space="preserve"> 356</tspan></text>
            </g>
          </g>
        </g>
        <g class="cls-36">
          <g class="cls-36">
            <text class="cls-37" transform="translate(93.5 881.5) rotate(90) scale(1.4 1)"><tspan x="0" y="0">FOREIGN</tspan></text>
          </g>
          <g class="cls-36">
            <g class="cls-36">
              <text class="cls-37" transform="translate(93.5 926.5) rotate(90) scale(1.4 1)"><tspan x="0" y="0" xml:space="preserve"> 125</tspan></text>
            </g>
          </g>
        </g>
        <g class="cls-36">
          <g class="cls-36">
            <text class="cls-37" transform="translate(41 911.1) rotate(90) scale(1.4 1)"><tspan x="0" y="0">NAN</tspan></text>
          </g>
          <g class="cls-36">
            <g class="cls-36">
              <text class="cls-37" transform="translate(41 932) rotate(90) scale(1.4 1)"><tspan x="0" y="0" xml:space="preserve"> 75</tspan></text>
            </g>
          </g>
        </g>
        <g class="cls-36">
          <g class="cls-36">
            <text class="cls-37" transform="translate(436.5 1359.6) rotate(90) scale(1.4 1)"><tspan x="0" y="0">DIRECT</tspan></text>
          </g>
          <g class="cls-36">
            <g class="cls-36">
              <text class="cls-37" transform="translate(436.5 1396.4) rotate(90) scale(1.4 1)"><tspan x="0" y="0" xml:space="preserve"> 393</tspan></text>
            </g>
          </g>
        </g>
        <g class="cls-36">
          <g class="cls-36">
            <text class="cls-37" transform="translate(92.9 1381) rotate(90) scale(1.4 1)"><tspan x="0" y="0">GAP</tspan></text>
          </g>
          <g class="cls-36">
            <g class="cls-36">
              <text class="cls-37" transform="translate(92.9 1401.9) rotate(90) scale(1.4 1)"><tspan x="0" y="0" xml:space="preserve"> 56</tspan></text>
            </g>
          </g>
        </g>
        <g class="cls-36">
          <g class="cls-36">
            <text class="cls-37" transform="translate(48 1377.1) rotate(90) scale(1.4 1)"><tspan x="0" y="0">JOB</tspan></text>
          </g>
          <g class="cls-36">
            <g class="cls-36">
              <text class="cls-37" transform="translate(48 1396.4) rotate(90) scale(1.4 1)"><tspan x="0" y="0" xml:space="preserve"> 108</tspan></text>
            </g>
          </g>
        </g>
        <g class="cls-36">
          <g class="cls-36">
            <text class="cls-37" transform="translate(228.9 1341.4) rotate(90) scale(1.4 1)"><tspan x="0" y="0">RESEARCH</tspan></text>
          </g>
          <g class="cls-36">
            <g class="cls-36">
              <text class="cls-37" transform="translate(228.9 1396.4) rotate(90) scale(1.4 1)"><tspan x="0" y="0" xml:space="preserve"> 537</tspan></text>
            </g>
          </g>
        </g>
      </g>
    </g>
    <g id="Layer_3" data-name="Layer 3">
      <g>
        <rect class="cls-47" x="394.6" y="3.8" width="127.9" height="20" rx="3.1" ry="3.1"/>
        <rect class="cls-47" x="55.4" y="3.8" width="112.2" height="20" rx="3.1" ry="3.1"/>
        <rect class="cls-47" x="177.6" y="3.8" width="207" height="20" rx="3.1" ry="3.1"/>
        <rect class="cls-47" x="27.5" y="3.8" width="17.9" height="20" rx="3.1" ry="3.1"/>
        <rect class="cls-47" x="249.8" y="473.7" width="129.2" height="20" rx="3.1" ry="3.1"/>
        <rect class="cls-47" x="27.5" y="473.7" width="70.1" height="20" rx="3.1" ry="3.1"/>
        <rect class="cls-47" x="107.6" y="473.7" width="132.2" height="20" rx="3.1" ry="3.1"/>
        <rect class="cls-47" x="293.8" y="943.5" width="228.7" height="20" rx="3.1" ry="3.1"/>
        <rect class="cls-47" x="132.5" y="943.5" width="151.3" height="20" rx="3.1" ry="3.1"/>
        <path class="cls-47" d="M123.5,946.6v13.8c0,1.7-1.5,3.1-3.3,3.1h-49c-1.8,0-3.3-1.4-3.3-3.1v-13.8c0-1.7,1.5-3.1,3.3-3.1h49c1.8,0,3.3,1.4,3.3,3.1Z"/>
        <rect class="cls-47" x="355.5" y="1413.4" width="167" height="20" rx="3.1" ry="3.1"/>
        <rect class="cls-47" x="83.4" y="1413.4" width="23.8" height="20" rx="3.1" ry="3.1"/>
        <rect class="cls-47" x="27.5" y="1413.4" width="45.9" height="20" rx="3.1" ry="3.1"/>
        <rect class="cls-47" x="117.2" y="1413.4" width="228.2" height="20" rx="3.1" ry="3.1"/>
      </g>
    </g>
    <g id="Layer_4" data-name="Layer 4" class="cls-51">
      <g class="cls-36">
        <g class="cls-36">
          <text class="cls-34" transform="translate(432.6 17)"><tspan x="0" y="0">Top 20 U.S.</tspan></text>
        </g>
      </g>
      <g class="cls-36">
        <g class="cls-36">
          <text class="cls-34" transform="translate(245.3 17)"><tspan x="0" y="0">Non Top 20 U.S.</tspan></text>
        </g>
      </g>
      <g class="cls-36">
        <g class="cls-36">
          <text class="cls-34" transform="translate(80.3 17)"><tspan x="0" y="0">Outside U.S.</tspan></text>
        </g>
      </g>
      <g class="cls-36">
        <g class="cls-36">
          <text class="cls-34" transform="translate(134.4 486.9)"><tspan x="0" y="0">Non Top 20 U.S.</tspan></text>
        </g>
      </g>
      <g class="cls-36">
        <g class="cls-36">
          <text class="cls-34" transform="translate(288.2 486.9)"><tspan x="0" y="0">Top 20 U.S.</tspan></text>
        </g>
      </g>
      <g class="cls-36">
        <g class="cls-36">
          <text class="cls-34" transform="translate(35.4 486.9)"><tspan x="0" y="0">Outside U.S.</tspan></text>
        </g>
      </g>
      <g class="cls-36">
        <g class="cls-36">
          <text class="cls-34" transform="translate(170.1 956.8)"><tspan x="0" y="0">Non Top 20 U.S.</tspan></text>
        </g>
      </g>
      <g class="cls-36">
        <g class="cls-36">
          <text class="cls-34" transform="translate(389.1 956.8)"><tspan x="0" y="0">Top 20 U.S.</tspan></text>
        </g>
      </g>
      <g class="cls-36">
        <g class="cls-36">
          <text class="cls-34" transform="translate(205.6 1426.8)"><tspan x="0" y="0">Research</tspan></text>
        </g>
      </g>
      <g class="cls-36">
        <g class="cls-36">
          <text class="cls-34" transform="translate(394.8 1426.8)"><tspan x="0" y="0">Hired Immediately</tspan></text>
        </g>
      </g>
      <g class="cls-36">
        <g class="cls-36">
          <text class="cls-34" transform="translate(42.2 1426.8)"><tspan x="0" y="0">Job</tspan></text>
        </g>
      </g>
      <g class="cls-36">
        <g class="cls-36">
          <text class="cls-34" transform="translate(85.5 1426.8)"><tspan x="0" y="0">Gap</tspan></text>
        </g>
      </g>
      <g class="cls-36">
        <g class="cls-36">
          <text class="cls-34" transform="translate(68.6 956.9)"><tspan x="0" y="0">Outside U.S.</tspan></text>
        </g>
      </g>
      <g>
        <g class="cls-36">
          <g class="cls-36">
            <text class="cls-29" transform="translate(29.2 39.9)"><tspan x="0" y="0">Unknown</tspan></text>
          </g>
        </g>
        <g class="cls-36">
          <g class="cls-36">
            <text class="cls-34" transform="translate(29.2 39.9)"><tspan x="0" y="0">Unknown</tspan></text>
          </g>
        </g>
      </g>
      <line class="cls-48" x1="36.4" y1="29.1" x2="36.4" y2="24.8"/>
      <g class="cls-35">
        <text class="cls-1" transform="translate(17.6 514.3) rotate(-90)"><tspan x="0" y="0">Masters</tspan></text>
      </g>
      <g class="cls-35">
        <text class="cls-1" transform="translate(17.8 991.6) rotate(-90)"><tspan x="0" y="0">Doctorate</tspan></text>
      </g>
      <g class="cls-35">
        <text class="cls-1" transform="translate(17.8 1433.2) rotate(-90)"><tspan x="0" y="0">Post-graduate</tspan></text>
      </g>
      <g class="cls-35">
        <text class="cls-1" transform="translate(17.6 111.9) rotate(-90)"><tspan x="0" y="0">Undergraduate</tspan></text>
      </g>
    </g>
    <g id="Layer_5" data-name="Layer 5">
      <g class="cls-36">
        <g class="cls-36">
          <path class="cls-50" d="M437.1,9.3v8.3h-1.2v-8.3h-3.2v-1.1h7.7v1.1h-3.3Z"/>
          <path class="cls-50" d="M446.1,14.3c0,2.2-1.2,3.6-3.2,3.6s-3.2-1.3-3.2-3.6,1.2-3.6,3.2-3.6,3.2,1.3,3.2,3.6ZM441,14.3c0,1.6.8,2.6,2,2.6s2-.9,2-2.6-.8-2.6-2-2.6-2,.9-2,2.6Z"/>
          <path class="cls-50" d="M453.7,14.2c0,2.1-1.1,3.6-2.8,3.6s-1.7-.4-2-1.1h0v3.4h-1.2v-9.1h1.2v.9h0c.4-.7,1.2-1.2,2-1.2,1.7,0,2.8,1.3,2.8,3.6h0ZM448.8,14.2c0,1.6.7,2.6,1.9,2.6s1.9-1.1,1.9-2.6-.8-2.5-1.9-2.5-1.9.9-1.9,2.5Z"/>
          <path class="cls-50" d="M463.9,11c0,1.6-1.1,2.2-2.4,3.2-1.7,1.1-2.1,1.6-2.1,2.4h4.8v1.1h-6.1v-.3c0-1.7.4-2.6,2.6-4,1.3-.8,2-1.3,2-2.4s-.7-1.5-1.6-1.5-1.7.7-1.7,1.7h-1.2c0-1.7,1.2-2.8,3-2.8s2.8.9,2.8,2.5h-.1Z"/>
          <path class="cls-50" d="M471.7,13.1c0,3-1.2,4.6-3.2,4.6s-3.2-1.6-3.2-4.6,1.2-4.6,3.2-4.6,3.2,1.6,3.2,4.6ZM466.5,13.1c0,2.4.7,3.6,2,3.6s2-1.3,2-3.6-.7-3.6-2-3.6-2,1.2-2,3.6Z"/>
          <path class="cls-50" d="M483.4,14c0,2.4-1.2,3.7-3.4,3.7s-3.4-1.3-3.4-3.7v-5.8h1.2v5.8c0,1.7.8,2.6,2.2,2.6s2.2-.9,2.2-2.6v-5.8h1.2v5.8Z"/>
          <path class="cls-50" d="M485.1,17.6v-1.6h1.5v1.6h-1.5Z"/>
          <path class="cls-50" d="M494.5,11.1h-1.2c0-1.3-.8-2-2.1-2s-1.9.5-1.9,1.5.7,1.3,2.2,1.7c1.7.4,3.2.9,3.2,2.8s-1.3,2.8-3.3,2.8-3.6-1.2-3.6-3.3h1.3c0,1.6.8,2.2,2.2,2.2s2.1-.7,2.1-1.7-.8-1.3-2.2-1.7c-1.9-.4-3.2-.9-3.2-2.8s1.2-2.6,3.2-2.6,3.3,1.1,3.3,3h-.1Z"/>
          <path class="cls-50" d="M496.3,17.6v-1.6h1.5v1.6h-1.5Z"/>
        </g>
      </g>
      <g class="cls-36">
        <g class="cls-36">
          <path class="cls-50" d="M237.6,17.6l-2.2-4.1c-.8-1.5-1.6-2.8-2.2-4.2h0v8.2h-1.2v-9.4h1.7l2.2,4.1c.8,1.5,1.6,2.8,2.2,4.2h0v-8.2h1.2v9.4h-1.9.1Z"/>
          <path class="cls-50" d="M247.7,14.3c0,2.2-1.2,3.6-3.2,3.6s-3.2-1.3-3.2-3.6,1.2-3.6,3.2-3.6,3.2,1.3,3.2,3.6ZM242.5,14.3c0,1.6.8,2.6,2,2.6s2-.9,2-2.6-.8-2.6-2-2.6-2,.9-2,2.6h0Z"/>
          <path class="cls-50" d="M254.8,13.5v4.1h-1.2v-4c0-1.5-.5-1.9-1.6-1.9s-1.7.7-1.7,2.1v3.8h-1.2v-6.7h1.1v.9h0c.4-.7,1.2-1.1,2-1.1,1.6,0,2.4.9,2.4,2.8h.3Z"/>
          <path class="cls-50" d="M263.4,9.3v8.3h-1.2v-8.3h-3.2v-1.1h7.7v1.1h-3.3Z"/>
          <path class="cls-50" d="M272.4,14.3c0,2.2-1.2,3.6-3.2,3.6s-3.2-1.3-3.2-3.6,1.2-3.6,3.2-3.6,3.2,1.3,3.2,3.6ZM267.3,14.3c0,1.6.8,2.6,2,2.6s2-.9,2-2.6-.8-2.6-2-2.6-2,.9-2,2.6Z"/>
          <path class="cls-50" d="M280,14.2c0,2.1-1.1,3.6-2.8,3.6s-1.7-.4-2-1.1h0v3.4h-1.2v-9.1h1.2v.9h0c.4-.7,1.2-1.2,2-1.2,1.7,0,2.8,1.3,2.8,3.6h0ZM275.1,14.2c0,1.6.7,2.6,1.9,2.6s1.9-1.1,1.9-2.6-.8-2.5-1.9-2.5-1.9.9-1.9,2.5Z"/>
          <path class="cls-50" d="M290.1,11c0,1.6-1.1,2.2-2.4,3.2-1.7,1.1-2.1,1.6-2.1,2.4h4.8v1.1h-6.1v-.3c0-1.7.4-2.6,2.6-4,1.3-.8,2-1.3,2-2.4s-.7-1.5-1.6-1.5-1.7.7-1.7,1.7h-1.2c0-1.7,1.2-2.8,3-2.8s2.8.9,2.8,2.5h-.1Z"/>
          <path class="cls-50" d="M297.9,13.1c0,3-1.2,4.6-3.2,4.6s-3.2-1.6-3.2-4.6,1.2-4.6,3.2-4.6,3.2,1.6,3.2,4.6ZM292.8,13.1c0,2.4.7,3.6,2,3.6s2-1.3,2-3.6-.7-3.6-2-3.6-2,1.2-2,3.6Z"/>
          <path class="cls-50" d="M309.6,14c0,2.4-1.2,3.7-3.4,3.7s-3.4-1.3-3.4-3.7v-5.8h1.2v5.8c0,1.7.8,2.6,2.2,2.6s2.2-.9,2.2-2.6v-5.8h1.2v5.8Z"/>
          <path class="cls-50" d="M311.4,17.6v-1.6h1.5v1.6h-1.5Z"/>
          <path class="cls-50" d="M320.8,11.1h-1.2c0-1.3-.8-2-2.1-2s-1.9.5-1.9,1.5.7,1.3,2.2,1.7c1.7.4,3.2.9,3.2,2.8s-1.3,2.8-3.3,2.8-3.6-1.2-3.6-3.3h1.3c0,1.6.8,2.2,2.2,2.2s2.1-.7,2.1-1.7-.8-1.3-2.2-1.7c-1.9-.4-3.2-.9-3.2-2.8s1.2-2.6,3.2-2.6,3.3,1.1,3.3,3h-.1Z"/>
          <path class="cls-50" d="M322.5,17.6v-1.6h1.5v1.6h-1.5Z"/>
        </g>
      </g>
      <g class="cls-36">
        <g class="cls-36">
          <path class="cls-50" d="M84.4,12.8c0,3-1.6,4.9-4.2,4.9s-4.2-1.9-4.2-4.9,1.6-4.9,4.2-4.9,4.2,1.9,4.2,4.9ZM77.1,12.8c0,2.2,1.2,3.8,3,3.8s3-1.5,3-3.8-1.2-3.8-3-3.8-3,1.5-3,3.8Z"/>
          <path class="cls-50" d="M85.9,15v-4.1h1.2v4c0,1.5.5,1.9,1.6,1.9s1.7-.7,1.7-2.1v-3.8h1.2v6.7h-1.1v-.9h0c-.4.7-1.2,1.1-2,1.1-1.6,0-2.4-.9-2.4-2.8h-.3Z"/>
          <path class="cls-50" d="M96.5,16.7v.9h-.8c-1.3,0-1.9-.5-1.9-2v-4h-1.2v-.9h1.2v-1.6h1.2v1.6h1.3v.9h-1.3v3.8c0,.8.3,1.1.9,1.1s.4,0,.5,0h0Z"/>
          <path class="cls-50" d="M102.5,13h-1.2c0-.9-.5-1.3-1.5-1.3s-1.3.4-1.3.9.5.8,1.6,1.1c1.2.3,2.5.5,2.5,2.1s-1.1,2-2.6,2-2.8-.8-2.8-2.4h1.2c0,.9.7,1.5,1.6,1.5s1.5-.4,1.5-1.1-.5-.9-1.9-1.2c-1.1-.3-2.2-.5-2.2-2s1.1-2,2.5-2,2.6.8,2.6,2.2h0Z"/>
          <path class="cls-50" d="M104.4,9.5v-1.3h1.2v1.3h-1.2ZM104.4,17.6v-6.7h1.2v6.7h-1.2Z"/>
          <path class="cls-50" d="M112.1,17.6v-.9h0c-.4.7-1.2,1.2-2.1,1.2-1.7,0-2.8-1.3-2.8-3.6s1.1-3.6,2.8-3.6,1.7.4,2,1.1h0v-3.6h1.2v9.4h-1.2.1ZM108.4,14.2c0,1.6.8,2.6,1.9,2.6s1.9-.9,1.9-2.6-.7-2.5-1.9-2.5-1.9,1.1-1.9,2.5Z"/>
          <path class="cls-50" d="M119.6,15.6h1.2c-.3,1.2-1.2,2.2-2.9,2.2s-3.2-1.5-3.2-3.6,1.2-3.4,3.2-3.4,2.6.9,2.9,2.4c0,.4.1.8.1,1.5h-5c0,1.6.9,2.4,2,2.4s1.6-.5,1.7-1.3h0ZM115.9,13.6h3.8c0-1.3-.9-2-1.9-2s-1.9.7-2,2Z"/>
          <path class="cls-50" d="M132.7,14c0,2.4-1.2,3.7-3.4,3.7s-3.4-1.3-3.4-3.7v-5.8h1.2v5.8c0,1.7.8,2.6,2.2,2.6s2.2-.9,2.2-2.6v-5.8h1.2v5.8Z"/>
          <path class="cls-50" d="M134.4,17.6v-1.6h1.5v1.6h-1.5Z"/>
          <path class="cls-50" d="M143.8,11.1h-1.2c0-1.3-.8-2-2.1-2s-1.9.5-1.9,1.5.7,1.3,2.2,1.7c1.7.4,3.2.9,3.2,2.8s-1.3,2.8-3.3,2.8-3.6-1.2-3.6-3.3h1.2c0,1.6.8,2.2,2.2,2.2s2.1-.7,2.1-1.7-.8-1.3-2.2-1.7c-1.9-.4-3.2-.9-3.2-2.8s1.2-2.6,3.2-2.6,3.3,1.1,3.3,3h0Z"/>
          <path class="cls-50" d="M145.5,17.6v-1.6h1.5v1.6h-1.5Z"/>
        </g>
      </g>
      <g class="cls-36">
        <g class="cls-36">
          <path class="cls-50" d="M138.3,488.7l-2.2-4.1c-.8-1.5-1.6-2.8-2.2-4.2h0v8.2h-1.2v-9.4h1.7l2.2,4.1c.8,1.5,1.6,2.8,2.2,4.2h0v-8.2h1.2v9.4h-1.9.1Z"/>
          <path class="cls-50" d="M148.3,485.4c0,2.2-1.2,3.6-3.2,3.6s-3.2-1.3-3.2-3.6,1.2-3.6,3.2-3.6,3.2,1.3,3.2,3.6ZM143.1,485.4c0,1.6.8,2.6,2,2.6s2-.9,2-2.6-.8-2.6-2-2.6-2,.9-2,2.6Z"/>
          <path class="cls-50" d="M155.4,484.6v4.1h-1.2v-4c0-1.5-.5-1.9-1.6-1.9s-1.7.7-1.7,2.1v3.8h-1.2v-6.7h1.1v.9h0c.4-.7,1.2-1.1,2-1.1,1.6,0,2.4.9,2.4,2.8h.3Z"/>
          <path class="cls-50" d="M164,480.3v8.3h-1.2v-8.3h-3.2v-1.1h7.7v1.1h-3.3Z"/>
          <path class="cls-50" d="M173,485.4c0,2.2-1.2,3.6-3.2,3.6s-3.2-1.3-3.2-3.6,1.2-3.6,3.2-3.6,3.2,1.3,3.2,3.6ZM167.8,485.4c0,1.6.8,2.6,2,2.6s2-.9,2-2.6-.8-2.6-2-2.6-2,.9-2,2.6Z"/>
          <path class="cls-50" d="M180.7,485.2c0,2.1-1.1,3.6-2.8,3.6s-1.7-.4-2-1.1h0v3.4h-1.2v-9.1h1.2v.9h0c.4-.7,1.2-1.2,2-1.2,1.7,0,2.8,1.3,2.8,3.6h0ZM175.6,485.2c0,1.6.7,2.6,1.9,2.6s1.9-1.1,1.9-2.6-.8-2.5-1.9-2.5-1.9.9-1.9,2.5Z"/>
          <path class="cls-50" d="M190.7,482c0,1.6-1.1,2.2-2.4,3.2-1.7,1.1-2.1,1.6-2.1,2.4h4.8v1.1h-6.1v-.3c0-1.7.4-2.6,2.6-4,1.3-.8,2-1.3,2-2.4s-.7-1.5-1.6-1.5-1.7.7-1.7,1.7h-1.2c0-1.7,1.2-2.8,3-2.8s2.8.9,2.8,2.5h-.1Z"/>
          <path class="cls-50" d="M198.5,484.2c0,3-1.2,4.6-3.2,4.6s-3.2-1.6-3.2-4.6,1.2-4.6,3.2-4.6,3.2,1.6,3.2,4.6ZM193.4,484.2c0,2.4.7,3.6,2,3.6s2-1.3,2-3.6-.7-3.6-2-3.6-2,1.2-2,3.6Z"/>
          <path class="cls-50" d="M210.3,485.1c0,2.4-1.2,3.7-3.4,3.7s-3.4-1.3-3.4-3.7v-5.8h1.2v5.8c0,1.7.8,2.6,2.2,2.6s2.2-.9,2.2-2.6v-5.8h1.2v5.8h0Z"/>
          <path class="cls-50" d="M212.1,488.7v-1.6h1.5v1.6h-1.5Z"/>
          <path class="cls-50" d="M221.5,482.2h-1.2c0-1.3-.8-2-2.1-2s-1.9.5-1.9,1.5.7,1.3,2.2,1.7c1.7.4,3.2.9,3.2,2.8s-1.3,2.8-3.3,2.8-3.6-1.2-3.6-3.3h1.2c0,1.6.8,2.2,2.2,2.2s2.1-.7,2.1-1.7-.8-1.3-2.2-1.7c-1.9-.4-3.2-.9-3.2-2.8s1.2-2.6,3.2-2.6,3.3,1.1,3.3,3h0Z"/>
          <path class="cls-50" d="M223.1,488.7v-1.6h1.5v1.6h-1.5Z"/>
        </g>
      </g>
      <g class="cls-36">
        <g class="cls-36">
          <path class="cls-50" d="M285.2,480.3v8.3h-1.2v-8.3h-3.2v-1.1h7.7v1.1h-3.3Z"/>
          <path class="cls-50" d="M294,485.4c0,2.2-1.2,3.6-3.2,3.6s-3.2-1.3-3.2-3.6,1.2-3.6,3.2-3.6,3.2,1.3,3.2,3.6ZM288.9,485.4c0,1.6.8,2.6,2,2.6s2-.9,2-2.6-.8-2.6-2-2.6-2,.9-2,2.6Z"/>
          <path class="cls-50" d="M301.7,485.2c0,2.1-1.1,3.6-2.8,3.6s-1.7-.4-2-1.1h0v3.4h-1.2v-9.1h1.2v.9h0c.4-.7,1.2-1.2,2-1.2,1.7,0,2.8,1.3,2.8,3.6h0ZM296.8,485.2c0,1.6.7,2.6,1.9,2.6s1.9-1.1,1.9-2.6-.8-2.5-1.9-2.5-1.9.9-1.9,2.5Z"/>
          <path class="cls-50" d="M311.9,482c0,1.6-1.1,2.2-2.4,3.2-1.7,1.1-2.1,1.6-2.1,2.4h4.8v1.1h-6.1v-.3c0-1.7.4-2.6,2.6-4,1.3-.8,2-1.3,2-2.4s-.7-1.5-1.6-1.5-1.7.7-1.7,1.7h-1.2c0-1.7,1.2-2.8,3-2.8s2.8.9,2.8,2.5h-.1Z"/>
          <path class="cls-50" d="M319.7,484.2c0,3-1.2,4.6-3.2,4.6s-3.2-1.6-3.2-4.6,1.2-4.6,3.2-4.6,3.2,1.6,3.2,4.6ZM314.5,484.2c0,2.4.7,3.6,2,3.6s2-1.3,2-3.6-.7-3.6-2-3.6-2,1.2-2,3.6Z"/>
          <path class="cls-50" d="M331.3,485.1c0,2.4-1.2,3.7-3.4,3.7s-3.4-1.3-3.4-3.7v-5.8h1.2v5.8c0,1.7.8,2.6,2.2,2.6s2.2-.9,2.2-2.6v-5.8h1.2v5.8Z"/>
          <path class="cls-50" d="M333.2,488.7v-1.6h1.5v1.6h-1.5Z"/>
          <path class="cls-50" d="M342.6,482.2h-1.2c0-1.3-.8-2-2.1-2s-1.9.5-1.9,1.5.7,1.3,2.2,1.7c1.7.4,3.2.9,3.2,2.8s-1.3,2.8-3.3,2.8-3.6-1.2-3.6-3.3h1.2c0,1.6.8,2.2,2.2,2.2s2.1-.7,2.1-1.7-.8-1.3-2.2-1.7c-1.9-.4-3.2-.9-3.2-2.8s1.2-2.6,3.2-2.6,3.3,1.1,3.3,3h0Z"/>
          <path class="cls-50" d="M344.2,488.7v-1.6h1.5v1.6h-1.5Z"/>
        </g>
      </g>
      <g class="cls-36">
        <g class="cls-36">
          <g>
            <path class="cls-50" d="M31.3,489.7c-3.1,0-5-2.2-5-5.6s1.9-5.6,5-5.6,5,2.2,5,5.6-1.9,5.6-5,5.6ZM31.3,480.9c-1.4,0-2.3,1.2-2.3,3.1s.9,3.1,2.3,3.1,2.3-1.2,2.3-3.1-.9-3.1-2.3-3.1Z"/>
            <path class="cls-47" d="M31.3,479.1c2.6,0,4.2,1.9,4.2,4.9s-1.6,4.9-4.2,4.9-4.2-1.9-4.2-4.9,1.6-4.9,4.2-4.9M31.3,487.9c1.9,0,3-1.5,3-3.8s-1.2-3.8-3-3.8-3,1.5-3,3.8,1.2,3.8,3,3.8M31.3,477.6c-3.5,0-5.7,2.5-5.7,6.4s2.3,6.4,5.7,6.4,5.7-2.5,5.7-6.4-2.3-6.4-5.7-6.4h0ZM31.3,486.4c-1.5,0-1.5-1.9-1.5-2.3,0-.9.2-2.3,1.5-2.3s1.5,1.5,1.5,2.3-.2,2.3-1.5,2.3h0Z"/>
          </g>
          <g>
            <path class="cls-50" d="M39.8,489.5c-1.1,0-2.8-.4-3.1-2.8-.2-.1-.3-.4-.3-.6v-4.1c0-.4.3-.8.8-.8h1.2c.4,0,.8.3.8.8v4c0,1.1.3,1.1.8,1.1s1,0,1-1.4v-3.8c0-.4.3-.8.8-.8h1.2c.4,0,.8.3.8.8v6.7c0,.4-.3.8-.8.8h-1.1c-.2,0-.4,0-.5-.2-.4.2-.9.4-1.5.4Z"/>
            <path class="cls-47" d="M42.8,481.9v6.7h-1.1v-.9c-.4.7-1.2,1.1-2,1.1-1.6,0-2.4-.9-2.4-2.8h-.3c0,.1,0-4,0-4h1.2v4c0,1.5.5,1.9,1.6,1.9s1.7-.7,1.7-2.1v-3.8h1.2M42.8,480.4h-1.2c-.8,0-1.5.7-1.5,1.5v3.8c0,.4,0,.5,0,.6,0,0,0,0-.1,0s0,0,0,0c0,0,0-.2,0-.4v-4c0-.8-.7-1.5-1.5-1.5h-1.2c-.8,0-1.5.7-1.5,1.5v4.1c0,.4.1.7.4,1,.4,2,1.7,3.2,3.8,3.2s1,0,1.4-.3c.2,0,.4.1.6.1h1.1c.8,0,1.5-.7,1.5-1.5v-6.7c0-.8-.7-1.5-1.5-1.5h0Z"/>
          </g>
          <g>
            <path class="cls-50" d="M46.8,489.5c-1.8,0-2.6-.9-2.6-2.7v-3.2h-.4c-.4,0-.8-.3-.8-.8v-.9c0-.4.3-.8.8-.8h.4v-.8c0-.4.3-.8.8-.8h1.2c.4,0,.8.3.8.8v.8h.6c.4,0,.8.3.8.8v.9c0,.4-.3.8-.8.8h-.6v3.1c0,.2,0,.3,0,.3,0,0,.7,0,.7,0,.4,0,.8.3.8.8v1.1c0,.4-.3.8-.8.8h-.8Z"/>
            <path class="cls-47" d="M46.1,480.3v1.6h1.3v.9h-1.3v3.8c0,.8.3,1.1.9,1.1s.4,0,.5,0h0v1.1h-.8c-1.3,0-1.9-.5-1.9-2v-4h-1.2v-.9h1.2v-1.6h1.2M46.1,478.8h-1.2c-.8,0-1.5.7-1.5,1.5h0c-.7.3-1.2.9-1.2,1.6v.9c0,.7.5,1.3,1.2,1.5v2.5c0,3,2.1,3.5,3.4,3.5h.8c.8,0,1.5-.7,1.5-1.5v-.9h0c0-.9-.6-1.6-1.5-1.6v-1.9c.7,0,1.3-.7,1.3-1.5v-.9c0-.8-.6-1.4-1.3-1.5h0c0-.9-.7-1.6-1.5-1.6h0Z"/>
          </g>
          <g>
            <path class="cls-50" d="M51.3,489.7c-2.1,0-3.5-1.2-3.5-3.1s.3-.8.8-.8h.4c-.6-.4-1-1-1-2s.3-2.7,3.3-2.7,3.4,1.2,3.4,3h0c0,.5-.3.9-.8.9h0c.5.4.9,1,.9,2,0,2.7-2.6,2.7-3.4,2.7ZM50.4,486.4s0,0,0,.1c0,.5.3.7.8.7s.7,0,.7-.3c0,0-.2-.2-1.2-.5,0,0-.2,0-.3,0ZM50.6,483.8s.2.1,1,.3c0,0,.2,0,.3,0,0-.4,0-.6-.7-.6s-.6,0-.6.2c0,0,0,0,0,0Z"/>
            <path class="cls-47" d="M51.1,481.8c1.5,0,2.6.8,2.6,2.2h0c0,.1-1.2.1-1.2.1,0-.9-.5-1.3-1.5-1.3s-1.3.4-1.3.9.5.8,1.6,1.1c1.2.3,2.5.5,2.5,2.1s-1.1,2-2.6,2-2.8-.8-2.8-2.4h1.2c0,.9.7,1.5,1.6,1.5s1.5-.4,1.5-1.1-.5-.9-1.9-1.2c-1.1-.3-2.2-.5-2.2-2s1.1-2,2.5-2M51.1,480.3c-3,0-4,1.8-4,3.5s.2,1.2.4,1.6c-.3.3-.5.7-.5,1.1,0,2.3,1.7,3.9,4.3,3.9s4.1-2.2,4.1-3.5-.2-1.4-.5-1.8c.2-.3.3-.6.3-1h0c0-2.3-1.7-3.9-4.1-3.9h0Z"/>
          </g>
          <g>
            <path class="cls-50" d="M55.5,489.5c-.4,0-.8-.3-.8-.8v-6.7c0-.3.2-.5.4-.7-.2-.1-.4-.4-.4-.7v-1.3c0-.4.3-.8.8-.8h1.2c.4,0,.8.3.8.8v1.3c0,.3-.2.5-.4.7.2.1.4.4.4.7v6.7c0,.4-.3.8-.8.8h-1.2Z"/>
            <path class="cls-47" d="M56.7,479.4v1.3h-1.2v-1.3h1.2M56.7,482v6.7h-1.2v-6.7h1.2M56.7,477.9h-1.2c-.8,0-1.5.7-1.5,1.5v1.3c0,.2,0,.5.2.7,0,.2-.2.4-.2.7v6.7c0,.8.7,1.5,1.5,1.5h1.2c.8,0,1.5-.7,1.5-1.5v-6.7c0-.2,0-.5-.2-.7,0-.2.2-.4.2-.7v-1.3c0-.8-.7-1.5-1.5-1.5h0Z"/>
          </g>
          <g>
            <path class="cls-50" d="M61.1,489.8c-2.2,0-3.5-1.7-3.5-4.3s1.4-4.3,3.5-4.3.9,0,1.2.1v-1.9c0-.4.3-.8.8-.8h1.2c.4,0,.8.3.8.8v9.4c0,.4-.3.8-.8.8h-1.2c-.2,0-.3,0-.4-.1-.5.3-1,.4-1.5.4ZM61.3,483.6c-1,0-1.1,1.3-1.1,1.8,0,1.1.5,1.9,1.1,1.9s1.1-1,1.1-1.9c0-1.8-.7-1.8-1.1-1.8Z"/>
            <path class="cls-47" d="M64.2,479.4v9.4h-1.1v-.9c-.4.7-1.2,1.2-2.1,1.2-1.7,0-2.8-1.3-2.8-3.6s1.1-3.6,2.8-3.6,1.7.4,2,1.1v-3.6h1.2M61.3,488c1.1,0,1.9-.9,1.9-2.6s-.7-2.5-1.9-2.5-1.9,1.1-1.9,2.5.8,2.6,1.9,2.6M63.2,488.8h0s-.1,0-.1,0h.1M64.2,477.9h-1.2c-.8,0-1.5.7-1.5,1.5v1c-.2,0-.3,0-.5,0-2.6,0-4.3,2-4.3,5.1s1.7,5.1,4.3,5.1,1.1-.1,1.6-.3c.1,0,.3,0,.4,0h.1s0,0,0,0h1.1c.8,0,1.5-.7,1.5-1.5v-9.4c0-.8-.7-1.5-1.5-1.5h0ZM61.3,486.5h0c0,0-.3-.4-.3-1.1s.1-1,.4-1,.2,0,.2,0h0s.2.2.2,1-.2,1.1-.4,1.1h0Z"/>
          </g>
          <g>
            <path class="cls-50" d="M69.1,489.8c-2.2,0-3.9-1.9-3.9-4.3s1.5-4.2,3.9-4.2,3.4,1.7,3.6,3c0,0,0,0,0,.1,0,.1,0,.3,0,.4,0,.3,0,.6,0,1s0,.4-.2.5c0,.2.1.4,0,.5-.3,1.4-1.4,2.8-3.6,2.8ZM68,486.6c.2.6.6.9,1.1.9s.9-.3,1-.6h0c0-.1,0-.2,0-.2h-2.1ZM70,484.1c-.2-.3-.6-.5-.9-.5s-.7.1-.9.5h1.9Z"/>
            <path class="cls-47" d="M69.1,482c2,0,2.6.9,2.9,2.4,0,.4.1.8.1,1.5h-5c0,1.6.9,2.4,2,2.4s1.6-.5,1.7-1.3h0c0-.1,1.2-.1,1.2-.1-.3,1.2-1.2,2.2-2.9,2.2s-3.2-1.5-3.2-3.6,1.2-3.4,3.2-3.4M67.2,484.8h3.8c0-1.3-.9-2-1.9-2s-1.9.7-2,2M69.1,480.5c-2.8,0-4.7,2-4.7,4.9s2.1,5.1,4.7,5.1,3.9-1.3,4.4-3.4c0-.2,0-.4,0-.6,0-.2.2-.4.2-.7,0-.5,0-.9,0-1.1,0-.1,0-.3,0-.3s0-.2,0-.3c-.4-2.4-1.9-3.6-4.4-3.6h0Z"/>
          </g>
          <g>
            <path class="cls-50" d="M80.4,489.7c-2.7,0-4.2-1.6-4.2-4.5v-5.8c0-.4.3-.8.8-.8h1.2c.4,0,.8.3.8.8v5.8c0,1.7.8,1.9,1.5,1.9s1.5-.2,1.5-1.9v-5.8c0-.4.3-.8.8-.8h1.2c.4,0,.8.3.8.8v5.8c0,2.8-1.5,4.5-4.2,4.5Z"/>
            <path class="cls-47" d="M83.8,479.4v5.8c0,2.4-1.2,3.7-3.4,3.7s-3.4-1.3-3.4-3.7v-5.8h1.2v5.8c0,1.7.8,2.6,2.2,2.6s2.2-.9,2.2-2.6v-5.8h1.2M83.8,477.9h-1.2c-.8,0-1.5.7-1.5,1.5v5.8c0,1.1-.4,1.1-.7,1.1s-.7,0-.7-1.1v-5.8c0-.8-.7-1.5-1.5-1.5h-1.2c-.8,0-1.5.7-1.5,1.5v5.8c0,3.2,1.9,5.2,4.9,5.2s4.9-2,4.9-5.2v-5.8c0-.8-.7-1.5-1.5-1.5h0Z"/>
          </g>
          <g>
            <rect class="cls-50" x="84.9" y="486.4" width="3" height="3.1" rx=".7" ry=".7"/>
            <path class="cls-47" d="M87.1,487.2v1.6h-1.5v-1.6h1.5M87.1,485.7h-1.5c-.8,0-1.5.7-1.5,1.5v1.6c0,.8.7,1.5,1.5,1.5h1.5c.8,0,1.5-.7,1.5-1.5v-1.6c0-.8-.7-1.5-1.5-1.5h0Z"/>
          </g>
          <g>
            <path class="cls-50" d="M92,489.8c-2.5,0-4.3-1.7-4.3-4.1s.3-.8.8-.8h1.2c.4,0,.8.3.8.8,0,1.1.4,1.5,1.5,1.5s1.4-.7,1.4-1,0-.6-1.7-1c-1.8-.4-3.7-1-3.7-3.5s.5-3.4,3.9-3.4,4.1,1.5,4.1,3.8h0c0,.5-.3.9-.8.9h-1.2c-.4,0-.8-.3-.8-.8,0-.6-.2-1.2-1.4-1.2s-1.1.4-1.1.7,0,.6,1.7,1c1.3.3,3.7.9,3.7,3.5s-1.6,3.5-4.1,3.5Z"/>
            <path class="cls-47" d="M91.8,479.1c2,0,3.3,1.1,3.3,3h0c0,.1-1.2.1-1.2.1,0-1.3-.8-2-2.1-2s-1.9.5-1.9,1.5.7,1.3,2.2,1.7c1.7.4,3.2.9,3.2,2.8s-1.3,2.8-3.3,2.8-3.6-1.2-3.6-3.3h1.2c0,1.6.8,2.2,2.2,2.2s2.1-.7,2.1-1.7-.8-1.3-2.2-1.7c-1.9-.4-3.2-.9-3.2-2.8s1.2-2.6,3.2-2.6M91.8,477.6c-2.9,0-4.7,1.5-4.7,4.1s.3,2,.9,2.6c-.6.2-1,.8-1,1.4,0,2.8,2.1,4.8,5.1,4.8s4.8-1.7,4.8-4.3-.4-2.1-1-2.7c.4-.3.7-.7.7-1.3h0c0-2.9-1.9-4.7-4.8-4.7h0ZM91.8,481.8h0c.4,0,.5,0,.6.2-.3,0-.4-.1-.6-.2h0ZM91.9,486.5c-.6,0-.7,0-.7-.5,0,0,.2,0,.3,0,.3,0,.8.2,1.1.4,0,0,0,0,0,0,0,0-.2,0-.6,0h0Z"/>
          </g>
          <g>
            <rect class="cls-50" x="95.9" y="486.4" width="3" height="3.1" rx=".7" ry=".7"/>
            <path class="cls-47" d="M98.1,487.2v1.6h-1.5v-1.6h1.5M98.1,485.7h-1.5c-.8,0-1.5.7-1.5,1.5v1.6c0,.8.7,1.5,1.5,1.5h1.5c.8,0,1.5-.7,1.5-1.5v-1.6c0-.8-.7-1.5-1.5-1.5h0Z"/>
          </g>
        </g>
      </g>
      <g class="cls-36">
        <g class="cls-36">
          <path class="cls-50" d="M168.9,957.6l-2.2-4.1c-.8-1.5-1.6-2.8-2.2-4.2h0v8.2h-1.2v-9.4h1.7l2.2,4.1c.8,1.5,1.6,2.8,2.2,4.2h0v-8.2h1.2v9.4h-1.9.1Z"/>
          <path class="cls-50" d="M178.8,954.3c0,2.2-1.2,3.6-3.2,3.6s-3.2-1.3-3.2-3.6,1.2-3.6,3.2-3.6,3.2,1.3,3.2,3.6ZM173.7,954.3c0,1.6.8,2.6,2,2.6s2-.9,2-2.6-.8-2.6-2-2.6-2,.9-2,2.6Z"/>
          <path class="cls-50" d="M186,953.5v4.1h-1.2v-4c0-1.5-.5-1.9-1.6-1.9s-1.7.7-1.7,2.1v3.8h-1.2v-6.7h1.1v.9h0c.4-.7,1.2-1.1,2-1.1,1.6,0,2.4.9,2.4,2.8h.3Z"/>
          <path class="cls-50" d="M194.6,949.3v8.3h-1.2v-8.3h-3.2v-1.1h7.7v1.1h-3.3Z"/>
          <path class="cls-50" d="M203.6,954.3c0,2.2-1.2,3.6-3.2,3.6s-3.2-1.3-3.2-3.6,1.2-3.6,3.2-3.6,3.2,1.3,3.2,3.6ZM198.4,954.3c0,1.6.8,2.6,2,2.6s2-.9,2-2.6-.8-2.6-2-2.6-2,.9-2,2.6Z"/>
          <path class="cls-50" d="M211.3,954.2c0,2.1-1.1,3.6-2.8,3.6s-1.7-.4-2-1.1h0v3.4h-1.2v-9.1h1.2v.9h0c.4-.7,1.2-1.2,2-1.2,1.7,0,2.8,1.3,2.8,3.6h0ZM206.2,954.2c0,1.6.7,2.6,1.9,2.6s1.9-1.1,1.9-2.6-.8-2.5-1.9-2.5-1.9.9-1.9,2.5Z"/>
          <path class="cls-50" d="M221.3,951c0,1.6-1.1,2.2-2.4,3.2-1.7,1.1-2.1,1.6-2.1,2.4h4.8v1.1h-6.1v-.3c0-1.7.4-2.6,2.6-4,1.3-.8,2-1.3,2-2.4s-.7-1.5-1.6-1.5-1.7.7-1.7,1.7h-1.2c0-1.7,1.2-2.8,3-2.8s2.8.9,2.8,2.5h-.1Z"/>
          <path class="cls-50" d="M229.1,953.1c0,3-1.2,4.6-3.2,4.6s-3.2-1.6-3.2-4.6,1.2-4.6,3.2-4.6,3.2,1.6,3.2,4.6ZM223.9,953.1c0,2.4.7,3.6,2,3.6s2-1.3,2-3.6-.7-3.6-2-3.6-2,1.2-2,3.6Z"/>
          <path class="cls-50" d="M240.9,954c0,2.4-1.2,3.7-3.4,3.7s-3.4-1.3-3.4-3.7v-5.8h1.2v5.8c0,1.7.8,2.6,2.2,2.6s2.2-.9,2.2-2.6v-5.8h1.2v5.8h0Z"/>
          <path class="cls-50" d="M242.7,957.6v-1.6h1.5v1.6h-1.5Z"/>
          <path class="cls-50" d="M252.1,951.1h-1.2c0-1.3-.8-2-2.1-2s-1.9.5-1.9,1.5.7,1.3,2.2,1.7c1.7.4,3.2.9,3.2,2.8s-1.3,2.8-3.3,2.8-3.6-1.2-3.6-3.3h1.2c0,1.6.8,2.2,2.2,2.2s2.1-.7,2.1-1.7-.8-1.3-2.2-1.7c-1.9-.4-3.2-.9-3.2-2.8s1.2-2.6,3.2-2.6,3.3,1.1,3.3,3h0Z"/>
          <path class="cls-50" d="M253.7,957.6v-1.6h1.5v1.6h-1.5Z"/>
        </g>
      </g>
      <g class="cls-36">
        <g class="cls-36">
          <path class="cls-50" d="M381.3,949.3v8.3h-1.2v-8.3h-3.2v-1.1h7.7v1.1h-3.3Z"/>
          <path class="cls-50" d="M390.3,954.3c0,2.2-1.2,3.6-3.2,3.6s-3.2-1.3-3.2-3.6,1.2-3.6,3.2-3.6,3.2,1.3,3.2,3.6ZM385.1,954.3c0,1.6.8,2.6,2,2.6s2-.9,2-2.6-.8-2.6-2-2.6-2,.9-2,2.6Z"/>
          <path class="cls-50" d="M397.9,954.2c0,2.1-1.1,3.6-2.8,3.6s-1.7-.4-2-1.1h0v3.4h-1.2v-9.1h1.2v.9h0c.4-.7,1.2-1.2,2-1.2,1.7,0,2.8,1.3,2.8,3.6h0ZM392.9,954.2c0,1.6.7,2.6,1.9,2.6s1.9-1.1,1.9-2.6-.8-2.5-1.9-2.5-1.9.9-1.9,2.5Z"/>
          <path class="cls-50" d="M408,951c0,1.6-1.1,2.2-2.4,3.2-1.7,1.1-2.1,1.6-2.1,2.4h4.8v1.1h-6.1v-.3c0-1.7.4-2.6,2.6-4,1.3-.8,2-1.3,2-2.4s-.7-1.5-1.6-1.5-1.7.7-1.7,1.7h-1.2c0-1.7,1.2-2.8,3-2.8s2.8.9,2.8,2.5h-.1Z"/>
          <path class="cls-50" d="M415.8,953.1c0,3-1.2,4.6-3.2,4.6s-3.2-1.6-3.2-4.6,1.2-4.6,3.2-4.6,3.2,1.6,3.2,4.6ZM410.6,953.1c0,2.4.7,3.6,2,3.6s2-1.3,2-3.6-.7-3.6-2-3.6-2,1.2-2,3.6Z"/>
          <path class="cls-50" d="M427.6,954c0,2.4-1.2,3.7-3.4,3.7s-3.4-1.3-3.4-3.7v-5.8h1.2v5.8c0,1.7.8,2.6,2.2,2.6s2.2-.9,2.2-2.6v-5.8h1.2v5.8Z"/>
          <path class="cls-50" d="M429.3,957.6v-1.6h1.5v1.6h-1.5Z"/>
          <path class="cls-50" d="M438.7,951.1h-1.2c0-1.3-.8-2-2.1-2s-1.9.5-1.9,1.5.7,1.3,2.2,1.7c1.7.4,3.2.9,3.2,2.8s-1.3,2.8-3.3,2.8-3.6-1.2-3.6-3.3h1.2c0,1.6.8,2.2,2.2,2.2s2.1-.7,2.1-1.7-.8-1.3-2.2-1.7c-1.9-.4-3.2-.9-3.2-2.8s1.2-2.6,3.2-2.6,3.3,1.1,3.3,3h0Z"/>
          <path class="cls-50" d="M440.4,957.6v-1.6h1.5v1.6h-1.5Z"/>
        </g>
      </g>
      <g class="cls-36">
        <g class="cls-36">
          <path class="cls-50" d="M201.8,1418c2.2,0,3.3.9,3.3,2.5s-.7,2.1-1.9,2.4h0c.7.3.9.7,1.5,1.9l.9,2.6h-1.3l-.8-2.5c-.4-1.1-.8-1.5-1.9-1.5h-1.6v4h-1.2v-9.4h3-.1ZM200.1,1422.5h1.7c1.5,0,2.1-.8,2.1-1.7s-.8-1.6-2.1-1.6h-1.7v3.3Z"/>
          <path class="cls-50" d="M211.4,1425.4h1.2c-.3,1.2-1.2,2.2-2.9,2.2s-3.2-1.5-3.2-3.6,1.2-3.4,3.2-3.4,2.6.9,2.9,2.4c0,.4.1.8.1,1.5h-5c0,1.6.9,2.4,2,2.4s1.6-.5,1.7-1.3h0ZM207.6,1423.4h3.8c0-1.3-.9-2-1.9-2s-1.9.7-2,2Z"/>
          <path class="cls-50" d="M219,1422.9h-1.2c0-.9-.5-1.3-1.5-1.3s-1.3.4-1.3.9.5.8,1.6,1.1c1.2.3,2.5.5,2.5,2.1s-1.1,2-2.6,2-2.8-.8-2.8-2.4h1.2c0,.9.7,1.5,1.6,1.5s1.5-.4,1.5-1.1-.5-.9-1.9-1.2c-1.1-.3-2.2-.5-2.2-2s1.1-2,2.5-2,2.6.8,2.6,2.2h0Z"/>
          <path class="cls-50" d="M225.3,1425.4h1.2c-.3,1.2-1.2,2.2-2.9,2.2s-3.2-1.5-3.2-3.6,1.2-3.4,3.2-3.4,2.6.9,2.9,2.4c0,.4.1.8.1,1.5h-5c0,1.6.9,2.4,2,2.4s1.6-.5,1.7-1.3h0ZM221.6,1423.4h3.8c0-1.3-.9-2-1.9-2s-1.9.7-2,2Z"/>
          <path class="cls-50" d="M233.2,1423.2v2.5c0,.8,0,1.3.1,1.7h-1.1v-.9h0c-.4.7-1.2,1.1-2.4,1.1s-2.2-.8-2.2-2,.7-1.9,2.5-2.1c.7,0,1.5-.1,2-.3v-.3c0-1.1-.7-1.6-1.5-1.6s-1.5.5-1.6,1.3h-1.2c0-1.3.9-2.2,2.6-2.2s2.6.8,2.6,2.6h0ZM232.1,1424.2c-.5,0-1.2,0-1.7.3-1.2.1-1.6.5-1.6,1.2s.5,1.2,1.3,1.2,1.1-.1,1.3-.5c.4-.4.5-.8.5-1.6v-.4h.1Z"/>
          <path class="cls-50" d="M238.8,1420.8v1.1h-.5c-1.3,0-2,.8-2,2.2v3.4h-1.2v-6.7h1.1v1.1h0c.4-.8,1.1-1.1,2-1.1s.4,0,.5,0h.1Z"/>
          <path class="cls-50" d="M245.3,1423.2h-1.2c0-.9-.8-1.6-1.7-1.6s-1.9.9-1.9,2.6.7,2.6,1.9,2.6,1.6-.8,1.7-1.7h1.2c-.1,1.6-1.2,2.6-2.9,2.6s-3.2-1.3-3.2-3.6,1.2-3.6,3.2-3.6,2.8,1.1,2.9,2.5h0Z"/>
          <path class="cls-50" d="M247.9,1421.6c.4-.7,1.2-1.1,2-1.1,1.6,0,2.4.9,2.4,2.8v4.1h-1.2v-4c0-1.5-.5-1.9-1.6-1.9s-1.7.7-1.7,2.1v3.8h-1.2v-9.4h1.2v3.6h.1Z"/>
        </g>
      </g>
      <g class="cls-36">
        <g class="cls-36">
          <path class="cls-50" d="M397.8,1427.4v-4.4h-4.8v4.4h-1.2v-9.4h1.2v4h4.8v-4h1.2v9.4h-1.2Z"/>
          <path class="cls-50" d="M401.2,1419.3v-1.3h1.2v1.3h-1.2ZM401.2,1427.4v-6.7h1.2v6.7h-1.2Z"/>
          <path class="cls-50" d="M408.1,1420.8v1.1h-.4c-1.3,0-2,.8-2,2.2v3.4h-1.2v-6.7h1.1v1.1h0c.4-.8,1.1-1.1,2-1.1s.4,0,.5,0Z"/>
          <path class="cls-50" d="M413.5,1425.4h1.2c-.3,1.2-1.2,2.2-2.9,2.2s-3.2-1.5-3.2-3.6,1.2-3.4,3.2-3.4,2.6.9,2.9,2.4v1.5h-5c0,1.6.9,2.4,2,2.4s1.6-.5,1.7-1.3h.1ZM409.7,1423.4h3.8c0-1.3-.9-2-1.9-2s-1.9.7-2,2Z"/>
          <path class="cls-50" d="M420.8,1427.4v-.9h0c-.4.7-1.2,1.2-2.1,1.2-1.7,0-2.8-1.3-2.8-3.6s1.1-3.6,2.8-3.6,1.7.4,2,1.1h0v-3.6h1.2v9.4h-1.2.1ZM417.1,1424.1c0,1.6.8,2.6,1.9,2.6s1.9-.9,1.9-2.6-.7-2.5-1.9-2.5-1.9,1.1-1.9,2.5Z"/>
          <path class="cls-50" d="M427.3,1427.4v-9.4h1.2v9.4h-1.2Z"/>
          <path class="cls-50" d="M440.2,1423.3v4.1h-1.2v-4.1c0-1.3-.5-1.9-1.3-1.9s-1.6.8-1.6,2.1v3.8h-1.2v-4.2c0-1.1-.5-1.7-1.3-1.7s-1.6.8-1.6,2.1v3.7h-1.2v-6.7h1.1v.8h0c.5-.7,1.1-.9,1.9-.9s1.6.4,2,1.3c.4-.8,1.2-1.3,2.1-1.3,1.5,0,2.2.9,2.2,2.6v.3Z"/>
          <path class="cls-50" d="M451.6,1423.3v4.1h-1.2v-4.1c0-1.3-.5-1.9-1.3-1.9s-1.6.8-1.6,2.1v3.8h-1.2v-4.2c0-1.1-.5-1.7-1.3-1.7s-1.6.8-1.6,2.1v3.7h-1.2v-6.7h1.1v.8h0c.5-.7,1.1-.9,1.9-.9s1.6.4,2,1.3c.4-.8,1.2-1.3,2.1-1.3,1.5,0,2.2.9,2.2,2.6v.3Z"/>
          <path class="cls-50" d="M458.1,1425.4h1.2c-.3,1.2-1.2,2.2-2.9,2.2s-3.2-1.5-3.2-3.6,1.2-3.4,3.2-3.4,2.6.9,2.9,2.4c0,.4.1.8.1,1.5h-5c0,1.6.9,2.4,2,2.4s1.6-.5,1.7-1.3h0ZM454.4,1423.4h3.8c0-1.3-.9-2-1.9-2s-1.9.7-2,2Z"/>
          <path class="cls-50" d="M465.5,1427.4v-.9h0c-.4.7-1.2,1.2-2.1,1.2-1.7,0-2.8-1.3-2.8-3.6s1.1-3.6,2.8-3.6,1.7.4,2,1.1h0v-3.6h1.2v9.4h-1.2.1ZM461.8,1424.1c0,1.6.8,2.6,1.9,2.6s1.9-.9,1.9-2.6-.7-2.5-1.9-2.5-1.9,1.1-1.9,2.5Z"/>
          <path class="cls-50" d="M468.7,1419.3v-1.3h1.2v1.3h-1.2ZM468.7,1427.4v-6.7h1.2v6.7h-1.2Z"/>
          <path class="cls-50" d="M476.9,1423.2v2.5c0,.8,0,1.3.1,1.7h-1.1v-.9h0c-.4.7-1.2,1.1-2.4,1.1s-2.2-.8-2.2-2,.7-1.9,2.5-2.1c.5,0,1.5-.1,2-.3v-.3c0-1.1-.7-1.6-1.5-1.6s-1.5.5-1.6,1.3h-1.2c0-1.3.9-2.2,2.6-2.2s2.6.8,2.6,2.6h0ZM475.8,1424.2c-.5,0-1.2,0-1.7.3-1.2.1-1.6.5-1.6,1.2s.5,1.2,1.3,1.2,1.1-.1,1.3-.5c.4-.4.5-.8.5-1.6v-.4h.1Z"/>
          <path class="cls-50" d="M481.6,1426.5v.9h-.8c-1.3,0-1.9-.5-1.9-2v-4h-1.2v-.9h1.2v-1.6h1.2v1.6h1.3v.9h-1.3v3.8c0,.8.3,1.1.9,1.1s.4,0,.5,0h0Z"/>
          <path class="cls-50" d="M487.2,1425.4h1.2c-.3,1.2-1.2,2.2-2.9,2.2s-3.2-1.5-3.2-3.6,1.2-3.4,3.2-3.4,2.6.9,2.9,2.4v1.5h-5c0,1.6.9,2.4,2,2.4s1.6-.5,1.7-1.3h.1ZM483.5,1423.4h3.8c0-1.3-.9-2-1.9-2s-1.9.7-2,2Z"/>
          <path class="cls-50" d="M490.1,1427.4v-9.4h1.2v9.4h-1.2Z"/>
          <path class="cls-50" d="M495.9,1427.8c-.7,1.7-1.3,2.2-2.8,2.2s-.4,0-.7,0v-.9h.5c.9,0,1.2-.3,1.7-1.5l-2.5-6.7h1.2l2,5.3h0l2-5.3h1.2l-2.6,7h0Z"/>
        </g>
      </g>
      <g class="cls-36">
        <g class="cls-36">
          <path class="cls-50" d="M43.4,1424.8c0,1.9-.9,2.8-2.6,2.8s-.5,0-.7,0v-1.1h.5c1.1,0,1.6-.5,1.6-1.9v-6.6h1.2v6.7h0Z"/>
          <path class="cls-50" d="M51.5,1424.1c0,2.2-1.2,3.6-3.2,3.6s-3.2-1.3-3.2-3.6,1.2-3.6,3.2-3.6,3.2,1.3,3.2,3.6ZM46.3,1424.1c0,1.6.8,2.6,2,2.6s2-.9,2-2.6-.8-2.6-2-2.6-2,.9-2,2.6Z"/>
          <path class="cls-50" d="M54.3,1421.7c.4-.7,1.2-1.1,2-1.1,1.7,0,2.8,1.3,2.8,3.6s-1.1,3.6-2.8,3.6-1.7-.4-2-1.2h0v.9h-1.2v-9.4h1.2v3.6h0ZM54.2,1424.1c0,1.6.7,2.6,1.9,2.6s1.9-1.1,1.9-2.6-.8-2.5-1.9-2.5-1.9.9-1.9,2.5Z"/>
        </g>
      </g>
      <g class="cls-36">
        <g class="cls-36">
          <g>
            <path class="cls-50" d="M86.9,1428.6c-2.9,0-4.7-2.2-4.7-5.6s1.9-5.6,5-5.6,4,1.1,4.4,3.1c0,0,.1.1.1.2.1.3,0,.6-.2.8h-.1c-.1.3-.3.4-.5.4s-.2,0-.3,0c0,0-.1,0-.2,0h-.8c-.4,0-.7-.2-.7-.6-.2-.9-.7-1.3-1.6-1.3s-2.3,1-2.3,3.1.3,3.1,2.2,3.1,1.7-.3,1.9-1.5h-1.9c-.4,0-.8-.3-.8-.8v-1.1c0-.4.3-.8.8-.8h3.7c.4,0,.8.3.8.8v5c0,.4-.3.8-.8.8h-1.1c-.3,0-.5-.2-.7-.4-.6.4-1.4.5-2.2.5Z"/>
            <path class="cls-47" d="M87.1,1418c2.6,0,3.5,1.1,3.7,2.9h-1.2c-.3-1.2-1.1-1.9-2.4-1.9s-3,1.5-3,3.8,1.1,3.8,2.9,3.8,2.6-.9,2.6-3h-2.6v-1.1h3.7v5h-1.1v-1.3c-.5.9-1.6,1.5-2.9,1.5-2.4,0-4-1.9-4-4.9s1.6-4.9,4.2-4.9M91,1420.9h-.1c0,0,0,0,0,0h.1M87.1,1416.5c-3.5,0-5.7,2.5-5.7,6.4s2.2,6.4,5.5,6.4,1.5-.1,2.1-.4c.2.2.5.2.8.2h1.1c.8,0,1.5-.7,1.5-1.5v-5c0-.3,0-.5-.2-.8.4-.4.4-1,.2-1.5,0,0,0-.2-.1-.3-.4-1.8-1.6-3.6-5.1-3.6h0ZM86,1421.7c.4-.8,1-1.1,1.3-1.1.6,0,.8.2.9.6h-1c-.5,0-.9.2-1.2.5h0ZM87.1,1425.3c-.3,0-.6,0-.8-.3.2.1.5.2.8.2h.6c-.2,0-.4,0-.6,0h0Z"/>
          </g>
          <g>
            <path class="cls-50" d="M94.8,1428.3c-1.7,0-3-1.2-3-2.7s.4-1.7,1.1-2.2h0c-.4,0-.8-.3-.8-.8,0-1.8,1.3-3,3.4-3s3.4,1.2,3.4,3.4v2.6c0,.7,0,1.2,0,1.5,0,.2,0,.5-.1.7s-.4.3-.6.3h-1.1c-.2,0-.4,0-.5-.2-.5.2-1.1.4-1.8.4ZM96.2,1425c-.2,0-.4,0-.5.1,0,0-.2,0-.3,0-.9.1-.9.3-.9.4,0,.3.2.4.6.4.6,0,.6,0,.7-.2,0,0,0,0,0-.1.2-.2.3-.3.3-.8ZM95.6,1422.1c-.4,0-.8.3-.8.7,0,0,.1,0,.2,0,0,0,0,0,.1,0,.3,0,.8,0,1.2-.1,0-.3-.3-.5-.7-.5Z"/>
            <path class="cls-47" d="M95.5,1420.4c1.7,0,2.6.8,2.6,2.6h0v2.6c0,.8,0,1.3.1,1.7h-1.1v-.9c-.4.7-1.2,1.1-2.4,1.1s-2.2-.8-2.2-2,.7-1.9,2.5-2.1c.5,0,1.5-.1,2-.3v-.3c0-1.1-.7-1.6-1.5-1.6s-1.5.5-1.6,1.3h-1.2c0-1.3.9-2.2,2.6-2.2M97,1424.2c-.5,0-1.2,0-1.7.3-1.2.1-1.6.5-1.6,1.2s.5,1.2,1.3,1.2,1.1-.1,1.3-.5c.4-.4.5-.8.5-1.6v-.4h.1M95.5,1418.9c-2.5,0-4.1,1.5-4.1,3.7s.1.7.3.9c-.4.5-.6,1.2-.6,2,0,2,1.6,3.5,3.7,3.5s1.3-.1,1.7-.3c.2,0,.4.1.6.1h1.1c.5,0,.9-.2,1.2-.6.3-.4.4-.9.2-1.4,0-.2,0-.7,0-1.2v-2.5h0c0-2.7-1.5-4.3-4.1-4.3h0Z"/>
          </g>
          <g>
            <path class="cls-50" d="M100.2,1430.8c-.4,0-.8-.3-.8-.8v-9.1c0-.4.3-.8.8-.8h1.2c.2,0,.4,0,.5.2.5-.3,1-.4,1.5-.4,2.1,0,3.5,1.6,3.5,4.2,0,0,0,.2,0,.2,0,2.5-1.5,4.1-3.5,4.1s-.9,0-1.2-.1v1.7c0,.4-.3.8-.8.8h-1.2ZM103.1,1422.3c-.7,0-1.1.7-1.1,1.8s.1,1.9,1.1,1.9,1.1-1.3,1.1-1.9c0-1.1-.4-1.8-1.1-1.8Z"/>
            <path class="cls-47" d="M103.4,1420.7c1.7,0,2.8,1.3,2.8,3.5,0,2.1-1.1,3.5-2.8,3.5s-1.7-.4-2-1.1v3.4h-1.2v-9.1h1.2v.9c.4-.7,1.2-1.2,2-1.2M103.1,1426.8c1.2,0,1.9-1.1,1.9-2.6s-.8-2.5-1.9-2.5-1.9.9-1.9,2.5.7,2.6,1.9,2.6M106.2,1424.1h0c0,.1,0,0,0,0,0,0,0,0,0,0M103.4,1419.2c-.5,0-1,.1-1.5.3-.2,0-.3,0-.5,0h-1.2c-.8,0-1.5.7-1.5,1.5v9.1c0,.8.7,1.5,1.5,1.5h1.2c.8,0,1.5-.7,1.5-1.5v-.9c.2,0,.3,0,.5,0,2.4,0,4.2-2,4.3-4.8,0,0,0,0,0-.1h0c0-.2,0-.2,0-.3,0-2.9-1.8-4.8-4.3-4.8h0ZM103.1,1425.3c-.2,0-.4-.6-.4-1.1s.2-1,.4-1,.4.4.4,1-.1,1.1-.4,1.1h0Z"/>
          </g>
        </g>
      </g>
      <g class="cls-36">
        <g class="cls-36">
          <g>
            <path class="cls-50" d="M66.5,958.6c-3.1,0-5-2.2-5-5.6s1.9-5.6,5-5.6,5,2.2,5,5.6-1.9,5.6-5,5.6ZM66.5,949.9c-1.4,0-2.3,1.2-2.3,3.1s.9,3.1,2.3,3.1,2.3-1.2,2.3-3.1-.9-3.1-2.3-3.1Z"/>
            <path class="cls-47" d="M66.5,948.1c2.6,0,4.2,1.9,4.2,4.9s-1.6,4.9-4.2,4.9-4.2-1.9-4.2-4.9,1.6-4.9,4.2-4.9M66.5,956.8c1.9,0,3-1.5,3-3.8s-1.2-3.8-3-3.8-3,1.5-3,3.8,1.2,3.8,3,3.8M66.5,946.6c-3.5,0-5.7,2.5-5.7,6.4s2.3,6.4,5.7,6.4,5.7-2.5,5.7-6.4-2.3-6.4-5.7-6.4h0ZM66.5,955.3c-1.5,0-1.5-1.9-1.5-2.3,0-.9.2-2.3,1.5-2.3s1.5,1.5,1.5,2.3-.2,2.3-1.5,2.3h0Z"/>
          </g>
          <g>
            <path class="cls-50" d="M75,958.5c-1.1,0-2.8-.4-3.1-2.8-.2-.1-.3-.4-.3-.6v-4.1c0-.4.3-.8.8-.8h1.2c.4,0,.8.3.8.8v4c0,1.1.3,1.1.8,1.1s1,0,1-1.4v-3.8c0-.4.3-.8.8-.8h1.2c.4,0,.8.3.8.8v6.7c0,.4-.3.8-.8.8h-1.1c-.2,0-.4,0-.5-.2-.4.2-.9.4-1.5.4Z"/>
            <path class="cls-47" d="M78,950.9v6.7h-1.1v-.9c-.4.7-1.2,1.1-2,1.1-1.6,0-2.4-.9-2.4-2.8h-.3c0,.1,0-4,0-4h1.2v4c0,1.5.5,1.9,1.6,1.9s1.7-.7,1.7-2.1v-3.8h1.2M78,949.4h-1.2c-.8,0-1.5.7-1.5,1.5v3.8c0,.4,0,.5,0,.6,0,0,0,0-.1,0s0,0,0,0c0,0,0-.2,0-.4v-4c0-.8-.7-1.5-1.5-1.5h-1.2c-.8,0-1.5.7-1.5,1.5v4.1c0,.4.1.7.4,1,.4,2,1.7,3.2,3.8,3.2s1,0,1.4-.3c.2,0,.4.1.6.1h1.1c.8,0,1.5-.7,1.5-1.5v-6.7c0-.8-.7-1.5-1.5-1.5h0Z"/>
          </g>
          <g>
            <path class="cls-50" d="M82,958.4c-1.8,0-2.6-.9-2.6-2.7v-3.2h-.4c-.4,0-.8-.3-.8-.8v-.9c0-.4.3-.8.8-.8h.4v-.8c0-.4.3-.8.8-.8h1.2c.4,0,.8.3.8.8v.8h.6c.4,0,.8.3.8.8v.9c0,.4-.3.8-.8.8h-.6v3.1c0,.2,0,.3,0,.3,0,0,.7,0,.7,0,.4,0,.8.3.8.8v1.1c0,.4-.3.8-.8.8h-.8Z"/>
            <path class="cls-47" d="M81.3,949.2v1.6h1.3v.9h-1.3v3.8c0,.8.3,1.1.9,1.1s.4,0,.5,0h0v1.1h-.8c-1.3,0-1.9-.5-1.9-2v-4h-1.2v-.9h1.2v-1.6h1.2M81.3,947.7h-1.2c-.8,0-1.5.7-1.5,1.5h0c-.7.3-1.2.9-1.2,1.6v.9c0,.7.5,1.3,1.2,1.5v2.5c0,3,2.1,3.5,3.4,3.5h.8c.8,0,1.5-.7,1.5-1.5v-.9h0c0-.9-.6-1.6-1.5-1.6v-1.9c.7,0,1.3-.7,1.3-1.5v-.9c0-.8-.6-1.4-1.3-1.5h0c0-.9-.7-1.6-1.5-1.6h0Z"/>
          </g>
          <g>
            <path class="cls-50" d="M86.5,958.6c-2.1,0-3.5-1.2-3.5-3.1s.3-.8.8-.8h.4c-.6-.4-1-1-1-2s.3-2.7,3.3-2.7,3.4,1.2,3.4,3h0c0,.5-.3.9-.8.9h0c.5.4.9,1,.9,2,0,2.7-2.6,2.7-3.4,2.7ZM85.6,955.4s0,0,0,.1c0,.5.3.7.8.7s.7,0,.7-.3c0,0-.2-.2-1.2-.5,0,0-.2,0-.3,0ZM85.8,952.7s.2.1,1,.3c0,0,.2,0,.3,0,0-.4,0-.6-.7-.6s-.6,0-.6.2c0,0,0,0,0,0Z"/>
            <path class="cls-47" d="M86.3,950.7c1.5,0,2.6.8,2.6,2.2h0c0,.1-1.2.1-1.2.1,0-.9-.5-1.3-1.5-1.3s-1.3.4-1.3.9.5.8,1.6,1.1c1.2.3,2.5.5,2.5,2.1s-1.1,2-2.6,2-2.8-.8-2.8-2.4h1.2c0,.9.7,1.5,1.6,1.5s1.5-.4,1.5-1.1-.5-.9-1.9-1.2c-1.1-.3-2.2-.5-2.2-2s1.1-2,2.5-2M86.3,949.2c-3,0-4,1.8-4,3.5s.2,1.2.4,1.6c-.3.3-.5.7-.5,1.1,0,2.3,1.7,3.9,4.3,3.9s4.1-2.2,4.1-3.5-.2-1.4-.5-1.8c.2-.3.3-.6.3-1h0c0-2.3-1.7-3.9-4.1-3.9h0Z"/>
          </g>
          <g>
            <path class="cls-50" d="M90.7,958.5c-.4,0-.8-.3-.8-.8v-6.7c0-.3.2-.5.4-.7-.2-.1-.4-.4-.4-.7v-1.3c0-.4.3-.8.8-.8h1.2c.4,0,.8.3.8.8v1.3c0,.3-.2.5-.4.7.2.1.4.4.4.7v6.7c0,.4-.3.8-.8.8h-1.2Z"/>
            <path class="cls-47" d="M91.9,948.4v1.3h-1.2v-1.3h1.2M91.9,951v6.7h-1.2v-6.7h1.2M91.9,946.9h-1.2c-.8,0-1.5.7-1.5,1.5v1.3c0,.2,0,.5.2.7,0,.2-.2.4-.2.7v6.7c0,.8.7,1.5,1.5,1.5h1.2c.8,0,1.5-.7,1.5-1.5v-6.7c0-.2,0-.5-.2-.7,0-.2.2-.4.2-.7v-1.3c0-.8-.7-1.5-1.5-1.5h0Z"/>
          </g>
          <g>
            <path class="cls-50" d="M96.3,958.8c-2.2,0-3.5-1.7-3.5-4.3s1.4-4.3,3.5-4.3.9,0,1.2.1v-1.9c0-.4.3-.8.8-.8h1.2c.4,0,.8.3.8.8v9.4c0,.4-.3.8-.8.8h-1.2c-.2,0-.3,0-.4-.1-.5.3-1,.4-1.5.4ZM96.5,952.5c-1,0-1.1,1.3-1.1,1.8,0,1.1.5,1.9,1.1,1.9s1.1-1,1.1-1.9c0-1.8-.7-1.8-1.1-1.8Z"/>
            <path class="cls-47" d="M99.4,948.4v9.4h-1.1v-.9c-.4.7-1.2,1.2-2.1,1.2-1.7,0-2.8-1.3-2.8-3.6s1.1-3.6,2.8-3.6,1.7.4,2,1.1v-3.6h1.2M96.5,957c1.1,0,1.9-.9,1.9-2.6s-.7-2.5-1.9-2.5-1.9,1.1-1.9,2.5.8,2.6,1.9,2.6M98.4,957.8h0s-.1,0-.1,0h.1M99.4,946.9h-1.2c-.8,0-1.5.7-1.5,1.5v1c-.2,0-.3,0-.5,0-2.6,0-4.3,2-4.3,5.1s1.7,5.1,4.3,5.1,1.1-.1,1.6-.3c.1,0,.3,0,.4,0h.1s0,0,0,0h1.1c.8,0,1.5-.7,1.5-1.5v-9.4c0-.8-.7-1.5-1.5-1.5h0ZM96.5,955.5h0c0,0-.3-.4-.3-1.1s.1-1,.4-1,.2,0,.2,0h0s.2.2.2,1-.2,1.1-.4,1.1h0Z"/>
          </g>
          <g>
            <path class="cls-50" d="M104.3,958.8c-2.2,0-3.9-1.9-3.9-4.3s1.5-4.2,3.9-4.2,3.4,1.7,3.6,3c0,0,0,0,0,.1,0,.1,0,.3,0,.4,0,.3,0,.6,0,1s0,.4-.2.5c0,.2.1.4,0,.5-.3,1.4-1.4,2.8-3.6,2.8ZM103.2,955.6c.2.6.6.9,1.1.9s.9-.3,1-.6h0c0-.1,0-.2,0-.2h-2.1ZM105.1,953c-.2-.3-.6-.5-.9-.5s-.7.1-.9.5h1.9Z"/>
            <path class="cls-47" d="M104.3,951c2,0,2.6.9,2.9,2.4,0,.4.1.8.1,1.5h-5c0,1.6.9,2.4,2,2.4s1.6-.5,1.7-1.3h0c0-.1,1.2-.1,1.2-.1-.3,1.2-1.2,2.2-2.9,2.2s-3.2-1.5-3.2-3.6,1.2-3.4,3.2-3.4M102.2,953.8h3.8c0-1.3-.9-2-1.9-2s-1.9.7-2,2M104.3,949.5c-2.8,0-4.7,2-4.7,4.9s2.1,5.1,4.7,5.1,3.9-1.3,4.4-3.4c0-.2,0-.4,0-.6,0-.2.2-.4.2-.7,0-.5,0-.9,0-1.1,0-.1,0-.3,0-.3s0-.2,0-.3c-.4-2.4-1.9-3.6-4.4-3.6h0Z"/>
          </g>
          <g>
            <path class="cls-50" d="M115.6,958.6c-2.7,0-4.2-1.6-4.2-4.5v-5.8c0-.4.3-.8.8-.8h1.2c.4,0,.8.3.8.8v5.8c0,1.7.8,1.9,1.5,1.9s1.5-.2,1.5-1.9v-5.8c0-.4.3-.8.8-.8h1.2c.4,0,.8.3.8.8v5.8c0,2.8-1.5,4.5-4.2,4.5Z"/>
            <path class="cls-47" d="M119,948.4v5.8c0,2.4-1.2,3.7-3.4,3.7s-3.4-1.3-3.4-3.7v-5.8h1.2v5.8c0,1.7.8,2.6,2.2,2.6s2.2-.9,2.2-2.6v-5.8h1.2M119,946.9h-1.2c-.8,0-1.5.7-1.5,1.5v5.8c0,1.1-.4,1.1-.7,1.1s-.7,0-.7-1.1v-5.8c0-.8-.7-1.5-1.5-1.5h-1.2c-.8,0-1.5.7-1.5,1.5v5.8c0,3.2,1.9,5.2,4.9,5.2s4.9-2,4.9-5.2v-5.8c0-.8-.7-1.5-1.5-1.5h0Z"/>
          </g>
          <g>
            <rect class="cls-50" x="120.1" y="955.4" width="3" height="3.1" rx=".7" ry=".7"/>
            <path class="cls-47" d="M122.3,956.2v1.6h-1.5v-1.6h1.5M122.3,954.7h-1.5c-.8,0-1.5.7-1.5,1.5v1.6c0,.8.7,1.5,1.5,1.5h1.5c.8,0,1.5-.7,1.5-1.5v-1.6c0-.8-.7-1.5-1.5-1.5h0Z"/>
          </g>
          <g>
            <path class="cls-50" d="M127.2,958.8c-2.5,0-4.3-1.7-4.3-4.1s.3-.8.8-.8h1.2c.4,0,.8.3.8.8,0,1.1.4,1.5,1.5,1.5s1.4-.7,1.4-1,0-.6-1.7-1c-1.8-.4-3.7-1-3.7-3.5s.5-3.4,3.9-3.4,4.1,1.5,4.1,3.8h0c0,.5-.3.9-.8.9h-1.2c-.4,0-.8-.3-.8-.8,0-.6-.2-1.2-1.4-1.2s-1.1.4-1.1.7,0,.6,1.7,1c1.3.3,3.7.9,3.7,3.5s-1.6,3.5-4.1,3.5Z"/>
            <path class="cls-47" d="M126.9,948.1c2,0,3.3,1.1,3.3,3h0c0,.1-1.2.1-1.2.1,0-1.3-.8-2-2.1-2s-1.9.5-1.9,1.5.7,1.3,2.2,1.7c1.7.4,3.2.9,3.2,2.8s-1.3,2.8-3.3,2.8-3.6-1.2-3.6-3.3h1.2c0,1.6.8,2.2,2.2,2.2s2.1-.7,2.1-1.7-.8-1.3-2.2-1.7c-1.9-.4-3.2-.9-3.2-2.8s1.2-2.6,3.2-2.6M126.9,946.6c-2.9,0-4.7,1.5-4.7,4.1s.3,2,.9,2.6c-.6.2-1,.8-1,1.4,0,2.8,2.1,4.8,5.1,4.8s4.8-1.7,4.8-4.3-.4-2.1-1-2.7c.4-.3.7-.7.7-1.3h0c0-2.9-1.9-4.7-4.8-4.7h0ZM126.9,950.8h0c.4,0,.5,0,.6.2-.3,0-.4-.1-.6-.2h0ZM127.1,955.5c-.6,0-.7,0-.7-.5,0,0,.2,0,.3,0,.3,0,.8.2,1.1.4,0,0,0,0,0,0,0,0-.2,0-.6,0h0Z"/>
          </g>
          <g>
            <rect class="cls-50" x="131.1" y="955.4" width="3" height="3.1" rx=".8" ry=".8"/>
            <path class="cls-47" d="M133.3,956.2v1.6h-1.5v-1.6h1.5M133.3,954.7h-1.5c-.8,0-1.5.7-1.5,1.5v1.6c0,.8.7,1.5,1.5,1.5h1.5c.8,0,1.5-.7,1.5-1.5v-1.6c0-.8-.7-1.5-1.5-1.5h0Z"/>
          </g>
        </g>
      </g>
      <g>
        <g class="cls-36">
          <g class="cls-36">
            <path class="cls-49" d="M37.3,44.3c0,2.4-1.2,3.7-3.4,3.7s-3.4-1.3-3.4-3.7v-5.8h1.2v5.8c0,1.7.8,2.6,2.2,2.6s2.2-.9,2.2-2.6v-5.8h1.2s0,5.8,0,5.8Z"/>
            <path class="cls-49" d="M45.1,43.8v4.1h-1.2v-4c0-1.5-.5-1.9-1.6-1.9s-1.7.7-1.7,2.1v3.8h-1.2v-6.7h1.1v.9h0c.4-.7,1.2-1.1,2-1.1,1.6,0,2.4.9,2.4,2.8h.3Z"/>
            <path class="cls-49" d="M51.3,47.9l-2.9-3.3h0v3.3h-1.2v-9.4h1.2v5.4h0l2.6-2.8h1.5l-3,3,3.3,3.7h-1.6.1Z"/>
            <path class="cls-49" d="M59.2,43.8v4.1h-1.2v-4c0-1.5-.5-1.9-1.6-1.9s-1.7.7-1.7,2.1v3.8h-1.2v-6.7h1.1v.9h0c.4-.7,1.2-1.1,2-1.1,1.6,0,2.4.9,2.4,2.8h.3Z"/>
            <path class="cls-49" d="M67.2,44.4c0,2.2-1.2,3.6-3.2,3.6s-3.2-1.3-3.2-3.6,1.2-3.6,3.2-3.6,3.2,1.3,3.2,3.6ZM62,44.4c0,1.6.8,2.6,2,2.6s2-.9,2-2.6-.8-2.6-2-2.6-2,.9-2,2.6Z"/>
            <path class="cls-49" d="M74.3,47.9l-.8-2.9c-.3-.9-.5-2-.8-2.9h0c-.3.9-.5,2-.8,2.9l-.8,2.9h-1.7l-1.7-6.7h1.2l.7,2.8c.3.9.5,2,.8,3h0c.3-.9.5-2,.8-2.9l.8-2.9h1.7l.8,2.9c.3.9.5,2,.8,2.9h0c.3-1.1.5-2,.8-3l.7-2.8h1.2l-1.7,6.7h-1.9Z"/>
            <path class="cls-49" d="M84.5,43.8v4.1h-1.2v-4c0-1.5-.5-1.9-1.6-1.9s-1.7.7-1.7,2.1v3.8h-1.2v-6.7h1.1v.9h0c.4-.7,1.2-1.1,2-1.1,1.6,0,2.4.9,2.4,2.8h.3Z"/>
          </g>
        </g>
        <g class="cls-36">
          <g class="cls-36">
            <path class="cls-50" d="M37.3,44.3c0,2.4-1.2,3.7-3.4,3.7s-3.4-1.3-3.4-3.7v-5.8h1.2v5.8c0,1.7.8,2.6,2.2,2.6s2.2-.9,2.2-2.6v-5.8h1.2s0,5.8,0,5.8Z"/>
            <path class="cls-50" d="M45.1,43.8v4.1h-1.2v-4c0-1.5-.5-1.9-1.6-1.9s-1.7.7-1.7,2.1v3.8h-1.2v-6.7h1.1v.9h0c.4-.7,1.2-1.1,2-1.1,1.6,0,2.4.9,2.4,2.8h.3Z"/>
            <path class="cls-50" d="M51.3,47.9l-2.9-3.3h0v3.3h-1.2v-9.4h1.2v5.4h0l2.6-2.8h1.5l-3,3,3.3,3.7h-1.6.1Z"/>
            <path class="cls-50" d="M59.2,43.8v4.1h-1.2v-4c0-1.5-.5-1.9-1.6-1.9s-1.7.7-1.7,2.1v3.8h-1.2v-6.7h1.1v.9h0c.4-.7,1.2-1.1,2-1.1,1.6,0,2.4.9,2.4,2.8h.3Z"/>
            <path class="cls-50" d="M67.2,44.4c0,2.2-1.2,3.6-3.2,3.6s-3.2-1.3-3.2-3.6,1.2-3.6,3.2-3.6,3.2,1.3,3.2,3.6ZM62,44.4c0,1.6.8,2.6,2,2.6s2-.9,2-2.6-.8-2.6-2-2.6-2,.9-2,2.6Z"/>
            <path class="cls-50" d="M74.3,47.9l-.8-2.9c-.3-.9-.5-2-.8-2.9h0c-.3.9-.5,2-.8,2.9l-.8,2.9h-1.7l-1.7-6.7h1.2l.7,2.8c.3.9.5,2,.8,3h0c.3-.9.5-2,.8-2.9l.8-2.9h1.7l.8,2.9c.3.9.5,2,.8,2.9h0c.3-1.1.5-2,.8-3l.7-2.8h1.2l-1.7,6.7h-1.9Z"/>
            <path class="cls-50" d="M84.5,43.8v4.1h-1.2v-4c0-1.5-.5-1.9-1.6-1.9s-1.7.7-1.7,2.1v3.8h-1.2v-6.7h1.1v.9h0c.4-.7,1.2-1.1,2-1.1,1.6,0,2.4.9,2.4,2.8h.3Z"/>
          </g>
        </g>
      </g>
      <line class="cls-48" x1="36.4" y1="29.1" x2="36.4" y2="24.8"/>
      <g class="cls-36">
        <path class="cls-47" d="M17.6,502.3H7.4c1.5.5,2.9,1.1,4.4,1.6l5.8,2.1v1.7l-5.8,2.1c-1.5.5-2.9,1.1-4.4,1.6h10.2v1.4H6.2v-2.4l5.6-2.1c1.4-.5,2.9-1,4.4-1.5h0c-1.4-.5-2.9-1-4.4-1.5l-5.6-2v-2.4h11.4v1.4h0Z"/>
        <path class="cls-47" d="M12.4,492h3.1c.9,0,1.6,0,2.1-.2v1.3c-.4,0-.8.1-1.2.1h0c.9.6,1.4,1.5,1.4,2.8s-1,2.8-2.4,2.8-2.2-.8-2.6-3.1c-.1-.7-.2-1.7-.3-2.4h-.3c-1.3,0-1.9.8-1.9,1.8s.7,1.8,1.6,1.9v1.4c-1.5,0-2.7-1.2-2.7-3.3s1-3.2,3.2-3.2h0ZM13.6,493.3c0,.6.1,1.5.3,2.1.2,1.4.6,1.9,1.4,1.9s1.4-.6,1.4-1.7-.2-1.3-.6-1.7c-.5-.5-1-.7-1.9-.7h-.6Z"/>
        <path class="cls-47" d="M12,483.8v1.4c-1.1,0-1.7.7-1.7,1.8s.4,1.6,1.2,1.6,1-.6,1.3-2c.4-1.5.7-3.1,2.6-3.1s2.4,1.2,2.4,3.2-1,3.4-2.9,3.4v-1.4c1.2,0,1.8-.7,1.8-2s-.5-1.8-1.2-1.8-1.1.7-1.5,2.2c-.3,1.4-.6,2.8-2.4,2.8s-2.4-1.2-2.4-3,1-3.2,2.8-3.2h0Z"/>
        <path class="cls-47" d="M16.4,478.2h1.2v.9c0,1.6-.7,2.2-2.3,2.2h-4.7v1.4h-1.1v-1.4h-2v-1.4h2v-1.6h1.1v1.6h4.6c.9,0,1.3-.3,1.3-1.1s0-.4,0-.6h-.1Z"/>
        <path class="cls-47" d="M15.2,471.4v-1.4c1.4.3,2.7,1.5,2.7,3.6s-1.7,3.8-4.4,3.8-4.2-1.4-4.2-3.8,1.1-3.1,2.8-3.6c.5-.1,1-.2,1.7-.2v6.1c2,0,2.9-1.1,2.9-2.4s-.7-2-1.6-2.1h0ZM12.7,476v-4.7c-1.6.1-2.4,1.1-2.4,2.3s.9,2.2,2.4,2.4h0Z"/>
        <path class="cls-47" d="M9.4,463.6h1.3v.6c0,1.5,1,2.4,2.8,2.4h4.1v1.4h-8.1v-1.3h1.2c-.9-.6-1.3-1.4-1.3-2.4s0-.4,0-.6h0Z"/>
        <path class="cls-47" d="M12,456.7v1.4c-1.1,0-1.7.7-1.7,1.8s.4,1.6,1.2,1.6,1-.6,1.3-2c.4-1.5.7-3.1,2.6-3.1s2.4,1.2,2.4,3.2-1,3.4-2.9,3.4v-1.4c1.2,0,1.8-.7,1.8-2s-.5-1.8-1.2-1.8-1.1.7-1.5,2.2c-.3,1.4-.6,2.8-2.4,2.8s-2.4-1.2-2.4-3,1-3.2,2.8-3.2h0Z"/>
      </g>
      <g class="cls-36">
        <path class="cls-47" d="M6.4,986.6c0-3.8,2-5.9,5.7-5.9s5.7,2.1,5.7,5.9v3.5H6.4v-3.5ZM16.5,988.6v-2c0-2.8-1.5-4.4-4.4-4.4s-4.4,1.5-4.4,4.4v2h8.8Z"/>
        <path class="cls-47" d="M13.8,971.5c2.7,0,4.3,1.5,4.3,3.9s-1.6,3.9-4.3,3.9-4.3-1.5-4.3-3.9,1.6-3.9,4.3-3.9ZM13.8,977.8c1.9,0,3.1-.9,3.1-2.4s-1.2-2.4-3.1-2.4-3.1.9-3.1,2.4,1.2,2.4,3.1,2.4Z"/>
        <path class="cls-47" d="M12.6,962.8v1.5c-1.2,0-2,.9-2,2s1.2,2.3,3.1,2.3,3.1-.9,3.1-2.3-.9-1.9-2.1-2v-1.5c1.9.2,3.2,1.5,3.2,3.5s-1.6,3.8-4.3,3.8-4.3-1.5-4.3-3.8,1.3-3.3,3.1-3.5h.2Z"/>
        <path class="cls-47" d="M16.6,957.5h1.2v.9c0,1.6-.7,2.2-2.3,2.2h-4.7v1.4h-1.1v-1.4h-2v-1.4h2v-1.6h1.1v1.6h4.6c.9,0,1.3-.3,1.3-1.1s0-.4,0-.6h-.1Z"/>
        <path class="cls-47" d="M13.8,948.9c2.7,0,4.3,1.5,4.3,3.9s-1.6,3.9-4.3,3.9-4.3-1.5-4.3-3.9,1.6-3.9,4.3-3.9ZM13.8,955.2c1.9,0,3.1-.9,3.1-2.4s-1.2-2.4-3.1-2.4-3.1.9-3.1,2.4,1.2,2.4,3.1,2.4Z"/>
        <path class="cls-47" d="M9.7,942.6h1.3v.6c0,1.5,1,2.4,2.8,2.4h4.1v1.4h-8.1v-1.3h1.2c-.9-.6-1.3-1.4-1.3-2.4s0-.4,0-.6h0Z"/>
        <path class="cls-47" d="M12.6,935.5h3.1c.9,0,1.6,0,2.1-.2v1.3c-.4,0-.8,0-1.2,0h0c.9.6,1.4,1.5,1.4,2.8s-1,2.8-2.4,2.8-2.2-.8-2.6-3.1c-.1-.7-.2-1.7-.3-2.4h-.3c-1.3,0-1.9.8-1.9,1.8s.7,1.8,1.6,1.9v1.4c-1.5,0-2.7-1.2-2.7-3.3s1-3.2,3.2-3.2h0ZM13.9,936.9c0,.6.1,1.5.3,2.1.2,1.4.6,1.9,1.4,1.9s1.4-.6,1.4-1.7-.2-1.3-.6-1.7c-.5-.5-1-.7-1.9-.7h-.6Z"/>
        <path class="cls-47" d="M16.6,929.8h1.2v.9c0,1.6-.7,2.2-2.3,2.2h-4.7v1.4h-1.1v-1.4h-2v-1.4h2v-1.6h1.1v1.6h4.6c.9,0,1.3-.3,1.3-1.1s0-.4,0-.6h-.1Z"/>
        <path class="cls-47" d="M15.4,923v-1.4c1.4.3,2.7,1.5,2.7,3.6s-1.7,3.8-4.4,3.8-4.2-1.4-4.2-3.8,1.1-3.1,2.8-3.6c.5,0,1-.2,1.7-.2v6.1c2,0,2.9-1.1,2.9-2.4s-.7-2-1.6-2.1h0ZM13,927.6v-4.7c-1.6,0-2.4,1.1-2.4,2.3s.9,2.2,2.4,2.4Z"/>
      </g>
      <g class="cls-36">
        <path class="cls-47" d="M6.4,1427.7c0-2.6,1.4-4,3.4-4s3.4,1.4,3.4,4v2.4h4.5v1.5H6.4v-3.9ZM12,1430.2v-2.3c0-1.7-.8-2.6-2.2-2.6s-2.2.8-2.2,2.6v2.3h4.4Z"/>
        <path class="cls-47" d="M13.8,1415.1c2.7,0,4.3,1.5,4.3,3.9s-1.6,3.9-4.3,3.9-4.3-1.5-4.3-3.9,1.6-3.9,4.3-3.9ZM13.8,1421.3c1.9,0,3.1-.9,3.1-2.4s-1.2-2.4-3.1-2.4-3.1.9-3.1,2.4,1.2,2.4,3.1,2.4Z"/>
        <path class="cls-47" d="M12.2,1407.3v1.4c-1.1,0-1.7.7-1.7,1.8s.4,1.6,1.2,1.6,1-.6,1.3-2c.4-1.5.7-3.1,2.6-3.1s2.4,1.2,2.4,3.2-1,3.4-2.9,3.4v-1.4c1.2,0,1.8-.7,1.8-2s-.5-1.8-1.2-1.8-1.1.7-1.5,2.2c-.3,1.4-.6,2.8-2.4,2.8s-2.4-1.2-2.4-3,1-3.2,2.8-3.2h0Z"/>
        <path class="cls-47" d="M16.6,1401.7h1.2v.9c0,1.6-.7,2.2-2.3,2.2h-4.7v1.4h-1.1v-1.4h-2v-1.4h2v-1.6h1.1v1.6h4.6c.9,0,1.3-.3,1.3-1.1s0-.4,0-.6h-.1Z"/>
        <path class="cls-47" d="M13.8,1400.8h-1.2v-3.8h1.2v3.8Z"/>
        <path class="cls-47" d="M10.9,1389.7h-1.2v-1.4h7.6c2.4,0,3.6,1.3,3.6,3.6s-1,3.3-2.6,3.4v-1.4c.9,0,1.5-.8,1.5-2s-.8-2.2-2.6-2.2h-.9c.9.6,1.4,1.4,1.4,2.4,0,2.1-1.6,3.4-4.1,3.4s-4.1-1.3-4.1-3.4.5-1.9,1.4-2.4ZM13.6,1394.1c1.8,0,2.9-.9,2.9-2.2s-1.1-2.3-2.9-2.3-3,.9-3,2.3,1.2,2.2,3,2.2Z"/>
        <path class="cls-47" d="M9.7,1381.4h1.3v.6c0,1.5,1,2.4,2.8,2.4h4.1v1.4h-8.1v-1.3h1.2c-.9-.6-1.3-1.4-1.3-2.4s0-.4,0-.6h0Z"/>
        <path class="cls-47" d="M12.6,1374.3h3.1c.9,0,1.6,0,2.1-.2v1.3c-.4,0-.8,0-1.2,0h0c.9.6,1.4,1.5,1.4,2.8s-1,2.8-2.4,2.8-2.2-.8-2.6-3.1c-.1-.7-.2-1.7-.3-2.4h-.3c-1.3,0-1.9.8-1.9,1.8s.7,1.8,1.6,1.9v1.4c-1.5,0-2.7-1.2-2.7-3.3s1-3.2,3.2-3.2h0ZM13.9,1375.6c0,.6.1,1.5.3,2.1.2,1.4.6,1.9,1.4,1.9s1.4-.6,1.4-1.7-.2-1.3-.6-1.7c-.5-.5-1-.7-1.9-.7h-.6Z"/>
        <path class="cls-47" d="M17.8,1366.5h-1.2c.8.5,1.4,1.4,1.4,2.5,0,2.1-1.7,3.4-4.3,3.4s-4.3-1.3-4.3-3.4.5-2,1.3-2.5h-4.4v-1.4h11.4v1.4h.1ZM13.7,1371c1.9,0,3.1-.9,3.1-2.3s-1.2-2.2-3.1-2.2-3.1.9-3.1,2.2,1.2,2.3,3.1,2.3Z"/>
        <path class="cls-47" d="M14.7,1362.7h-5v-1.4h4.8c1.7,0,2.3-.7,2.3-1.9s-.9-2.1-2.5-2.1h-4.7v-1.4h8.1v1.4h-1.1c.8.5,1.2,1.4,1.2,2.5,0,1.9-1.1,2.9-3.3,2.9h.2Z"/>
        <path class="cls-47" d="M12.6,1347.3h3.1c.9,0,1.6,0,2.1-.2v1.3c-.4,0-.8,0-1.2,0h0c.9.6,1.4,1.5,1.4,2.8s-1,2.8-2.4,2.8-2.2-.8-2.6-3.1c-.1-.7-.2-1.7-.3-2.4h-.3c-1.3,0-1.9.8-1.9,1.8s.7,1.8,1.6,1.9v1.4c-1.5,0-2.7-1.2-2.7-3.3s1-3.2,3.2-3.2h0ZM13.9,1348.7c0,.6.1,1.5.3,2.1.2,1.4.6,1.9,1.4,1.9s1.4-.6,1.4-1.7-.2-1.3-.6-1.7c-.5-.5-1-.7-1.9-.7h-.6Z"/>
        <path class="cls-47" d="M16.6,1341.7h1.2v.9c0,1.6-.7,2.2-2.3,2.2h-4.7v1.4h-1.1v-1.4h-2v-1.4h2v-1.6h1.1v1.6h4.6c.9,0,1.3-.3,1.3-1.1s0-.4,0-.6h-.1Z"/>
        <path class="cls-47" d="M15.4,1334.9v-1.4c1.4.3,2.7,1.5,2.7,3.6s-1.7,3.8-4.4,3.8-4.2-1.4-4.2-3.8,1.1-3.1,2.8-3.6c.5,0,1-.2,1.7-.2v6.1c2,0,2.9-1.1,2.9-2.4s-.7-2-1.6-2.1h0ZM13,1339.4v-4.7c-1.6,0-2.4,1.1-2.4,2.3s.9,2.2,2.4,2.4h0Z"/>
      </g>
      <g class="cls-36">
        <path class="cls-47" d="M13.3,102c2.9,0,4.5,1.5,4.5,4.2s-1.6,4.2-4.5,4.2h-7.1v-1.5h7.1c2.1,0,3.2-1,3.2-2.8s-1.1-2.7-3.2-2.7h-7.1v-1.5h7.1Z"/>
        <path class="cls-47" d="M12.6,92.5h5v1.4h-4.8c-1.7,0-2.3.7-2.3,1.9s.9,2.1,2.5,2.1h4.7v1.4h-8.1v-1.4h1.1c-.8-.5-1.2-1.4-1.2-2.5,0-1.9,1.1-2.9,3.3-2.9h-.2Z"/>
        <path class="cls-47" d="M17.6,84.8h-1.2c.8.5,1.4,1.4,1.4,2.5,0,2.1-1.7,3.4-4.3,3.4s-4.3-1.3-4.3-3.4.5-2,1.3-2.5h-4.4v-1.4h11.4v1.4h.1ZM13.5,89.3c1.9,0,3.1-.9,3.1-2.3s-1.2-2.2-3.1-2.2-3.1.9-3.1,2.2,1.2,2.3,3.1,2.3Z"/>
        <path class="cls-47" d="M15.2,75.5v-1.4c1.4.3,2.7,1.5,2.7,3.6s-1.7,3.8-4.4,3.8-4.2-1.4-4.2-3.8,1.1-3.1,2.8-3.6c.5,0,1-.2,1.7-.2v6.1c2,0,2.9-1.1,2.9-2.4s-.7-2-1.6-2.1h0ZM12.7,80.1v-4.7c-1.6,0-2.4,1.1-2.4,2.3s.9,2.2,2.4,2.4Z"/>
        <path class="cls-47" d="M9.4,67.7h1.3v.6c0,1.5,1,2.4,2.8,2.4h4.1v1.4h-8.1v-1.3h1.2c-.9-.6-1.3-1.4-1.3-2.4s0-.4,0-.6h0Z"/>
        <path class="cls-47" d="M10.6,61.3h-1.2v-1.4h7.6c2.4,0,3.6,1.3,3.6,3.6s-1,3.3-2.6,3.4v-1.4c.9,0,1.5-.8,1.5-2s-.8-2.2-2.6-2.2h-.9c.9.6,1.4,1.4,1.4,2.4,0,2.1-1.6,3.4-4.1,3.4s-4.1-1.3-4.1-3.4.5-1.9,1.4-2.4h0ZM13.4,65.8c1.8,0,2.9-.9,2.9-2.2s-1.1-2.3-2.9-2.3-3,.9-3,2.3,1.2,2.2,3,2.2Z"/>
        <path class="cls-47" d="M9.4,53.1h1.3v.6c0,1.5,1,2.4,2.8,2.4h4.1v1.4h-8.1v-1.3h1.2c-.9-.6-1.3-1.4-1.3-2.4s0-.4,0-.6h0Z"/>
        <path class="cls-47" d="M12.4,45.9h3.1c.9,0,1.6,0,2.1-.2v1.3c-.4,0-.8,0-1.2,0h0c.9.6,1.4,1.5,1.4,2.8s-1,2.8-2.4,2.8-2.2-.8-2.6-3.1c-.1-.7-.2-1.7-.3-2.4h-.3c-1.3,0-1.9.8-1.9,1.8s.7,1.8,1.6,1.9v1.4c-1.5,0-2.7-1.2-2.7-3.3s1-3.2,3.2-3.2h0ZM13.6,47.3c0,.6.1,1.5.3,2.1.2,1.4.6,1.9,1.4,1.9s1.4-.6,1.4-1.7-.2-1.3-.6-1.7c-.5-.5-1-.7-1.9-.7h-.6Z"/>
        <path class="cls-47" d="M17.6,38.2h-1.2c.8.5,1.4,1.4,1.4,2.5,0,2.1-1.7,3.4-4.3,3.4s-4.3-1.3-4.3-3.4.5-2,1.3-2.5h-4.4v-1.4h11.4v1.4h.1ZM13.5,42.7c1.9,0,3.1-.9,3.1-2.3s-1.2-2.2-3.1-2.2-3.1.9-3.1,2.2,1.2,2.3,3.1,2.3Z"/>
        <path class="cls-47" d="M14.4,34.4h-5v-1.4h4.8c1.7,0,2.3-.7,2.3-1.9s-.9-2.1-2.5-2.1h-4.7v-1.4h8.1v1.4h-1.1c.8.5,1.2,1.4,1.2,2.5,0,1.9-1.1,2.9-3.3,2.9h.2Z"/>
        <path class="cls-47" d="M12.4,19h3.1c.9,0,1.6,0,2.1-.2v1.3c-.4,0-.8.1-1.2.1h0c.9.6,1.4,1.5,1.4,2.8s-1,2.8-2.4,2.8-2.2-.8-2.6-3.1c-.1-.7-.2-1.7-.3-2.4h-.3c-1.3,0-1.9.8-1.9,1.8s.7,1.8,1.6,1.9v1.4c-1.5,0-2.7-1.2-2.7-3.3s1-3.2,3.2-3.2h0ZM13.6,20.4c0,.6.1,1.5.3,2.1.2,1.4.6,1.9,1.4,1.9s1.4-.6,1.4-1.7-.2-1.3-.6-1.7c-.5-.5-1-.7-1.9-.7h-.6Z"/>
        <path class="cls-47" d="M16.4,13.3h1.2v.9c0,1.6-.7,2.2-2.3,2.2h-4.7v1.4h-1.1v-1.4h-2v-1.4h2v-1.6h1.1v1.6h4.6c.9,0,1.3-.3,1.3-1.1s0-.4,0-.6h-.1Z"/>
        <path class="cls-47" d="M15.2,6.5v-1.4c1.4.3,2.7,1.5,2.7,3.6s-1.7,3.8-4.4,3.8-4.2-1.4-4.2-3.8,1.1-3.1,2.8-3.6c.5,0,1-.2,1.7-.2v6.1c2,0,2.9-1.1,2.9-2.4s-.7-2-1.6-2.1h0ZM12.7,11.1v-4.7c-1.6,0-2.4,1.1-2.4,2.3s.9,2.2,2.4,2.4Z"/>
      </g>
    </g>
  </g>
</svg>