<?xml version="1.0" encoding="UTF-8"?>
<svg xmlns="http://www.w3.org/2000/svg" version="1.1" viewBox="0 0 503.3 2268.3">
  <defs>
    <style>
      .cls-1 {
        stroke-width: 23.1px;
      }

      .cls-1, .cls-2, .cls-3, .cls-4, .cls-5, .cls-6, .cls-7, .cls-8, .cls-9, .cls-10, .cls-11, .cls-12, .cls-13, .cls-14, .cls-15, .cls-16, .cls-17, .cls-18, .cls-19, .cls-20, .cls-21, .cls-22, .cls-23, .cls-24, .cls-25, .cls-26, .cls-27, .cls-28, .cls-29, .cls-30, .cls-31, .cls-32, .cls-33, .cls-34, .cls-35, .cls-36, .cls-37, .cls-38, .cls-39, .cls-40, .cls-41, .cls-42, .cls-43, .cls-44, .cls-45, .cls-46, .cls-47, .cls-48, .cls-49, .cls-50, .cls-51, .cls-52, .cls-53, .cls-54, .cls-55, .cls-56, .cls-57, .cls-58, .cls-59, .cls-60, .cls-61, .cls-62, .cls-63, .cls-64, .cls-65, .cls-66, .cls-67, .cls-68, .cls-69, .cls-70, .cls-71, .cls-72, .cls-73 {
        isolation: isolate;
      }

      .cls-1, .cls-2, .cls-3, .cls-4, .cls-5, .cls-6, .cls-7, .cls-8, .cls-9, .cls-10, .cls-11, .cls-12, .cls-14, .cls-15, .cls-16, .cls-17, .cls-18, .cls-19, .cls-20, .cls-21, .cls-23, .cls-24, .cls-26, .cls-27, .cls-28, .cls-29, .cls-30, .cls-31, .cls-32, .cls-33, .cls-34, .cls-35, .cls-36, .cls-37, .cls-38, .cls-39, .cls-40, .cls-41, .cls-42, .cls-43, .cls-44, .cls-45, .cls-46, .cls-47, .cls-48, .cls-74, .cls-49, .cls-50, .cls-51, .cls-52, .cls-53, .cls-54, .cls-55, .cls-56, .cls-57, .cls-58, .cls-59, .cls-60, .cls-61, .cls-62, .cls-63, .cls-65, .cls-67, .cls-68, .cls-69, .cls-70, .cls-72, .cls-73 {
        fill: none;
      }

      .cls-1, .cls-2, .cls-3, .cls-4, .cls-5, .cls-6, .cls-7, .cls-8, .cls-9, .cls-10, .cls-11, .cls-12, .cls-14, .cls-15, .cls-16, .cls-17, .cls-18, .cls-19, .cls-20, .cls-21, .cls-23, .cls-24, .cls-26, .cls-27, .cls-28, .cls-29, .cls-30, .cls-31, .cls-32, .cls-34, .cls-35, .cls-36, .cls-37, .cls-38, .cls-39, .cls-40, .cls-41, .cls-42, .cls-43, .cls-44, .cls-45, .cls-46, .cls-47, .cls-48, .cls-49, .cls-50, .cls-51, .cls-52, .cls-53, .cls-55, .cls-56, .cls-57, .cls-58, .cls-59, .cls-60, .cls-61, .cls-62, .cls-63, .cls-65, .cls-67, .cls-68, .cls-69, .cls-70, .cls-72, .cls-73 {
        mix-blend-mode: multiply;
        stroke-miterlimit: 2;
      }

      .cls-1, .cls-5, .cls-9, .cls-21, .cls-28, .cls-44, .cls-55, .cls-72 {
        stroke: #a632ed;
      }

      .cls-2, .cls-9, .cls-24, .cls-30, .cls-45, .cls-73 {
        stroke-width: 3.6px;
      }

      .cls-2, .cls-12, .cls-27, .cls-29, .cls-43, .cls-63 {
        stroke: #ed3e89;
      }

      .cls-3 {
        stroke-width: 21.9px;
      }

      .cls-3, .cls-4, .cls-16, .cls-17, .cls-18, .cls-26, .cls-30, .cls-31, .cls-32, .cls-38, .cls-41, .cls-46, .cls-49, .cls-51, .cls-52, .cls-61, .cls-68 {
        stroke: #009be8;
      }

      .cls-4, .cls-8, .cls-28, .cls-57, .cls-62, .cls-63 {
        stroke-width: 1.2px;
      }

      .cls-5, .cls-10, .cls-27, .cls-36, .cls-48, .cls-52 {
        stroke-width: 6.1px;
      }

      .cls-6, .cls-7, .cls-14, .cls-20, .cls-34, .cls-37, .cls-45, .cls-47, .cls-48, .cls-50, .cls-59, .cls-62, .cls-67, .cls-70 {
        stroke: #fc4720;
      }

      .cls-6, .cls-61 {
        stroke-width: 18.2px;
      }

      .cls-7, .cls-39, .cls-56 {
        stroke-width: 9.7px;
      }

      .cls-8, .cls-15, .cls-24, .cls-35, .cls-36, .cls-42, .cls-56, .cls-60 {
        stroke: #f8898f;
      }

      .cls-10, .cls-11, .cls-19, .cls-23, .cls-39, .cls-40, .cls-53, .cls-57, .cls-58, .cls-65, .cls-69, .cls-73 {
        stroke: #5347dd;
      }

      .cls-11, .cls-35, .cls-49, .cls-50 {
        stroke-width: 7.3px;
      }

      .cls-12, .cls-15, .cls-21, .cls-26, .cls-69, .cls-70 {
        stroke-width: 4.9px;
      }

      .cls-13, .cls-22, .cls-66 {
        fill: #fff;
      }

      .cls-13, .cls-25, .cls-33, .cls-54, .cls-66 {
        font-family: HelveticaNeue-Medium, 'Helvetica Neue';
        font-size: 8px;
        font-weight: 500;
      }

      .cls-14, .cls-40, .cls-43, .cls-55, .cls-60, .cls-68 {
        stroke-width: 2.4px;
      }

      .cls-16, .cls-44, .cls-53, .cls-67 {
        stroke-width: 10.9px;
      }

      .cls-17 {
        stroke-width: 74.1px;
      }

      .cls-18 {
        stroke-width: 30.4px;
      }

      .cls-19, .cls-20, .cls-42, .cls-72 {
        stroke-width: 8.5px;
      }

      .cls-22 {
        font-family: HelveticaNeue-Bold, 'Helvetica Neue';
        font-size: 12px;
        font-weight: 700;
      }

      .cls-23, .cls-34, .cls-41 {
        stroke-width: 15.8px;
      }

      .cls-25, .cls-75, .cls-71 {
        fill: #000;
      }

      .cls-29 {
        stroke-width: 27.9px;
      }

      .cls-31 {
        stroke-width: 14.6px;
      }

      .cls-32 {
        stroke-width: 29.2px;
      }

      .cls-75, .cls-71 {
        stroke-width: 0px;
      }

      .cls-33, .cls-74, .cls-54, .cls-66 {
        stroke: #000;
      }

      .cls-33, .cls-54, .cls-66 {
        stroke-width: 2px;
      }

      .cls-33, .cls-66 {
        stroke-linejoin: round;
      }

      .cls-37 {
        stroke-width: 54.7px;
      }

      .cls-38 {
        stroke-width: 17px;
      }

      .cls-46 {
        stroke-width: 32.8px;
      }

      .cls-47, .cls-51 {
        stroke-width: 12.2px;
      }

      .cls-74, .cls-54 {
        stroke-miterlimit: 10;
      }

      .cls-58, .cls-59 {
        stroke-width: 13.4px;
      }

      .cls-65 {
        stroke-width: 53.5px;
      }

      .cls-71 {
        opacity: .7;
      }
    </style>
  </defs>
  <g class="cls-64">
    <g id="Layer_2" data-name="Layer 2">
      <g id="Layer_1" data-name="Layer 1">
        <g>
          <path class="cls-63" d="M463.7,37.6c.2,212-321.5,212.9-321.3,424.9"/>
          <path class="cls-27" d="M469.8,37.6c.2,212-215.2,212.6-215,424.7"/>
          <path class="cls-43" d="M465.5,37.6c.2,212-283.5,212.7-283.4,424.9"/>
          <path class="cls-2" d="M461.3,37.6c.2,212-376.4,213.1-376.3,425.1"/>
          <path class="cls-29" d="M486.8,37.6c.1,141.3.2,282.7.3,424.2"/>
          <path class="cls-59" d="M98.3,38.5c.2,212,8.7,212,8.8,424.2"/>
          <path class="cls-48" d="M108,38.5c.2,212,50.3,212,50.4,424"/>
          <path class="cls-20" d="M115.3,38.5c.2,212,87,211.8,87.1,424"/>
          <path class="cls-6" d="M82.5,38.5c.2,212-43.9,212.2-43.7,424.4"/>
          <path class="cls-37" d="M146.9,38.3c.2,212,171.1,211.7,171.3,423.9"/>
          <path class="cls-61" d="M322.5,38c.2,212-190,212.6-189.8,424.6"/>
          <path class="cls-32" d="M360.7,38c.2,212-123.8,212.4-123.6,424.6"/>
          <path class="cls-31" d="M338.9,38c.2,212-165.4,212.6-165.2,424.6"/>
          <path class="cls-3" d="M302.4,38c.2,212-230.3,212.7-230.2,424.7"/>
          <path class="cls-17" d="M412.4,37.8c.2,212,23.5,212,23.7,424.2"/>
          <path class="cls-9" d="M31.2,38.7c.2,212,67.3,212,67.4,424"/>
          <path class="cls-55" d="M34.2,38.7c.2,212,119.8,211.8,120,423.9"/>
          <path class="cls-21" d="M37.9,38.7c.2,212,157.7,211.7,157.9,423.9"/>
          <path class="cls-9" d="M27.6,38.7l.3,424.2"/>
          <path class="cls-1" d="M51.9,38.7c.2,212,227.3,211.5,227.4,423.7"/>
          <path class="cls-39" d="M202.5,38.3c.2,212-84,212.4-83.8,424.4"/>
          <path class="cls-23" d="M220.1,38.2c.2,212-5.6,212.2-5.5,424.2"/>
          <path class="cls-69" d="M209.8,38.3c.2,212-46,212.2-45.9,424.4"/>
          <path class="cls-58" d="M190.9,38.3c.2,212-136.5,212.4-136.3,424.6"/>
          <path class="cls-65" d="M254.7,38.2c.2,212,117.4,211.8,117.5,423.9"/>
          <path class="cls-28" d="M142.4,467c.2,212,298.7,211.3,298.9,423.5"/>
          <path class="cls-73" d="M240.2,466.7c.2,212,101,211.8,101.2,424"/>
          <path class="cls-14" d="M174.9,466.8c.2,212,140.2,211.8,140.3,423.9"/>
          <path class="cls-57" d="M197.6,466.8c.2,212-153.8,212.6-153.6,424.6"/>
          <path class="cls-57" d="M257.2,466.7c.2,212,207,211.7,207.2,423.7"/>
          <path class="cls-60" d="M85.6,467c.2,212,342.7,211.3,342.9,423.3"/>
          <path class="cls-8" d="M59.5,467.2c.2,212,124.7,211.8,124.8,423.9"/>
          <path class="cls-52" d="M286.6,466.7c.2,212-223.3,212.6-223.2,424.7"/>
          <path class="cls-16" d="M396,466.3c.2,212-146.2,212.4-146,424.6"/>
          <path class="cls-52" d="M498,466.1c.1,141.3.2,282.7.3,424.2"/>
          <path class="cls-30" d="M462.8,466.1c.2,212-58.4,212.2-58.3,424.4"/>
          <path class="cls-4" d="M342.5,466.5c.2,212-180.5,212.6-180.4,424.6"/>
          <path class="cls-9" d="M107.1,467c.2,212-12,212.2-11.8,424.2"/>
          <path class="cls-55" d="M112.6,467c.2,212,75.8,211.8,75.9,424"/>
          <path class="cls-55" d="M129.6,467c.2,212,164.8,211.7,164.9,423.9"/>
          <path class="cls-9" d="M101.1,467c.2,212-63.3,212.2-63.1,424.4"/>
          <path class="cls-28" d="M141.2,467c.2,212,298.7,211.3,298.9,423.5"/>
          <path class="cls-45" d="M171.8,466.8c.2,212,140.2,211.8,140.3,423.9"/>
          <path class="cls-62" d="M182.8,466.8c.2,212,265.6,211.5,265.8,423.5"/>
          <path class="cls-62" d="M153.6,466.8c.2,212-56,212.2-55.9,424.4"/>
          <path class="cls-40" d="M255.3,466.7c.2,212,207,211.7,207.2,423.7"/>
          <path class="cls-40" d="M237.1,466.7c.2,212,101,211.8,101.2,424"/>
          <path class="cls-73" d="M207.3,466.8c.2,212-100,212.4-99.9,424.4"/>
          <path class="cls-24" d="M71.6,467c.2,212,205.1,211.7,205.3,423.7"/>
          <path class="cls-56" d="M43.1,467.2c.2,212,43,212,43.1,424"/>
          <path class="cls-8" d="M58.3,467.2c.2,212,124.7,211.8,124.8,423.9"/>
          <path class="cls-60" d="M32.1,467.2c.1,141.3.2,282.7.3,424.2"/>
          <path class="cls-8" d="M83.8,467c.2,212,342.7,211.3,342.9,423.3"/>
          <path class="cls-68" d="M282.4,466.7c.2,212-223.3,212.6-223.2,424.7"/>
          <path class="cls-52" d="M457.9,466.1c.2,212-58.4,212.2-58.3,424.4"/>
          <path class="cls-26" d="M492.6,466.1c.1,141.3.2,282.7.3,424.2"/>
          <path class="cls-18" d="M326.7,466.5c.2,212-180.5,212.6-180.4,424.6"/>
          <path class="cls-16" d="M385,466.3c.2,212-146.2,212.4-146,424.6"/>
          <path class="cls-9" d="M138.7,467c.2,212,298.7,211.3,298.9,423.5"/>
          <path class="cls-28" d="M110.8,467c.2,212,75.8,211.8,75.9,424"/>
          <path class="cls-44" d="M122.9,467c.2,212,164.8,211.7,164.9,423.9"/>
          <path class="cls-28" d="M98.6,467c.2,212-63.3,212.2-63.1,424.4"/>
          <path class="cls-23" d="M228,466.7c.2,212,101,211.8,101.2,424"/>
          <path class="cls-28" d="M104.7,467c.2,212-12,212.2-11.8,424.2"/>
          <path class="cls-67" d="M164.5,466.8c.2,212,140.2,211.8,140.3,423.9"/>
          <path class="cls-45" d="M180.3,466.8c.2,212,265.6,211.5,265.8,423.5"/>
          <path class="cls-40" d="M195.8,466.8c.2,212-153.8,212.6-153.6,424.6"/>
          <path class="cls-69" d="M212.8,466.8c.2,212-18.3,212.2-18.2,424.2"/>
          <path class="cls-73" d="M252.3,466.7c.2,212,207,211.7,207.2,423.7"/>
          <path class="cls-40" d="M204.3,466.8c.2,212-100,212.4-99.9,424.4"/>
          <path class="cls-24" d="M29.1,467.2c.1,141.3.2,282.7.3,424.2"/>
          <path class="cls-36" d="M80.1,467c.2,212,342.7,211.3,342.9,423.3"/>
          <path class="cls-36" d="M54.6,467.2c.2,212,124.7,211.8,124.8,423.9"/>
          <path class="cls-15" d="M67.4,467.2c.2,212,205.1,211.7,205.3,423.7"/>
          <path class="cls-8" d="M37.6,467.2c.2,212,43,212,43.1,424"/>
          <path class="cls-31" d="M372.3,466.3c.2,212-146.2,212.4-146,424.6"/>
          <path class="cls-26" d="M309.1,466.5c.2,212-180.5,212.6-180.4,424.6"/>
          <path class="cls-31" d="M482.8,466.1c.1,141.3.2,282.7.3,424.2"/>
          <path class="cls-49" d="M277.5,466.7c.2,212-223.3,212.6-223.2,424.7"/>
          <path class="cls-46" d="M438.5,466.3c.2,212-58.4,212.2-58.3,424.4"/>
          <path class="cls-28" d="M97.4,467c.2,212-63.3,212.2-63.1,424.4"/>
          <path class="cls-28" d="M103.5,467c.2,212-12,212.2-11.8,424.2"/>
          <path class="cls-28" d="M109.6,467c.2,212,75.8,211.8,75.9,424"/>
          <path class="cls-14" d="M157.9,466.8c.2,212,140.2,211.8,140.3,423.9"/>
          <path class="cls-69" d="M200.7,466.8c.2,212-100,212.4-99.9,424.4"/>
          <path class="cls-24" d="M35.2,467.2c.2,212,43,212,43.1,424"/>
          <path class="cls-51" d="M300.6,466.5c.2,212-180.5,212.6-180.4,424.6"/>
          <path class="cls-26" d="M362.5,466.5c.2,212-146.2,212.4-146,424.6"/>
          <path class="cls-26" d="M419.7,466.3c.2,212-58.4,212.2-58.3,424.4"/>
          <path class="cls-4" d="M273.2,466.7c.2,212-223.3,212.6-223.2,424.7"/>
          <path class="cls-5" d="M133.9,467c.2,212,298.7,211.3,298.9,423.5"/>
          <path class="cls-9" d="M115.7,467c.2,212,164.8,211.7,164.9,423.9"/>
          <path class="cls-69" d="M217.7,466.7c.2,212,101,211.8,101.2,424"/>
          <path class="cls-14" d="M177.3,466.8c.2,212,265.6,211.5,265.8,423.5"/>
          <path class="cls-62" d="M154.8,466.8c.2,212,35.4,212,35.6,424"/>
          <path class="cls-62" d="M156,466.8c.2,212,140.2,211.8,140.3,423.9"/>
          <path class="cls-19" d="M246.2,466.7c.2,212,207,211.7,207.2,423.7"/>
          <path class="cls-57" d="M194,466.8c.2,212-153.8,212.6-153.6,424.6"/>
          <path class="cls-57" d="M209.8,466.8c.2,212-18.3,212.2-18.2,424.2"/>
          <path class="cls-24" d="M75.3,467c.2,212,342.7,211.3,342.9,423.3"/>
          <path class="cls-24" d="M49.8,467.2c.2,212,124.7,211.8,124.8,423.9"/>
          <path class="cls-15" d="M62.5,467.2c.2,212,205.1,211.7,205.3,423.7"/>
          <path class="cls-8" d="M26.7,467.2c.1,141.3.2,282.7.3,424.2"/>
          <path class="cls-26" d="M270.2,466.7c.2,212-223.3,212.6-223.2,424.7"/>
          <path class="cls-41" d="M409.3,466.3c.2,212-58.4,212.2-58.3,424.4"/>
          <path class="cls-26" d="M292.1,466.5c.2,212-180.5,212.6-180.4,424.6"/>
          <path class="cls-38" d="M351.6,466.5c.2,212-146.2,212.4-146,424.6"/>
          <path class="cls-16" d="M470.1,466.1c.1,141.3.2,282.7.3,424.2"/>
          <path class="cls-57" d="M500.8,894.6c.1,141.3.2,282.7.3,424.2"/>
          <path class="cls-14" d="M385.7,894.8c.2,212-47.2,212.2-47.1,424.4"/>
          <path class="cls-14" d="M383.2,894.8c.2,212-47.2,212.2-47.1,424.4"/>
          <path class="cls-62" d="M302.4,895c.2,212-182,212.6-181.8,424.6"/>
          <path class="cls-63" d="M33.1,895.7c.2,212,40,212,40.1,424"/>
          <path class="cls-57" d="M499.6,894.6c.1,141.3.2,282.7.3,424.2"/>
          <path class="cls-40" d="M497.7,894.6c.1,141.3.2,282.7.3,424.2"/>
          <path class="cls-28" d="M254.8,895.1c.2,212,164.8,211.7,164.9,423.9"/>
          <path class="cls-43" d="M60.4,895.7c.2,212,102.2,211.8,102.4,424"/>
          <path class="cls-5" d="M222,895.1c.2,212,34.5,212,34.6,424"/>
          <path class="cls-73" d="M494.7,894.6l.3,424.2"/>
          <path class="cls-55" d="M253,895.1c.2,212,164.8,211.7,164.9,423.9"/>
          <path class="cls-63" d="M65.9,895.7c.2,212,297.8,211.3,297.9,423.5"/>
          <path class="cls-45" d="M380.2,894.8c.2,212-47.2,212.2-47.1,424.4"/>
          <path class="cls-8" d="M162.1,895.3c.2,212,227,211.5,227.2,423.7"/>
          <path class="cls-63" d="M31.9,895.7c.2,212,40,212,40.1,424"/>
          <path class="cls-57" d="M424.2,894.8c.2,212-298.9,212.7-298.8,424.9"/>
          <path class="cls-57" d="M427.9,894.8c.2,212-240.3,212.7-240.2,424.7"/>
          <path class="cls-63" d="M62.2,895.7c.2,212,156.5,211.7,156.7,423.9"/>
          <path class="cls-55" d="M197.1,895.3c.2,212-17.4,212.2-17.3,424.2"/>
          <path class="cls-8" d="M118.4,895.5c.2,212-40.5,212.2-40.3,424.2"/>
          <path class="cls-28" d="M177,895.3c.2,212-127.3,212.4-127.2,424.6"/>
          <path class="cls-28" d="M251.1,895.1c.2,212,164.8,211.7,164.9,423.9"/>
          <path class="cls-62" d="M377.8,894.8c.2,212-47.2,212.2-47.1,424.4"/>
          <path class="cls-8" d="M113.5,895.5c.2,212-68.7,212.2-68.6,424.4"/>
          <path class="cls-2" d="M57.4,895.7c.2,212,102.2,211.8,102.4,424"/>
          <path class="cls-57" d="M492.3,894.6c.1,141.3.2,282.7.3,424.2"/>
          <path class="cls-62" d="M301.2,895c.2,212-182,212.6-181.8,424.6"/>
          <path class="cls-8" d="M160.9,895.3c.2,212,227,211.5,227.2,423.7"/>
          <path class="cls-62" d="M300,895c.2,212-182,212.6-181.8,424.6"/>
          <path class="cls-57" d="M491.1,894.6c.1,141.3.2,282.7.3,424.2"/>
          <path class="cls-14" d="M405.1,894.8c.2,212,33.2,212,33.4,424"/>
          <path class="cls-8" d="M159.7,895.3c.2,212,227,211.5,227.2,423.7"/>
          <path class="cls-40" d="M489.2,894.6c.1,141.3.2,282.7.3,424.2"/>
          <path class="cls-62" d="M376.6,894.8c.2,212-47.2,212.2-47.1,424.4"/>
          <path class="cls-62" d="M403.3,894.8c.2,212,33.2,212,33.4,424"/>
          <path class="cls-24" d="M111.1,895.5c.2,212-68.7,212.2-68.6,424.4"/>
          <path class="cls-14" d="M374.7,894.8c.2,212-47.2,212.2-47.1,424.4"/>
          <path class="cls-62" d="M298.8,895c.2,212-182,212.6-181.8,424.6"/>
          <path class="cls-15" d="M156.7,895.3c.2,212,227,211.5,227.2,423.7"/>
          <path class="cls-28" d="M218.3,895.3c.2,212,34.5,212,34.6,424"/>
          <path class="cls-63" d="M64.7,895.7c.2,212,297.8,211.3,297.9,423.5"/>
          <path class="cls-63" d="M54.9,895.7c.2,212,102.2,211.8,102.4,424"/>
          <path class="cls-8" d="M108.7,895.5c.2,212-68.7,212.2-68.6,424.4"/>
          <path class="cls-24" d="M135.4,895.5c.2,212,95.5,211.8,95.7,424"/>
          <path class="cls-57" d="M487.4,894.6c.1,141.3.2,282.7.3,424.2"/>
          <path class="cls-63" d="M27,895.7c.2,212-19.8,212.2-19.7,424.2"/>
          <path class="cls-70" d="M371.1,894.8c.2,212-47.2,212.2-47.1,424.4"/>
          <path class="cls-57" d="M426.7,894.8c.2,212-240.3,212.7-240.2,424.7"/>
          <path class="cls-36" d="M130.6,895.5c.2,212,95.5,211.8,95.7,424"/>
          <path class="cls-15" d="M121.4,895.5c.2,212,44.8,212,45,424"/>
          <path class="cls-35" d="M150.6,895.3c.2,212,227,211.5,227.2,423.7"/>
          <path class="cls-56" d="M103.2,895.5c.2,212-68.7,212.2-68.6,424.4"/>
          <path class="cls-60" d="M116.6,895.5c.2,212-40.5,212.2-40.3,424.2"/>
          <path class="cls-40" d="M485.6,894.6c.1,141.3.2,282.7.3,424.2"/>
          <path class="cls-9" d="M248.7,895.1c.2,212,164.8,211.7,164.9,423.9"/>
          <path class="cls-63" d="M53.7,895.7c.2,212,102.2,211.8,102.4,424"/>
          <path class="cls-55" d="M216.5,895.3c.2,212,34.5,212,34.6,424"/>
          <path class="cls-55" d="M184.9,895.3c.2,212-99.1,212.4-98.9,424.4"/>
          <path class="cls-62" d="M402.1,894.8c.2,212,33.2,212,33.4,424"/>
          <path class="cls-55" d="M175.2,895.3c.2,212-127.3,212.4-127.2,424.6"/>
          <path class="cls-57" d="M419.4,894.8c.2,212-362.4,212.9-362.2,425.1"/>
          <path class="cls-73" d="M482.6,894.6c.1,141.3.2,282.7.3,424.2"/>
          <path class="cls-28" d="M246.3,895.1c.2,212,164.8,211.7,164.9,423.9"/>
          <path class="cls-48" d="M365.6,895c.2,212-47.2,212.2-47.1,424.4"/>
          <path class="cls-63" d="M52.5,895.7c.2,212,102.2,211.8,102.4,424"/>
          <path class="cls-14" d="M400.3,894.8c.2,212,33.2,212,33.4,424"/>
          <path class="cls-8" d="M126.9,895.5c.2,212,95.5,211.8,95.7,424"/>
          <path class="cls-14" d="M297,895c.2,212-182,212.6-181.8,424.6"/>
          <path class="cls-62" d="M268.4,895.1c.2,212-215.1,212.6-214.9,424.7"/>
          <path class="cls-62" d="M398.4,894.8c.2,212,33.2,212,33.4,424"/>
          <path class="cls-50" d="M358.9,895c.2,212-47.2,212.2-47.1,424.4"/>
          <path class="cls-62" d="M397.2,894.8c.2,212,33.2,212,33.4,424"/>
          <path class="cls-57" d="M480.1,894.6l.3,424.2"/>
          <path class="cls-14" d="M294.5,895c.2,212-182,212.6-181.8,424.6"/>
          <path class="cls-57" d="M425.4,894.8c.2,212-240.3,212.7-240.2,424.7"/>
          <path class="cls-57" d="M438.8,894.8c.2,212-88.8,212.4-88.7,424.4"/>
          <path class="cls-7" d="M350.4,895c.2,212-47.2,212.2-47.1,424.4"/>
          <path class="cls-43" d="M50.7,895.7c.2,212,102.2,211.8,102.4,424"/>
          <path class="cls-28" d="M195.2,895.3c.2,212-17.4,212.2-17.3,424.2"/>
          <path class="cls-45" d="M291.5,895.1c.2,212-182,212.6-181.8,424.6"/>
          <path class="cls-55" d="M244.4,895.1c.2,212,164.8,211.7,164.9,423.9"/>
          <path class="cls-28" d="M214.7,895.3c.2,212,34.5,212,34.6,424"/>
          <path class="cls-57" d="M437.6,894.8c.2,212-88.8,212.4-88.7,424.4"/>
          <path class="cls-57" d="M418.2,894.8c.2,212-362.4,212.9-362.2,425.1"/>
          <path class="cls-8" d="M146.4,895.3c.2,212,227,211.5,227.2,423.7"/>
          <path class="cls-8" d="M125.7,895.5c.2,212,95.5,211.8,95.7,424"/>
          <path class="cls-57" d="M478.9,894.6l.3,424.2"/>
          <path class="cls-63" d="M63.4,895.7c.2,212,297.8,211.3,297.9,423.5"/>
          <path class="cls-57" d="M436.4,894.8c.2,212-88.8,212.4-88.7,424.4"/>
          <path class="cls-57" d="M423,894.8c.2,212-298.9,212.7-298.8,424.9"/>
          <path class="cls-9" d="M241.4,895.1c.2,212,164.8,211.7,164.9,423.9"/>
          <path class="cls-73" d="M476.5,894.6l.3,424.2"/>
          <path class="cls-70" d="M343.1,895c.2,212-47.2,212.2-47.1,424.4"/>
          <path class="cls-8" d="M97.8,895.5c.2,212-68.7,212.2-68.6,424.4"/>
          <path class="cls-43" d="M48.3,895.7c.2,212,102.2,211.8,102.4,424"/>
          <path class="cls-55" d="M193.4,895.3c.2,212-17.4,212.2-17.3,424.2"/>
          <path class="cls-21" d="M211.6,895.3c.2,212,34.5,212,34.6,424"/>
          <path class="cls-8" d="M145.1,895.3c.2,212,227,211.5,227.2,423.7"/>
          <path class="cls-28" d="M239,895.1c.2,212,164.8,211.7,164.9,423.9"/>
          <path class="cls-53" d="M469.2,894.6c.1,141.3.2,282.7.3,424.2"/>
          <path class="cls-57" d="M416.9,894.8c.2,212-362.4,212.9-362.2,425.1"/>
          <path class="cls-12" d="M44.6,895.7c.2,212,102.2,211.8,102.4,424"/>
          <path class="cls-34" d="M332.8,895c.2,212-47.2,212.2-47.1,424.4"/>
          <path class="cls-21" d="M189.8,895.3c.2,212-17.4,212.2-17.3,424.2"/>
          <path class="cls-47" d="M283.6,895.1c.2,212-182,212.6-181.8,424.6"/>
          <path class="cls-14" d="M395.4,894.8c.2,212,33.2,212,33.4,424"/>
          <path class="cls-14" d="M305.5,895c.2,212-122.2,212.4-122,424.6"/>
          <path class="cls-40" d="M434.6,894.8c.2,212-88.8,212.4-88.7,424.4"/>
          <path class="cls-24" d="M95.3,895.5c.2,212-68.7,212.2-68.6,424.4"/>
          <path class="cls-9" d="M181.9,895.3c.2,212-99.1,212.4-98.9,424.4"/>
          <path class="cls-43" d="M30,895.7c.2,212,40,212,40.1,424"/>
          <path class="cls-63" d="M28.2,895.7c.2,212,40,212,40.1,424"/>
          <path class="cls-8" d="M92.9,895.5c.2,212-68.7,212.2-68.6,424.4"/>
          <path class="cls-28" d="M208.6,895.3c.2,212,34.5,212,34.6,424"/>
          <path class="cls-62" d="M324.3,895c.2,212-47.2,212.2-47.1,424.4"/>
          <path class="cls-62" d="M276.9,895.1c.2,212-182,212.6-181.8,424.6"/>
          <path class="cls-24" d="M142.7,895.5c.2,212,227,211.5,227.2,423.7"/>
          <path class="cls-8" d="M91.7,895.5c.2,212-68.7,212.2-68.6,424.4"/>
          <path class="cls-24" d="M89.2,895.5c.2,212-68.7,212.2-68.6,424.4"/>
          <path class="cls-42" d="M83.2,895.5c.2,212-68.7,212.2-68.6,424.4"/>
          <path class="cls-8" d="M124.5,895.5c.2,212,95.5,211.8,95.7,424"/>
          <path class="cls-9" d="M206.2,895.3c.2,212,34.5,212,34.6,424"/>
          <path class="cls-8" d="M140.3,895.5c.2,212,227,211.5,227.2,423.7"/>
          <path class="cls-8" d="M114.8,895.5c.2,212-40.5,212.2-40.3,424.2"/>
          <path class="cls-45" d="M392.4,894.8c.2,212,33.2,212,33.4,424"/>
          <path class="cls-62" d="M275.7,895.1c.2,212-182,212.6-181.8,424.6"/>
          <path class="cls-28" d="M237.8,895.1c.2,212,164.8,211.7,164.9,423.9"/>
          <path class="cls-63" d="M41.6,895.7c.2,212,102.2,211.8,102.4,424"/>
          <path class="cls-69" d="M461.3,894.6c.1,141.3.2,282.7.3,424.2"/>
          <path class="cls-14" d="M273.9,895.1c.2,212-182,212.6-181.8,424.6"/>
          <path class="cls-57" d="M432.7,894.8c.2,212-88.8,212.4-88.7,424.4"/>
          <path class="cls-62" d="M323.1,895c.2,212-47.2,212.2-47.1,424.4"/>
          <path class="cls-14" d="M389.3,894.8c.2,212,33.2,212,33.4,424"/>
          <path class="cls-40" d="M457.6,894.6c.1,141.3.2,282.7.3,424.2"/>
          <path class="cls-28" d="M203.7,895.3c.2,212,34.5,212,34.6,424"/>
          <path class="cls-62" d="M321.9,895c.2,212-47.2,212.2-47.1,424.4"/>
          <path class="cls-10" d="M453.4,894.6c.1,141.3.2,282.7.3,424.2"/>
          <path class="cls-63" d="M40.4,895.7c.2,212,102.2,211.8,102.4,424"/>
          <path class="cls-40" d="M430.9,894.8c.2,212-88.8,212.4-88.7,424.4"/>
          <path class="cls-62" d="M320.7,895c.2,212-47.2,212.2-47.1,424.4"/>
          <path class="cls-28" d="M236.5,895.1c.2,212,164.8,211.7,164.9,423.9"/>
          <path class="cls-62" d="M272.1,895.1c.2,212-182,212.6-181.8,424.6"/>
          <path class="cls-73" d="M448.5,894.6c.1,141.3.2,282.7.3,424.2"/>
          <path class="cls-55" d="M234.7,895.1c.2,212,164.8,211.7,164.9,423.9"/>
          <path class="cls-70" d="M317.6,895c.2,212-47.2,212.2-47.1,424.4"/>
          <path class="cls-63" d="M39.1,895.7c.2,212,102.2,211.8,102.4,424"/>
          <path class="cls-28" d="M202.5,895.3c.2,212,34.5,212,34.6,424"/>
          <path class="cls-12" d="M36.1,895.7c.2,212,102.2,211.8,102.4,424"/>
          <path class="cls-20" d="M310.9,895c.2,212-47.2,212.2-47.1,424.4"/>
          <path class="cls-62" d="M387.5,894.8c.2,212,33.2,212,33.4,424"/>
          <path class="cls-60" d="M138.5,895.5c.2,212,227,211.5,227.2,423.7"/>
          <path class="cls-72" d="M229.3,895.1c.2,212,164.8,211.7,164.9,423.9"/>
          <path class="cls-11" d="M443.1,894.6c.1,141.3.2,282.7.3,424.2"/>
          <path class="cls-14" d="M266.6,895.1c.2,212-215.1,212.6-214.9,424.7"/>
          <path class="cls-9" d="M200.1,895.3c.2,212,34.5,212,34.6,424"/>
          <path class="cls-14" d="M270.2,895.1c.2,212-182,212.6-181.8,424.6"/>
          <path class="cls-40" d="M421.2,894.8c.2,212-298.9,212.7-298.8,424.9"/>
          <path class="cls-60" d="M77.7,895.5c.2,212-68.7,212.2-68.6,424.4"/>
          <path class="cls-28" d="M173.4,895.3c.2,212-127.3,212.4-127.2,424.6"/>
          <path class="cls-55" d="M178.8,895.3c.2,212-99.1,212.4-98.9,424.4"/>
          <path class="cls-57" d="M429.1,894.8c.2,212-88.8,212.4-88.7,424.4"/>
          <path class="cls-28" d="M186.7,895.3c.2,212-17.4,212.2-17.3,424.2"/>
          <path class="cls-62" d="M303.7,895c.2,212-122.2,212.4-122,424.6"/>
          <path class="cls-62" d="M501.1,1323.1c.1,141.3.2,282.7.3,424.2"/>
          <path class="cls-28" d="M350.2,1323.5c.2,212,98.9,211.8,99,424"/>
          <path class="cls-28" d="M304,1323.5c.2,212-19.3,212.2-19.1,424.2"/>
          <path class="cls-28" d="M242,1323.6c.2,212-163.8,212.6-163.6,424.6"/>
          <path class="cls-63" d="M106,1324c.2,212,24.7,212,24.9,424.2"/>
          <path class="cls-63" d="M104.8,1324c.2,212,24.7,212,24.9,424.2"/>
          <path class="cls-28" d="M259,1323.6c.2,212-106.4,212.4-106.2,424.4"/>
          <path class="cls-62" d="M499.9,1323.1c.1,141.3.2,282.7.3,424.2"/>
          <path class="cls-62" d="M448.9,1323.1c.2,212-111.9,212.4-111.7,424.4"/>
          <path class="cls-62" d="M498.7,1323.1c.1,141.3.2,282.7.3,424.2"/>
          <path class="cls-62" d="M497.5,1323.1c.1,141.3.2,282.7.3,424.2"/>
          <path class="cls-60" d="M164,1323.8c.2,212,75.1,211.8,75.3,424"/>
          <path class="cls-28" d="M302.8,1323.5c.2,212-19.3,212.2-19.1,424.2"/>
          <path class="cls-62" d="M447.6,1323.1c.2,212-111.9,212.4-111.7,424.4"/>
          <path class="cls-62" d="M446.4,1323.1c.2,212-111.9,212.4-111.7,424.4"/>
          <path class="cls-62" d="M445.2,1323.1c.2,212-111.9,212.4-111.7,424.4"/>
          <path class="cls-28" d="M301.6,1323.5c.2,212-19.3,212.2-19.1,424.2"/>
          <path class="cls-28" d="M225,1323.6c.2,212-196.9,212.6-196.7,424.7"/>
          <path class="cls-55" d="M240.2,1323.6c.2,212-163.8,212.6-163.6,424.6"/>
          <path class="cls-62" d="M379.6,1323.3c.2,212-286.8,212.7-286.6,424.9"/>
          <path class="cls-63" d="M103.6,1324c.2,212,24.7,212,24.9,424.2"/>
          <path class="cls-63" d="M102.4,1324c.2,212,24.7,212,24.9,424.2"/>
          <path class="cls-28" d="M257.8,1323.6c.2,212-106.4,212.4-106.2,424.4"/>
          <path class="cls-14" d="M495.6,1323.1c.1,141.3.2,282.7.3,424.2"/>
          <path class="cls-62" d="M493.8,1323.1c.1,141.3.2,282.7.3,424.2"/>
          <path class="cls-8" d="M187.7,1323.8c.2,212,215.1,211.7,215.3,423.7"/>
          <path class="cls-55" d="M348.3,1323.5c.2,212,98.9,211.8,99,424"/>
          <path class="cls-28" d="M346.5,1323.5c.2,212,98.9,211.8,99,424"/>
          <path class="cls-60" d="M185.9,1323.8c.2,212,215.1,211.7,215.3,423.7"/>
          <path class="cls-63" d="M117,1324c.2,212,104.6,211.8,104.7,424"/>
          <path class="cls-4" d="M32.8,1324.2c.2,212,177.7,211.7,177.9,423.9"/>
          <path class="cls-62" d="M444,1323.3c.2,212-111.9,212.4-111.7,424.4"/>
          <path class="cls-28" d="M300.3,1323.5c.2,212-19.3,212.2-19.1,424.2"/>
          <path class="cls-4" d="M31.6,1324.2c.2,212,177.7,211.7,177.9,423.9"/>
          <path class="cls-8" d="M162.2,1323.8c.2,212,75.1,211.8,75.3,424"/>
          <path class="cls-62" d="M365,1323.5c.2,212-332,212.9-331.9,424.9"/>
          <path class="cls-63" d="M76.9,1324c.2,212-58.4,212.2-58.3,424.4"/>
          <path class="cls-8" d="M146.4,1324c.2,212-10.8,212.2-10.6,424.2"/>
          <path class="cls-8" d="M141.5,1324c.2,212-80.3,212.4-80.2,424.4"/>
          <path class="cls-62" d="M492.6,1323.1c.1,141.3.2,282.7.3,424.2"/>
          <path class="cls-63" d="M115.7,1324c.2,212,104.6,211.8,104.7,424"/>
          <path class="cls-62" d="M442.8,1323.3c.2,212-111.9,212.4-111.7,424.4"/>
          <path class="cls-62" d="M441.6,1323.3c.2,212-111.9,212.4-111.7,424.4"/>
          <path class="cls-62" d="M378.4,1323.3c.2,212-286.8,212.7-286.6,424.9"/>
          <path class="cls-62" d="M491.4,1323.1c.1,141.3.2,282.7.3,424.2"/>
          <path class="cls-62" d="M440.3,1323.3c.2,212-111.9,212.4-111.7,424.4"/>
          <path class="cls-28" d="M238.4,1323.6c.2,212-163.8,212.6-163.6,424.6"/>
          <path class="cls-62" d="M396.6,1323.3c.2,212-227,212.7-226.8,424.7"/>
          <path class="cls-62" d="M395.4,1323.3c.2,212-227,212.7-226.8,424.7"/>
          <path class="cls-30" d="M55.9,1324.2c.2,212,314.1,211.3,314.3,423.5"/>
          <path class="cls-55" d="M298.5,1323.5c.2,212-19.3,212.2-19.1,424.2"/>
          <path class="cls-63" d="M114.5,1324c.2,212,104.6,211.8,104.7,424"/>
          <path class="cls-14" d="M438.5,1323.3c.2,212-111.9,212.4-111.7,424.4"/>
          <path class="cls-62" d="M363.8,1323.5c.2,212-332,212.9-331.9,424.9"/>
          <path class="cls-28" d="M256.6,1323.6c.2,212-106.4,212.4-106.2,424.4"/>
          <path class="cls-62" d="M490.2,1323.1c.1,141.3.2,282.7.3,424.2"/>
          <path class="cls-8" d="M184.1,1323.8c.2,212,215.1,211.7,215.3,423.7"/>
          <path class="cls-4" d="M53.5,1324.2c.2,212,314.1,211.3,314.3,423.5"/>
          <path class="cls-62" d="M489,1323.1c.1,141.3.2,282.7.3,424.2"/>
          <path class="cls-9" d="M344.1,1323.5c.2,212,98.9,211.8,99,424"/>
          <path class="cls-62" d="M487.7,1323.1c.1,141.3.2,282.7.3,424.2"/>
          <path class="cls-4" d="M30.4,1324.2c.2,212,177.7,211.7,177.9,423.9"/>
          <path class="cls-9" d="M295.5,1323.6c.2,212-19.3,212.2-19.1,424.2"/>
          <path class="cls-8" d="M161,1323.8c.2,212,75.1,211.8,75.3,424"/>
          <path class="cls-28" d="M293,1323.6c.2,212-19.3,212.2-19.1,424.2"/>
          <path class="cls-8" d="M159.8,1323.8c.2,212,75.1,211.8,75.3,424"/>
          <path class="cls-14" d="M436.1,1323.3c.2,212-111.9,212.4-111.7,424.4"/>
          <path class="cls-4" d="M29.2,1324.2c.2,212,177.7,211.7,177.9,423.9"/>
          <path class="cls-63" d="M113.3,1324c.2,212,104.6,211.8,104.7,424"/>
          <path class="cls-62" d="M434.3,1323.3c.2,212-111.9,212.4-111.7,424.4"/>
          <path class="cls-4" d="M21.9,1324.2c.2,212,88.2,211.8,88.4,424"/>
          <path class="cls-28" d="M223.8,1323.6c.2,212-196.9,212.6-196.7,424.7"/>
          <path class="cls-68" d="M7.9,1324.2c.1,141.3.2,282.7.3,424.2"/>
          <path class="cls-68" d="M14,1324.2c.2,212,34.5,212,34.6,424"/>
          <path class="cls-28" d="M237.2,1323.6c.2,212-163.8,212.6-163.6,424.6"/>
          <path class="cls-62" d="M377.2,1323.3c.2,212-286.8,212.7-286.6,424.9"/>
          <path class="cls-62" d="M376,1323.3c.2,212-286.8,212.7-286.6,424.9"/>
          <path class="cls-28" d="M235.9,1323.6c.2,212-163.8,212.6-163.6,424.6"/>
          <path class="cls-62" d="M394.2,1323.3c.2,212-227,212.7-226.8,424.7"/>
          <path class="cls-62" d="M393,1323.3c.2,212-227,212.7-226.8,424.7"/>
          <path class="cls-8" d="M145.2,1324c.2,212-10.8,212.2-10.6,424.2"/>
          <path class="cls-28" d="M255.4,1323.6c.2,212-106.4,212.4-106.2,424.4"/>
          <path class="cls-63" d="M101.2,1324c.2,212,24.7,212,24.9,424.2"/>
          <path class="cls-63" d="M99.9,1324c.2,212,24.7,212,24.9,424.2"/>
          <path class="cls-14" d="M485.9,1323.1c.1,141.3.2,282.7.3,424.2"/>
          <path class="cls-63" d="M125.5,1324c.2,212,254.3,211.5,254.5,423.7"/>
          <path class="cls-68" d="M51.7,1324.2c.2,212,314.1,211.3,314.3,423.5"/>
          <path class="cls-55" d="M341,1323.5c.2,212,98.9,211.8,99,424"/>
          <path class="cls-62" d="M484.1,1323.1c.1,141.3.2,282.7.3,424.2"/>
          <path class="cls-28" d="M339.2,1323.5c.2,212,98.9,211.8,99,424"/>
          <path class="cls-24" d="M181.6,1323.8c.2,212,215.1,211.7,215.3,423.7"/>
          <path class="cls-68" d="M49.2,1324.2c.2,212,314.1,211.3,314.3,423.5"/>
          <path class="cls-4" d="M47.4,1324.2c.2,212,314.1,211.3,314.3,423.5"/>
          <path class="cls-14" d="M482.3,1323.1c.1,141.3.2,282.7.3,424.2"/>
          <path class="cls-14" d="M432.5,1323.3c.2,212-111.9,212.4-111.7,424.4"/>
          <path class="cls-62" d="M430.6,1323.3c.2,212-111.9,212.4-111.7,424.4"/>
          <path class="cls-28" d="M291.8,1323.6c.2,212-19.3,212.2-19.1,424.2"/>
          <path class="cls-8" d="M158.5,1323.8c.2,212,75.1,211.8,75.3,424"/>
          <path class="cls-62" d="M429.4,1323.3c.2,212-111.9,212.4-111.7,424.4"/>
          <path class="cls-28" d="M290.6,1323.6c.2,212-19.3,212.2-19.1,424.2"/>
          <path class="cls-28" d="M222.6,1323.6c.2,212-196.9,212.6-196.7,424.7"/>
          <path class="cls-63" d="M75.6,1324c.2,212-58.4,212.2-58.3,424.4"/>
          <path class="cls-63" d="M85.4,1324c.2,212-27.8,212.2-27.6,424.2"/>
          <path class="cls-4" d="M12.2,1324.2c.2,212,34.5,212,34.6,424"/>
          <path class="cls-28" d="M234.7,1323.6c.2,212-163.8,212.6-163.6,424.6"/>
          <path class="cls-28" d="M254.2,1323.6c.2,212-106.4,212.4-106.2,424.4"/>
          <path class="cls-62" d="M391.7,1323.3c.2,212-227,212.7-226.8,424.7"/>
          <path class="cls-62" d="M480.4,1323.1c.1,141.3.2,282.7.3,424.2"/>
          <path class="cls-28" d="M338,1323.5c.2,212,98.9,211.8,99,424"/>
          <path class="cls-9" d="M288.2,1323.6c.2,212-19.3,212.2-19.1,424.2"/>
          <path class="cls-62" d="M428.2,1323.3c.2,212-111.9,212.4-111.7,424.4"/>
          <path class="cls-62" d="M427,1323.3c.2,212-111.9,212.4-111.7,424.4"/>
          <path class="cls-63" d="M84.1,1324c.2,212-27.8,212.2-27.6,424.2"/>
          <path class="cls-8" d="M179.2,1323.8c.2,212,215.1,211.7,215.3,423.7"/>
          <path class="cls-9" d="M335.6,1323.5c.2,212,98.9,211.8,99,424"/>
          <path class="cls-28" d="M333.1,1323.5c.2,212,98.9,211.8,99,424"/>
          <path class="cls-63" d="M124.2,1324c.2,212,254.3,211.5,254.5,423.7"/>
          <path class="cls-21" d="M283.9,1323.6c.2,212-19.3,212.2-19.1,424.2"/>
          <path class="cls-8" d="M157.3,1323.8c.2,212,75.1,211.8,75.3,424"/>
          <path class="cls-8" d="M156.1,1323.8c.2,212,75.1,211.8,75.3,424"/>
          <path class="cls-8" d="M144,1324c.2,212-10.8,212.2-10.6,424.2"/>
          <path class="cls-63" d="M74.4,1324c.2,212-58.4,212.2-58.3,424.4"/>
          <path class="cls-28" d="M221.4,1323.8c.2,212-196.9,212.6-196.7,424.7"/>
          <path class="cls-28" d="M233.5,1323.6c.2,212-163.8,212.6-163.6,424.6"/>
          <path class="cls-62" d="M390.5,1323.3c.2,212-227,212.7-226.8,424.7"/>
          <path class="cls-43" d="M98.1,1324c.2,212,24.7,212,24.9,424.2"/>
          <path class="cls-62" d="M389.3,1323.3c.2,212-227,212.7-226.8,424.7"/>
          <path class="cls-28" d="M252.9,1323.6c.2,212-106.4,212.4-106.2,424.4"/>
          <path class="cls-28" d="M251.7,1323.6c.2,212-106.4,212.4-106.2,424.4"/>
          <path class="cls-4" d="M20.7,1324.2c.2,212,88.2,211.8,88.4,424"/>
          <path class="cls-62" d="M479.2,1323.1c.1,141.3.2,282.7.3,424.2"/>
          <path class="cls-62" d="M478,1323.1c.1,141.3.2,282.7.3,424.2"/>
          <path class="cls-55" d="M331.3,1323.5c.2,212,98.9,211.8,99,424"/>
          <path class="cls-28" d="M329.5,1323.5c.2,212,98.9,211.8,99,424"/>
          <path class="cls-62" d="M476.8,1323.1c.1,141.3.2,282.7.3,424.2"/>
          <path class="cls-62" d="M425.8,1323.3c.2,212-111.9,212.4-111.7,424.4"/>
          <path class="cls-28" d="M280.9,1323.6c.2,212-19.3,212.2-19.1,424.2"/>
          <path class="cls-63" d="M112.1,1324c.2,212,104.6,211.8,104.7,424"/>
          <path class="cls-62" d="M424.6,1323.3c.2,212-111.9,212.4-111.7,424.4"/>
          <path class="cls-62" d="M423.3,1323.3c.2,212-111.9,212.4-111.7,424.4"/>
          <path class="cls-28" d="M279.7,1323.6c.2,212-19.3,212.2-19.1,424.2"/>
          <path class="cls-62" d="M374.7,1323.3c.2,212-286.8,212.7-286.6,424.9"/>
          <path class="cls-28" d="M250.5,1323.6c.2,212-106.4,212.4-106.2,424.4"/>
          <path class="cls-4" d="M46.2,1324.2c.2,212,314.1,211.3,314.3,423.5"/>
          <path class="cls-14" d="M475,1323.1c.1,141.3.2,282.7.3,424.2"/>
          <path class="cls-55" d="M327.7,1323.5c.2,212,98.9,211.8,99,424"/>
          <path class="cls-62" d="M473.2,1323.1c.1,141.3.2,282.7.3,424.2"/>
          <path class="cls-60" d="M177.4,1323.8c.2,212,215.1,211.7,215.3,423.7"/>
          <path class="cls-60" d="M175,1323.8c.2,212,215.1,211.7,215.3,423.7"/>
          <path class="cls-9" d="M277.2,1323.6c.2,212-19.3,212.2-19.1,424.2"/>
          <path class="cls-62" d="M422.1,1323.3c.2,212-111.9,212.4-111.7,424.4"/>
          <path class="cls-62" d="M420.9,1323.3c.2,212-111.9,212.4-111.7,424.4"/>
          <path class="cls-62" d="M419.7,1323.3c.2,212-111.9,212.4-111.7,424.4"/>
          <path class="cls-4" d="M28,1324.2c.2,212,177.7,211.7,177.9,423.9"/>
          <path class="cls-8" d="M154.9,1323.8c.2,212,75.1,211.8,75.3,424"/>
          <path class="cls-55" d="M274.2,1323.6c.2,212-19.3,212.2-19.1,424.2"/>
          <path class="cls-8" d="M153.7,1323.8c.2,212,75.1,211.8,75.3,424"/>
          <path class="cls-43" d="M110.3,1324c.2,212,104.6,211.8,104.7,424"/>
          <path class="cls-62" d="M418.5,1323.3c.2,212-111.9,212.4-111.7,424.4"/>
          <path class="cls-9" d="M248.1,1323.6c.2,212-106.4,212.4-106.2,424.4"/>
          <path class="cls-60" d="M137.3,1324c.2,212-117,212.4-116.9,424.6"/>
          <path class="cls-62" d="M362.6,1323.5c.2,212-332,212.9-331.9,424.9"/>
          <path class="cls-55" d="M219.5,1323.8c.2,212-196.9,212.6-196.7,424.7"/>
          <path class="cls-43" d="M72.6,1324c.2,212-58.4,212.2-58.3,424.4"/>
          <path class="cls-2" d="M81.7,1324c.2,212-27.8,212.2-27.6,424.2"/>
          <path class="cls-45" d="M372.3,1323.3c.2,212-286.8,212.7-286.6,424.9"/>
          <path class="cls-28" d="M232.3,1323.6c.2,212-163.8,212.6-163.6,424.6"/>
          <path class="cls-8" d="M140.3,1324c.2,212-80.3,212.4-80.2,424.4"/>
          <path class="cls-28" d="M231.1,1323.6c.2,212-163.8,212.6-163.6,424.6"/>
          <path class="cls-55" d="M229.3,1323.6c.2,212-163.8,212.6-163.6,424.6"/>
          <path class="cls-8" d="M139.1,1324c.2,212-80.3,212.4-80.2,424.4"/>
          <path class="cls-14" d="M387.5,1323.3c.2,212-227,212.7-226.8,424.7"/>
          <path class="cls-4" d="M19.5,1324.2c.2,212,88.2,211.8,88.4,424"/>
          <path class="cls-2" d="M95.1,1324c.2,212,24.7,212,24.9,424.2"/>
          <path class="cls-63" d="M92.7,1324c.2,212,24.7,212,24.9,424.2"/>
          <path class="cls-43" d="M90.8,1324c.2,212,24.7,212,24.9,424.2"/>
          <path class="cls-8" d="M142.8,1324c.2,212-10.8,212.2-10.6,424.2"/>
          <path class="cls-14" d="M471.3,1323.1c.1,141.3.2,282.7.3,424.2"/>
          <path class="cls-5" d="M323.4,1323.5c.2,212,98.9,211.8,99,424"/>
          <path class="cls-60" d="M172.5,1323.8c.2,212,215.1,211.7,215.3,423.7"/>
          <path class="cls-68" d="M44.4,1324.2c.2,212,314.1,211.3,314.3,423.5"/>
          <path class="cls-62" d="M469.5,1323.1c.1,141.3.2,282.7.3,424.2"/>
          <path class="cls-8" d="M170.7,1323.8c.2,212,215.1,211.7,215.3,423.7"/>
          <path class="cls-63" d="M123,1324c.2,212,254.3,211.5,254.5,423.7"/>
          <path class="cls-63" d="M121.8,1324c.2,212,254.3,211.5,254.5,423.7"/>
          <path class="cls-63" d="M108.5,1324c.2,212,104.6,211.8,104.7,424"/>
          <path class="cls-4" d="M18.3,1324.2c.2,212,88.2,211.8,88.4,424"/>
          <path class="cls-28" d="M319.8,1323.5c.2,212,98.9,211.8,99,424"/>
          <path class="cls-28" d="M272.4,1323.6c.2,212-19.3,212.2-19.1,424.2"/>
          <path class="cls-63" d="M79.3,1324c.2,212-27.8,212.2-27.6,424.2"/>
          <path class="cls-62" d="M417.3,1323.3c.2,212-111.9,212.4-111.7,424.4"/>
          <path class="cls-14" d="M467.7,1323.1c.1,141.3.2,282.7.3,424.2"/>
          <path class="cls-4" d="M42.6,1324.2c.2,212,314.1,211.3,314.3,423.5"/>
          <path class="cls-4" d="M26.8,1324.2c.2,212,177.7,211.7,177.9,423.9"/>
          <path class="cls-68" d="M40.7,1324.2c.2,212,314.1,211.3,314.3,423.5"/>
          <path class="cls-68" d="M24.9,1324.2c.2,212,177.7,211.7,177.9,423.9"/>
          <path class="cls-28" d="M271.2,1323.6c.2,212-19.3,212.2-19.1,424.2"/>
          <path class="cls-28" d="M270,1323.6c.2,212-19.3,212.2-19.1,424.2"/>
          <path class="cls-62" d="M416,1323.3c.2,212-111.9,212.4-111.7,424.4"/>
          <path class="cls-63" d="M70.8,1324.2c.2,212-58.4,212.2-58.3,424.4"/>
          <path class="cls-62" d="M369.9,1323.5c.2,212-286.8,212.7-286.6,424.9"/>
          <path class="cls-28" d="M227.4,1323.6c.2,212-163.8,212.6-163.6,424.6"/>
          <path class="cls-4" d="M11,1324.2c.2,212,34.5,212,34.6,424"/>
          <path class="cls-63" d="M89,1324c.2,212,24.7,212,24.9,424.2"/>
          <path class="cls-4" d="M17,1324.2c.2,212,88.2,211.8,88.4,424"/>
          <path class="cls-30" d="M37.7,1324.2c.2,212,314.1,211.3,314.3,423.5"/>
          <path class="cls-14" d="M465.3,1323.1c.1,141.3.2,282.7.3,424.2"/>
          <path class="cls-62" d="M463.4,1323.1c.1,141.3.2,282.7.3,424.2"/>
          <path class="cls-28" d="M318.6,1323.5c.2,212,98.9,211.8,99,424"/>
          <path class="cls-8" d="M169.5,1323.8c.2,212,215.1,211.7,215.3,423.7"/>
          <path class="cls-14" d="M414.2,1323.3c.2,212-111.9,212.4-111.7,424.4"/>
          <path class="cls-63" d="M107.2,1324c.2,212,104.6,211.8,104.7,424"/>
          <path class="cls-63" d="M69.6,1324.2c.2,212-58.4,212.2-58.3,424.4"/>
          <path class="cls-14" d="M461.6,1323.1c.1,141.3.2,282.7.3,424.2"/>
          <path class="cls-28" d="M317.3,1323.5c.2,212,98.9,211.8,99,424"/>
          <path class="cls-28" d="M316.1,1323.5c.2,212,98.9,211.8,99,424"/>
          <path class="cls-62" d="M459.8,1323.1c.1,141.3.2,282.7.3,424.2"/>
          <path class="cls-14" d="M411.8,1323.3c.2,212-111.9,212.4-111.7,424.4"/>
          <path class="cls-28" d="M268.7,1323.6c.2,212-19.3,212.2-19.1,424.2"/>
          <path class="cls-28" d="M314.9,1323.5c.2,212,98.9,211.8,99,424"/>
          <path class="cls-45" d="M408.8,1323.3c.2,212-111.9,212.4-111.7,424.4"/>
          <path class="cls-62" d="M406.3,1323.3c.2,212-111.9,212.4-111.7,424.4"/>
          <path class="cls-8" d="M152.5,1323.8c.2,212,75.1,211.8,75.3,424"/>
          <path class="cls-28" d="M267.5,1323.6c.2,212-19.3,212.2-19.1,424.2"/>
          <path class="cls-62" d="M385.7,1323.3c.2,212-227,212.7-226.8,424.7"/>
          <path class="cls-28" d="M313.7,1323.5c.2,212,98.9,211.8,99,424"/>
          <path class="cls-62" d="M458.6,1323.1c.1,141.3.2,282.7.3,424.2"/>
          <path class="cls-62" d="M457.4,1323.1c.1,141.3.2,282.7.3,424.2"/>
          <path class="cls-28" d="M312.5,1323.5c.2,212,98.9,211.8,99,424"/>
          <path class="cls-63" d="M120.6,1324c.2,212,254.3,211.5,254.5,423.7"/>
          <path class="cls-62" d="M405.1,1323.3c.2,212-111.9,212.4-111.7,424.4"/>
          <path class="cls-14" d="M403.3,1323.3c.2,212-111.9,212.4-111.7,424.4"/>
          <path class="cls-55" d="M265.7,1323.6c.2,212-19.3,212.2-19.1,424.2"/>
          <path class="cls-8" d="M151.3,1323.8c.2,212,75.1,211.8,75.3,424"/>
          <path class="cls-14" d="M455.5,1323.1c.1,141.3.2,282.7.3,424.2"/>
          <path class="cls-55" d="M310.7,1323.5c.2,212,98.9,211.8,99,424"/>
          <path class="cls-28" d="M308.8,1323.5c.2,212,98.9,211.8,99,424"/>
          <path class="cls-24" d="M148.8,1323.8c.2,212,75.1,211.8,75.3,424"/>
          <path class="cls-9" d="M262.7,1323.6c.2,212-19.3,212.2-19.1,424.2"/>
          <path class="cls-62" d="M401.5,1323.3c.2,212-111.9,212.4-111.7,424.4"/>
          <path class="cls-62" d="M400.3,1323.3c.2,212-111.9,212.4-111.7,424.4"/>
          <path class="cls-62" d="M399,1323.3c.2,212-111.9,212.4-111.7,424.4"/>
          <path class="cls-62" d="M397.8,1323.3c.2,212-111.9,212.4-111.7,424.4"/>
          <path class="cls-4" d="M23.1,1324.2c.2,212,177.7,211.7,177.9,423.9"/>
          <path class="cls-28" d="M260.2,1323.6c.2,212-19.3,212.2-19.1,424.2"/>
          <path class="cls-63" d="M68.4,1324.2c.2,212-58.4,212.2-58.3,424.4"/>
          <path class="cls-62" d="M361.4,1323.5c.2,212-332,212.9-331.9,424.9"/>
          <path class="cls-28" d="M226.2,1323.6c.2,212-163.8,212.6-163.6,424.6"/>
          <path class="cls-45" d="M367.4,1323.5c.2,212-286.8,212.7-286.6,424.9"/>
          <path class="cls-63" d="M78.1,1324c.2,212-27.8,212.2-27.6,424.2"/>
          <path class="cls-4" d="M9.7,1324.2c.2,212,34.5,212,34.6,424"/>
          <path class="cls-4" d="M15.8,1324.2c.2,212,88.2,211.8,88.4,424"/>
          <path class="cls-45" d="M383.2,1323.3c.2,212-227,212.7-226.8,424.7"/>
          <path class="cls-28" d="M245.7,1323.6c.2,212-106.4,212.4-106.2,424.4"/>
          <path class="cls-43" d="M87.2,1324c.2,212,24.7,212,24.9,424.2"/>
          <path class="cls-55" d="M243.8,1323.6c.2,212-106.4,212.4-106.2,424.4"/>
          <path class="cls-62" d="M380.8,1323.3c.2,212-227,212.7-226.8,424.7"/>
          <path class="cls-45" d="M452.5,1323.1c.1,141.3.2,282.7.3,424.2"/>
          <path class="cls-55" d="M307,1323.5c.2,212,98.9,211.8,99,424"/>
          <path class="cls-62" d="M450.1,1323.1c.1,141.3.2,282.7.3,424.2"/>
          <path class="cls-4" d="M35.3,1324.2c.2,212,314.1,211.3,314.3,423.5"/>
          <path class="cls-28" d="M305.2,1323.5c.2,212,98.9,211.8,99,424"/>
          <path class="cls-4" d="M34.1,1324.2c.2,212,314.1,211.3,314.3,423.5"/>
          <path class="cls-8" d="M168.3,1323.8c.2,212,215.1,211.7,215.3,423.7"/>
          <path class="cls-63" d="M119.4,1324c.2,212,254.3,211.5,254.5,423.7"/>
          <path class="cls-8" d="M167.1,1323.8c.2,212,215.1,211.7,215.3,423.7"/>
          <path class="cls-8" d="M165.8,1323.8c.2,212,215.1,211.7,215.3,423.7"/>
          <path class="cls-63" d="M118.2,1324c.2,212,254.3,211.5,254.5,423.7"/>
          <path class="cls-28" d="M501.4,1751.6c.1,141.3.2,282.7.3,424.2"/>
          <path class="cls-28" d="M500.2,1751.6c.1,141.3.2,282.7.3,424.2"/>
          <path class="cls-8" d="M337.1,1751.9c.2,212,107.4,211.8,107.5,423.9"/>
          <path class="cls-4" d="M65,1752.7c.2,212,103.1,211.8,103.2,424"/>
          <path class="cls-63" d="M145.5,1752.5c.2,212,117.6,211.8,117.8,423.9"/>
          <path class="cls-63" d="M134.6,1752.5c.2,212,46.9,212,47.1,424"/>
          <path class="cls-63" d="M144.3,1752.5c.2,212,117.6,211.8,117.8,423.9"/>
          <path class="cls-28" d="M499,1751.6c.1,141.3.2,282.7.3,424.2"/>
          <path class="cls-8" d="M226.5,1752.1c.2,212-123.1,212.4-123,424.6"/>
          <path class="cls-28" d="M444.3,1751.8c.2,212-113.1,212.4-113,424.4"/>
          <path class="cls-28" d="M497.8,1751.6l.3,424.2"/>
          <path class="cls-8" d="M335.9,1751.9c.2,212,107.4,211.8,107.5,423.9"/>
          <path class="cls-8" d="M334.7,1751.9c.2,212,107.4,211.8,107.5,423.9"/>
          <path class="cls-8" d="M290.9,1752.1c.2,212,5,212,5.2,424.2"/>
          <path class="cls-8" d="M333.5,1751.9c.2,212,107.4,211.8,107.5,423.9"/>
          <path class="cls-8" d="M225.3,1752.1c.2,212-123.1,212.4-123,424.6"/>
          <path class="cls-8" d="M289.7,1752.1c.2,212,5,212,5.2,424.2"/>
          <path class="cls-8" d="M288.5,1752.1c.2,212,5,212,5.2,424.2"/>
          <path class="cls-57" d="M33.2,1752.7c.2,212,321.4,211.3,321.6,423.5"/>
          <path class="cls-4" d="M55.3,1752.7c.2,212,21.4,212,21.5,424.2"/>
          <path class="cls-4" d="M54.1,1752.7c.2,212,21.4,212,21.5,424.2"/>
          <path class="cls-4" d="M93,1752.5c.2,212,281,211.5,281.2,423.5"/>
          <path class="cls-63" d="M133.4,1752.5c.2,212,46.9,212,47.1,424"/>
          <path class="cls-63" d="M117.6,1752.5c.2,212-61.8,212.2-61.6,424.4"/>
          <path class="cls-63" d="M169.8,1752.3c.2,212,228.5,211.5,228.7,423.7"/>
          <path class="cls-28" d="M443.1,1751.8c.2,212-113.1,212.4-113,424.4"/>
          <path class="cls-28" d="M390.9,1751.8c.2,212-249.8,212.7-249.6,424.7"/>
          <path class="cls-28" d="M496.6,1751.6l.3,424.2"/>
          <path class="cls-28" d="M441.9,1751.8c.2,212-113.1,212.4-113,424.4"/>
          <path class="cls-28" d="M495.4,1751.6c.1,141.3.2,282.7.3,424.2"/>
          <path class="cls-28" d="M389.6,1751.8c.2,212-249.8,212.7-249.6,424.7"/>
          <path class="cls-28" d="M409.1,1751.8c.2,212-177.8,212.6-177.6,424.6"/>
          <path class="cls-28" d="M494.1,1751.6c.1,141.3.2,282.7.3,424.2"/>
          <path class="cls-28" d="M388.4,1751.8c.2,212-249.8,212.7-249.6,424.7"/>
          <path class="cls-8" d="M258.1,1752.1c.2,212-45.1,212.2-44.9,424.4"/>
          <path class="cls-8" d="M256.9,1752.1c.2,212-45.1,212.2-44.9,424.4"/>
          <path class="cls-8" d="M287.3,1752.1c.2,212,5,212,5.2,424.2"/>
          <path class="cls-8" d="M286.1,1752.1c.2,212,5,212,5.2,424.2"/>
          <path class="cls-8" d="M284.9,1752.1c.2,212,5,212,5.2,424.2"/>
          <path class="cls-8" d="M332.3,1751.9c.2,212,107.4,211.8,107.5,423.9"/>
          <path class="cls-57" d="M31.9,1752.7c.2,212,321.4,211.3,321.6,423.5"/>
          <path class="cls-57" d="M17.4,1752.7c.2,212,141,211.8,141.2,423.9"/>
          <path class="cls-63" d="M132.1,1752.5c.2,212,46.9,212,47.1,424"/>
          <path class="cls-4" d="M63.8,1752.7c.2,212,103.1,211.8,103.2,424"/>
          <path class="cls-28" d="M440.7,1751.8c.2,212-113.1,212.4-113,424.4"/>
          <path class="cls-8" d="M255.7,1752.1c.2,212-45.1,212.2-44.9,424.4"/>
          <path class="cls-8" d="M331,1751.9c.2,212,107.4,211.8,107.5,423.9"/>
          <path class="cls-8" d="M283.6,1752.1c.2,212,5,212,5.2,424.2"/>
          <path class="cls-4" d="M91.8,1752.5c.2,212,281,211.5,281.2,423.5"/>
          <path class="cls-28" d="M387.2,1751.8c.2,212-249.8,212.7-249.6,424.7"/>
          <path class="cls-8" d="M329.8,1751.9c.2,212,107.4,211.8,107.5,423.9"/>
          <path class="cls-4" d="M90.5,1752.5c.2,212,281,211.5,281.2,423.5"/>
          <path class="cls-63" d="M168.6,1752.3c.2,212,228.5,211.5,228.7,423.7"/>
          <path class="cls-63" d="M121.2,1752.5c.2,212-40.9,212.2-40.7,424.2"/>
          <path class="cls-28" d="M350.8,1751.9c.2,212-338.1,212.9-337.9,424.9"/>
          <path class="cls-28" d="M386,1751.8c.2,212-249.8,212.7-249.6,424.7"/>
          <path class="cls-28" d="M492.9,1751.6c.1,141.3.2,282.7.3,424.2"/>
          <path class="cls-8" d="M282.4,1752.1c.2,212,5,212,5.2,424.2"/>
          <path class="cls-8" d="M254.5,1752.1c.2,212-45.1,212.2-44.9,424.4"/>
          <path class="cls-8" d="M253.3,1752.1c.2,212-45.1,212.2-44.9,424.4"/>
          <path class="cls-8" d="M328.6,1751.9c.2,212,107.4,211.8,107.5,423.9"/>
          <path class="cls-8" d="M224.1,1752.1c.2,212-123.1,212.4-123,424.6"/>
          <path class="cls-57" d="M16.1,1752.7c.2,212,141,211.8,141.2,423.9"/>
          <path class="cls-63" d="M143.1,1752.5c.2,212,117.6,211.8,117.8,423.9"/>
          <path class="cls-28" d="M491.7,1751.6c.1,141.3.2,282.7.3,424.2"/>
          <path class="cls-28" d="M490.5,1751.6c.1,141.3.2,282.7.3,424.2"/>
          <path class="cls-28" d="M489.3,1751.6c.1,141.3.2,282.7.3,424.2"/>
          <path class="cls-28" d="M439.5,1751.8c.2,212-113.1,212.4-113,424.4"/>
          <path class="cls-28" d="M438.2,1751.8c.2,212-113.1,212.4-113,424.4"/>
          <path class="cls-28" d="M384.8,1751.8c.2,212-249.8,212.7-249.6,424.7"/>
          <path class="cls-28" d="M407.9,1751.8c.2,212-177.8,212.6-177.6,424.6"/>
          <path class="cls-28" d="M488.1,1751.6c.1,141.3.2,282.7.3,424.2"/>
          <path class="cls-8" d="M327.4,1751.9c.2,212,107.4,211.8,107.5,423.9"/>
          <path class="cls-8" d="M326.2,1751.9c.2,212,107.4,211.8,107.5,423.9"/>
          <path class="cls-8" d="M325,1751.9c.2,212,107.4,211.8,107.5,423.9"/>
          <path class="cls-8" d="M281.2,1752.1c.2,212,5,212,5.2,424.2"/>
          <path class="cls-8" d="M222.9,1752.3c.2,212-123.1,212.4-123,424.6"/>
          <path class="cls-8" d="M221.7,1752.3c.2,212-123.1,212.4-123,424.6"/>
          <path class="cls-8" d="M280,1752.1c.2,212,5,212,5.2,424.2"/>
          <path class="cls-8" d="M252.1,1752.1c.2,212-45.1,212.2-44.9,424.4"/>
          <path class="cls-8" d="M220.5,1752.3c.2,212-123.1,212.4-123,424.6"/>
          <path class="cls-8" d="M250.8,1752.1c.2,212-45.1,212.2-44.9,424.4"/>
          <path class="cls-8" d="M323.7,1751.9c.2,212,107.4,211.8,107.5,423.9"/>
          <path class="cls-8" d="M249.6,1752.1c.2,212-45.1,212.2-44.9,424.4"/>
          <path class="cls-63" d="M167.4,1752.3c.2,212,228.5,211.5,228.7,423.7"/>
          <path class="cls-57" d="M10.1,1752.7c.2,212,15,212,15.2,424.2"/>
          <path class="cls-57" d="M30.7,1752.7c.2,212,321.4,211.3,321.6,423.5"/>
          <path class="cls-57" d="M19.8,1752.7c.2,212,223.9,211.5,224.1,423.7"/>
          <path class="cls-4" d="M89.3,1752.5c.2,212,281,211.5,281.2,423.5"/>
          <path class="cls-4" d="M73.5,1752.7c.2,212,178.7,211.7,178.8,423.9"/>
          <path class="cls-4" d="M88.1,1752.5c.2,212,281,211.5,281.2,423.5"/>
          <path class="cls-4" d="M52.9,1752.7c.2,212,21.4,212,21.5,424.2"/>
          <path class="cls-4" d="M62.6,1752.7c.2,212,103.1,211.8,103.2,424"/>
          <path class="cls-4" d="M86.9,1752.5c.2,212,281,211.5,281.2,423.5"/>
          <path class="cls-63" d="M141.9,1752.5c.2,212,117.6,211.8,117.8,423.9"/>
          <path class="cls-63" d="M166.2,1752.3c.2,212,228.5,211.5,228.7,423.7"/>
          <path class="cls-63" d="M130.9,1752.5c.2,212,46.9,212,47.1,424"/>
          <path class="cls-63" d="M164.9,1752.3c.2,212,228.5,211.5,228.7,423.7"/>
          <path class="cls-63" d="M129.7,1752.5c.2,212,46.9,212,47.1,424"/>
          <path class="cls-63" d="M163.7,1752.3c.2,212,228.5,211.5,228.7,423.7"/>
          <path class="cls-28" d="M437,1751.8c.2,212-113.1,212.4-113,424.4"/>
          <path class="cls-28" d="M486.8,1751.6c.1,141.3.2,282.7.3,424.2"/>
          <path class="cls-28" d="M485.6,1751.6c.1,141.3.2,282.7.3,424.2"/>
          <path class="cls-28" d="M383.6,1751.8c.2,212-249.8,212.7-249.6,424.7"/>
          <path class="cls-28" d="M382.3,1751.8c.2,212-249.8,212.7-249.6,424.7"/>
          <path class="cls-28" d="M484.4,1751.6l.3,424.2"/>
          <path class="cls-28" d="M483.2,1751.6c.1,141.3.2,282.7.3,424.2"/>
          <path class="cls-28" d="M435.8,1751.8c.2,212-113.1,212.4-113,424.4"/>
          <path class="cls-28" d="M434.6,1751.8c.2,212-113.1,212.4-113,424.4"/>
          <path class="cls-28" d="M353.2,1751.9c.2,212-293.8,212.7-293.6,424.9"/>
          <path class="cls-28" d="M406.6,1751.8c.2,212-177.8,212.6-177.6,424.6"/>
          <path class="cls-28" d="M482,1751.6c.1,141.3.2,282.7.3,424.2"/>
          <path class="cls-28" d="M381.1,1751.8c.2,212-249.8,212.7-249.6,424.7"/>
          <path class="cls-28" d="M433.4,1751.8c.2,212-113.1,212.4-113,424.4"/>
          <path class="cls-28" d="M405.4,1751.8c.2,212-177.8,212.6-177.6,424.6"/>
          <path class="cls-28" d="M404.2,1751.8c.2,212-177.8,212.6-177.6,424.6"/>
          <path class="cls-28" d="M349.5,1751.9c.2,212-338.1,212.9-337.9,424.9"/>
          <path class="cls-8" d="M322.5,1751.9c.2,212,107.4,211.8,107.5,423.9"/>
          <path class="cls-8" d="M248.4,1752.1c.2,212-45.1,212.2-44.9,424.4"/>
          <path class="cls-8" d="M247.2,1752.1c.2,212-45.1,212.2-44.9,424.4"/>
          <path class="cls-8" d="M278.8,1752.1c.2,212,5,212,5.2,424.2"/>
          <path class="cls-8" d="M246,1752.1c.2,212-45.1,212.2-44.9,424.4"/>
          <path class="cls-8" d="M321.3,1751.9c.2,212,107.4,211.8,107.5,423.9"/>
          <path class="cls-8" d="M320.1,1751.9c.2,212,107.4,211.8,107.5,423.9"/>
          <path class="cls-57" d="M14.9,1752.7c.2,212,141,211.8,141.2,423.9"/>
          <path class="cls-57" d="M13.7,1752.7c.2,212,141,211.8,141.2,423.9"/>
          <path class="cls-4" d="M46.8,1752.7c.2,212-18.1,212.2-17.9,424.2"/>
          <path class="cls-4" d="M61.4,1752.7c.2,212,103.1,211.8,103.2,424"/>
          <path class="cls-4" d="M60.2,1752.7c.2,212,103.1,211.8,103.2,424"/>
          <path class="cls-63" d="M162.5,1752.3c.2,212,228.5,211.5,228.7,423.7"/>
          <path class="cls-63" d="M116.3,1752.5c.2,212-61.8,212.2-61.6,424.4"/>
          <path class="cls-28" d="M480.8,1751.6c.1,141.3.2,282.7.3,424.2"/>
          <path class="cls-28" d="M479.6,1751.6c.1,141.3.2,282.7.3,424.2"/>
          <path class="cls-8" d="M277.6,1752.1c.2,212,5,212,5.2,424.2"/>
          <path class="cls-8" d="M219.2,1752.3c.2,212-123.1,212.4-123,424.6"/>
          <path class="cls-8" d="M318.9,1751.9c.2,212,107.4,211.8,107.5,423.9"/>
          <path class="cls-8" d="M203.5,1752.3c.2,212-146.5,212.4-146.3,424.6"/>
          <path class="cls-8" d="M317.7,1751.9c.2,212,107.4,211.8,107.5,423.9"/>
          <path class="cls-4" d="M72.3,1752.7c.2,212,178.7,211.7,178.8,423.9"/>
          <path class="cls-28" d="M432.2,1751.8c.2,212-113.1,212.4-113,424.4"/>
          <path class="cls-28" d="M478.3,1751.6c.1,141.3.2,282.7.3,424.2"/>
          <path class="cls-28" d="M379.9,1751.8c.2,212-249.8,212.7-249.6,424.7"/>
          <path class="cls-28" d="M431,1751.8c.2,212-113.1,212.4-113,424.4"/>
          <path class="cls-28" d="M403,1751.8c.2,212-177.8,212.6-177.6,424.6"/>
          <path class="cls-28" d="M378.7,1751.8c.2,212-249.8,212.7-249.6,424.7"/>
          <path class="cls-8" d="M244.8,1752.1c.2,212-45.1,212.2-44.9,424.4"/>
          <path class="cls-8" d="M276.4,1752.1c.2,212,5,212,5.2,424.2"/>
          <path class="cls-8" d="M218,1752.3c.2,212-123.1,212.4-123,424.6"/>
          <path class="cls-8" d="M243.5,1752.1c.2,212-45.1,212.2-44.9,424.4"/>
          <path class="cls-8" d="M316.5,1751.9c.2,212,107.4,211.8,107.5,423.9"/>
          <path class="cls-8" d="M202.2,1752.3c.2,212-168.6,212.6-168.5,424.6"/>
          <path class="cls-63" d="M128.5,1752.5c.2,212,46.9,212,47.1,424"/>
          <path class="cls-57" d="M29.5,1752.7c.2,212,321.4,211.3,321.6,423.5"/>
          <path class="cls-57" d="M28.3,1752.7c.2,212,321.4,211.3,321.6,423.5"/>
          <path class="cls-4" d="M85.7,1752.5c.2,212,281,211.5,281.2,423.5"/>
          <path class="cls-63" d="M120,1752.5c.2,212-40.9,212.2-40.7,424.2"/>
          <path class="cls-63" d="M161.3,1752.3c.2,212,228.5,211.5,228.7,423.7"/>
          <path class="cls-63" d="M127.3,1752.5c.2,212,46.9,212,47.1,424"/>
          <path class="cls-63" d="M160.1,1752.3c.2,212,228.5,211.5,228.7,423.7"/>
          <path class="cls-63" d="M158.9,1752.3c.2,212,228.5,211.5,228.7,423.7"/>
          <path class="cls-63" d="M115.1,1752.5c.2,212-61.8,212.2-61.6,424.4"/>
          <path class="cls-63" d="M113.9,1752.5c.2,212-61.8,212.2-61.6,424.4"/>
          <path class="cls-28" d="M477.1,1751.6c.1,141.3.2,282.7.3,424.2"/>
          <path class="cls-28" d="M377.5,1751.8c.2,212-249.8,212.7-249.6,424.7"/>
          <path class="cls-28" d="M475.9,1751.6c.1,141.3.2,282.7.3,424.2"/>
          <path class="cls-28" d="M376.3,1751.8c.2,212-249.8,212.7-249.6,424.7"/>
          <path class="cls-28" d="M401.8,1751.8c.2,212-177.8,212.6-177.6,424.6"/>
          <path class="cls-28" d="M429.7,1751.8c.2,212-113.1,212.4-113,424.4"/>
          <path class="cls-8" d="M315.2,1751.9c.2,212,107.4,211.8,107.5,423.9"/>
          <path class="cls-8" d="M314,1751.9c.2,212,107.4,211.8,107.5,423.9"/>
          <path class="cls-8" d="M242.3,1752.1c.2,212-45.1,212.2-44.9,424.4"/>
          <path class="cls-8" d="M241.1,1752.1c.2,212-45.1,212.2-44.9,424.4"/>
          <path class="cls-8" d="M275.1,1752.1c.2,212,5,212,5.2,424.2"/>
          <path class="cls-8" d="M273.9,1752.1c.2,212,5,212,5.2,424.2"/>
          <path class="cls-4" d="M84.5,1752.5c.2,212,281,211.5,281.2,423.5"/>
          <path class="cls-63" d="M157.7,1752.3c.2,212,228.5,211.5,228.7,423.7"/>
          <path class="cls-28" d="M474.7,1751.6c.1,141.3.2,282.7.3,424.2"/>
          <path class="cls-28" d="M473.5,1751.6c.1,141.3.2,282.7.3,424.2"/>
          <path class="cls-28" d="M375.1,1751.8c.2,212-249.8,212.7-249.6,424.7"/>
          <path class="cls-28" d="M373.8,1751.8c.2,212-249.8,212.7-249.6,424.7"/>
          <path class="cls-28" d="M472.3,1751.6c.1,141.3.2,282.7.3,424.2"/>
          <path class="cls-28" d="M471,1751.6c.1,141.3.2,282.7.3,424.2"/>
          <path class="cls-28" d="M428.5,1751.8c.2,212-113.1,212.4-113,424.4"/>
          <path class="cls-28" d="M427.3,1751.8c.2,212-113.1,212.4-113,424.4"/>
          <path class="cls-28" d="M372.6,1751.9c.2,212-249.8,212.7-249.6,424.7"/>
          <path class="cls-28" d="M400.6,1751.8c.2,212-177.8,212.6-177.6,424.6"/>
          <path class="cls-8" d="M312.8,1751.9c.2,212,107.4,211.8,107.5,423.9"/>
          <path class="cls-8" d="M216.8,1752.3c.2,212-123.1,212.4-123,424.6"/>
          <path class="cls-8" d="M311.6,1751.9c.2,212,107.4,211.8,107.5,423.9"/>
          <path class="cls-8" d="M272.7,1752.1c.2,212,5,212,5.2,424.2"/>
          <path class="cls-8" d="M271.5,1752.1c.2,212,5,212,5.2,424.2"/>
          <path class="cls-8" d="M310.4,1751.9c.2,212,107.4,211.8,107.5,423.9"/>
          <path class="cls-8" d="M239.9,1752.1c.2,212-45.1,212.2-44.9,424.4"/>
          <path class="cls-8" d="M238.7,1752.1c.2,212-45.1,212.2-44.9,424.4"/>
          <path class="cls-8" d="M215.6,1752.3c.2,212-123.1,212.4-123,424.6"/>
          <path class="cls-8" d="M270.3,1752.1c.2,212,5,212,5.2,424.2"/>
          <path class="cls-8" d="M237.5,1752.1c.2,212-45.1,212.2-44.9,424.4"/>
          <path class="cls-8" d="M236.3,1752.1c.2,212-45.1,212.2-44.9,424.4"/>
          <path class="cls-8" d="M309.2,1751.9c.2,212,107.4,211.8,107.5,423.9"/>
          <path class="cls-8" d="M201,1752.3c.2,212-168.6,212.6-168.5,424.6"/>
          <path class="cls-63" d="M140.6,1752.5c.2,212,117.6,211.8,117.8,423.9"/>
          <path class="cls-57" d="M27.1,1752.7c.2,212,321.4,211.3,321.6,423.5"/>
          <path class="cls-57" d="M25.9,1752.7c.2,212,321.4,211.3,321.6,423.5"/>
          <path class="cls-57" d="M12.5,1752.7c.2,212,141,211.8,141.2,423.9"/>
          <path class="cls-57" d="M11.3,1752.7c.2,212,141,211.8,141.2,423.9"/>
          <path class="cls-57" d="M24.7,1752.7c.2,212,321.4,211.3,321.6,423.5"/>
          <path class="cls-57" d="M18.6,1752.7c.2,212,223.9,211.5,224.1,423.7"/>
          <path class="cls-57" d="M23.4,1752.7c.2,212,321.4,211.3,321.6,423.5"/>
          <path class="cls-4" d="M45.6,1752.7c.2,212-18.1,212.2-17.9,424.2"/>
          <path class="cls-4" d="M71.1,1752.7c.2,212,178.7,211.7,178.8,423.9"/>
          <path class="cls-4" d="M83.3,1752.5c.2,212,281,211.5,281.2,423.5"/>
          <path class="cls-4" d="M59,1752.7c.2,212,103.1,211.8,103.2,424"/>
          <path class="cls-4" d="M57.7,1752.7c.2,212,103.1,211.8,103.2,424"/>
          <path class="cls-4" d="M51.7,1752.7c.2,212,21.4,212,21.5,424.2"/>
          <path class="cls-4" d="M69.9,1752.7c.2,212,178.7,211.7,178.8,423.9"/>
          <path class="cls-4" d="M82,1752.5c.2,212,281,211.5,281.2,423.5"/>
          <path class="cls-4" d="M80.8,1752.5c.2,212,281,211.5,281.2,423.5"/>
          <path class="cls-4" d="M79.6,1752.5c.2,212,281,211.5,281.2,423.5"/>
          <path class="cls-4" d="M56.5,1752.7c.2,212,103.1,211.8,103.2,424"/>
          <path class="cls-4" d="M68.7,1752.7c.2,212,178.7,211.7,178.8,423.9"/>
          <path class="cls-63" d="M126.1,1752.5c.2,212,46.9,212,47.1,424"/>
          <path class="cls-63" d="M156.4,1752.3c.2,212,228.5,211.5,228.7,423.7"/>
          <path class="cls-63" d="M112.7,1752.5c.2,212-61.8,212.2-61.6,424.4"/>
          <path class="cls-63" d="M155.2,1752.3c.2,212,228.5,211.5,228.7,423.7"/>
          <path class="cls-63" d="M154,1752.3c.2,212,228.5,211.5,228.7,423.7"/>
          <path class="cls-63" d="M139.4,1752.5c.2,212,117.6,211.8,117.8,423.9"/>
          <path class="cls-63" d="M124.8,1752.5c.2,212,46.9,212,47.1,424"/>
          <path class="cls-63" d="M106.6,1752.5c.2,212-75.5,212.2-75.3,424.4"/>
          <path class="cls-63" d="M118.8,1752.5c.2,212-40.9,212.2-40.7,424.2"/>
          <path class="cls-63" d="M104.2,1752.5c.2,212-95.2,212.4-95,424.4"/>
          <path class="cls-63" d="M138.2,1752.5c.2,212,117.6,211.8,117.8,423.9"/>
          <path class="cls-63" d="M111.5,1752.5c.2,212-61.8,212.2-61.6,424.4"/>
          <path class="cls-28" d="M371.4,1751.9c.2,212-249.8,212.7-249.6,424.7"/>
          <path class="cls-28" d="M469.8,1751.6c.1,141.3.2,282.7.3,424.2"/>
          <path class="cls-28" d="M370.2,1751.9c.2,212-249.8,212.7-249.6,424.7"/>
          <path class="cls-28" d="M468.6,1751.6c.1,141.3.2,282.7.3,424.2"/>
          <path class="cls-28" d="M399.4,1751.8c.2,212-177.8,212.6-177.6,424.6"/>
          <path class="cls-28" d="M426.1,1751.8c.2,212-113.1,212.4-113,424.4"/>
          <path class="cls-28" d="M424.9,1751.8c.2,212-113.1,212.4-113,424.4"/>
          <path class="cls-28" d="M467.4,1751.6c.1,141.3.2,282.7.3,424.2"/>
          <path class="cls-28" d="M423.7,1751.8c.2,212-113.1,212.4-113,424.4"/>
          <path class="cls-28" d="M422.4,1751.8c.2,212-113.1,212.4-113,424.4"/>
          <path class="cls-28" d="M398.1,1751.8c.2,212-177.8,212.6-177.6,424.6"/>
          <path class="cls-28" d="M466.2,1751.6c.1,141.3.2,282.7.3,424.2"/>
          <path class="cls-28" d="M348.3,1751.9c.2,212-338.1,212.9-337.9,424.9"/>
          <path class="cls-28" d="M396.9,1751.8c.2,212-177.8,212.6-177.6,424.6"/>
          <path class="cls-28" d="M369,1751.9c.2,212-249.8,212.7-249.6,424.7"/>
          <path class="cls-8" d="M235,1752.1c.2,212-45.1,212.2-44.9,424.4"/>
          <path class="cls-63" d="M152.8,1752.3c.2,212,228.5,211.5,228.7,423.7"/>
          <path class="cls-28" d="M465,1751.6c.1,141.3.2,282.7.3,424.2"/>
          <path class="cls-8" d="M233.8,1752.1c.2,212-45.1,212.2-44.9,424.4"/>
          <path class="cls-4" d="M44.4,1752.7c.2,212-18.1,212.2-17.9,424.2"/>
          <path class="cls-8" d="M307.9,1751.9c.2,212,107.4,211.8,107.5,423.9"/>
          <path class="cls-28" d="M367.8,1751.9c.2,212-249.8,212.7-249.6,424.7"/>
          <path class="cls-28" d="M395.7,1751.8c.2,212-177.8,212.6-177.6,424.6"/>
          <path class="cls-28" d="M463.8,1751.6c.1,141.3.2,282.7.3,424.2"/>
          <path class="cls-8" d="M306.7,1751.9c.2,212,107.4,211.8,107.5,423.9"/>
          <path class="cls-28" d="M462.5,1751.6c.1,141.3.2,282.7.3,424.2"/>
          <path class="cls-28" d="M366.6,1751.9c.2,212-249.8,212.7-249.6,424.7"/>
          <path class="cls-8" d="M305.5,1751.9c.2,212,107.4,211.8,107.5,423.9"/>
          <path class="cls-8" d="M304.3,1751.9c.2,212,107.4,211.8,107.5,423.9"/>
          <path class="cls-8" d="M214.4,1752.3c.2,212-123.1,212.4-123,424.6"/>
          <path class="cls-8" d="M269.1,1752.1c.2,212,5,212,5.2,424.2"/>
          <path class="cls-8" d="M303.1,1751.9c.2,212,107.4,211.8,107.5,423.9"/>
          <path class="cls-57" d="M8.9,1752.7c.2,212,15,212,15.2,424.2"/>
          <path class="cls-4" d="M67.5,1752.7c.2,212,178.7,211.7,178.8,423.9"/>
          <path class="cls-4" d="M78.4,1752.5c.2,212,281,211.5,281.2,423.5"/>
          <path class="cls-4" d="M77.2,1752.5c.2,212,281,211.5,281.2,423.5"/>
          <path class="cls-63" d="M151.6,1752.3c.2,212,228.5,211.5,228.7,423.7"/>
          <path class="cls-63" d="M150.4,1752.3c.2,212,228.5,211.5,228.7,423.7"/>
          <path class="cls-28" d="M461.3,1751.6l.3,424.2"/>
          <path class="cls-28" d="M421.2,1751.8c.2,212-113.1,212.4-113,424.4"/>
          <path class="cls-28" d="M460.1,1751.6c.1,141.3.2,282.7.3,424.2"/>
          <path class="cls-28" d="M365.3,1751.9c.2,212-249.8,212.7-249.6,424.7"/>
          <path class="cls-28" d="M364.1,1751.9c.2,212-249.8,212.7-249.6,424.7"/>
          <path class="cls-28" d="M420,1751.8c.2,212-113.1,212.4-113,424.4"/>
          <path class="cls-28" d="M394.5,1751.8c.2,212-177.8,212.6-177.6,424.6"/>
          <path class="cls-28" d="M418.8,1751.8c.2,212-113.1,212.4-113,424.4"/>
          <path class="cls-8" d="M301.9,1751.9c.2,212,107.4,211.8,107.5,423.9"/>
          <path class="cls-8" d="M267.9,1752.1c.2,212,5,212,5.2,424.2"/>
          <path class="cls-8" d="M232.6,1752.1c.2,212-45.1,212.2-44.9,424.4"/>
          <path class="cls-57" d="M7.6,1752.7l.3,424.2"/>
          <path class="cls-28" d="M362.9,1751.9c.2,212-249.8,212.7-249.6,424.7"/>
          <path class="cls-28" d="M458.9,1751.6c.1,141.3.2,282.7.3,424.2"/>
          <path class="cls-28" d="M393.3,1751.8c.2,212-177.8,212.6-177.6,424.6"/>
          <path class="cls-28" d="M361.7,1751.9c.2,212-249.8,212.7-249.6,424.7"/>
          <path class="cls-28" d="M457.7,1751.6l.3,424.2"/>
          <path class="cls-8" d="M300.7,1751.9c.2,212,107.4,211.8,107.5,423.9"/>
          <path class="cls-8" d="M266.6,1752.1c.2,212,5,212,5.2,424.2"/>
          <path class="cls-8" d="M213.2,1752.3c.2,212-123.1,212.4-123,424.6"/>
          <path class="cls-28" d="M456.5,1751.6c.1,141.3.2,282.7.3,424.2"/>
          <path class="cls-8" d="M212,1752.3c.2,212-123.1,212.4-123,424.6"/>
          <path class="cls-8" d="M231.4,1752.1c.2,212-45.1,212.2-44.9,424.4"/>
          <path class="cls-8" d="M265.4,1752.1c.2,212,5,212,5.2,424.2"/>
          <path class="cls-8" d="M299.4,1751.9c.2,212,107.4,211.8,107.5,423.9"/>
          <path class="cls-8" d="M298.2,1751.9c.2,212,107.4,211.8,107.5,423.9"/>
          <path class="cls-8" d="M297,1752.1c.2,212,107.4,211.8,107.5,423.9"/>
          <path class="cls-63" d="M149.1,1752.5c.2,212,228.5,211.5,228.7,423.7"/>
          <path class="cls-28" d="M360.5,1751.9c.2,212-249.8,212.7-249.6,424.7"/>
          <path class="cls-28" d="M455.3,1751.6c.1,141.3.2,282.7.3,424.2"/>
          <path class="cls-28" d="M417.6,1751.8c.2,212-113.1,212.4-113,424.4"/>
          <path class="cls-28" d="M454,1751.6c.1,141.3.2,282.7.3,424.2"/>
          <path class="cls-28" d="M359.3,1751.9c.2,212-249.8,212.7-249.6,424.7"/>
          <path class="cls-8" d="M295.8,1752.1c.2,212,107.4,211.8,107.5,423.9"/>
          <path class="cls-8" d="M264.2,1752.1c.2,212,5,212,5.2,424.2"/>
          <path class="cls-8" d="M263,1752.1c.2,212,5,212,5.2,424.2"/>
          <path class="cls-8" d="M210.7,1752.3c.2,212-123.1,212.4-123,424.6"/>
          <path class="cls-8" d="M209.5,1752.3c.2,212-123.1,212.4-123,424.6"/>
          <path class="cls-8" d="M208.3,1752.3c.2,212-123.1,212.4-123,424.6"/>
          <path class="cls-28" d="M452.8,1751.6c.1,141.3.2,282.7.3,424.2"/>
          <path class="cls-28" d="M416.4,1751.8c.2,212-113.1,212.4-113,424.4"/>
          <path class="cls-28" d="M451.6,1751.6c.1,141.3.2,282.7.3,424.2"/>
          <path class="cls-28" d="M358,1751.9c.2,212-249.8,212.7-249.6,424.7"/>
          <path class="cls-28" d="M415.2,1751.8c.2,212-113.1,212.4-113,424.4"/>
          <path class="cls-8" d="M294.6,1752.1c.2,212,107.4,211.8,107.5,423.9"/>
          <path class="cls-8" d="M293.4,1752.1c.2,212,107.4,211.8,107.5,423.9"/>
          <path class="cls-8" d="M292.2,1752.1c.2,212,107.4,211.8,107.5,423.9"/>
          <path class="cls-8" d="M261.8,1752.1c.2,212,5,212,5.2,424.2"/>
          <path class="cls-8" d="M207.1,1752.3c.2,212-123.1,212.4-123,424.6"/>
          <path class="cls-8" d="M230.2,1752.1c.2,212-45.1,212.2-44.9,424.4"/>
          <path class="cls-8" d="M205.9,1752.3c.2,212-123.1,212.4-123,424.6"/>
          <path class="cls-8" d="M260.6,1752.1c.2,212,5,212,5.2,424.2"/>
          <path class="cls-8" d="M259.3,1752.1c.2,212,5,212,5.2,424.2"/>
          <path class="cls-8" d="M204.7,1752.3c.2,212-123.1,212.4-123,424.6"/>
          <path class="cls-8" d="M229,1752.1c.2,212-45.1,212.2-44.9,424.4"/>
          <path class="cls-8" d="M227.8,1752.1c.2,212-45.1,212.2-44.9,424.4"/>
          <path class="cls-57" d="M22.2,1752.7c.2,212,321.4,211.3,321.6,423.5"/>
          <path class="cls-57" d="M21,1752.7c.2,212,321.4,211.3,321.6,423.5"/>
          <path class="cls-4" d="M76,1752.5c.2,212,281,211.5,281.2,423.5"/>
          <path class="cls-4" d="M66.2,1752.7c.2,212,178.7,211.7,178.8,423.9"/>
          <path class="cls-4" d="M74.8,1752.7c.2,212,281,211.5,281.2,423.5"/>
          <path class="cls-4" d="M50.4,1752.7c.2,212,21.4,212,21.5,424.2"/>
          <path class="cls-4" d="M48,1752.7c.2,212-3.2,212.2-3,424.2"/>
          <path class="cls-4" d="M49.2,1752.7c.2,212,21.4,212,21.5,424.2"/>
          <path class="cls-63" d="M110.3,1752.5c.2,212-61.8,212.2-61.6,424.4"/>
          <path class="cls-63" d="M137,1752.5c.2,212,117.6,211.8,117.8,423.9"/>
          <path class="cls-63" d="M147.9,1752.5c.2,212,228.5,211.5,228.7,423.7"/>
          <path class="cls-63" d="M105.4,1752.5c.2,212-75.5,212.2-75.3,424.4"/>
          <path class="cls-63" d="M123.6,1752.5c.2,212,46.9,212,47.1,424"/>
          <path class="cls-63" d="M135.8,1752.5c.2,212,117.6,211.8,117.8,423.9"/>
          <path class="cls-63" d="M109.1,1752.5c.2,212-61.8,212.2-61.6,424.4"/>
          <path class="cls-63" d="M146.7,1752.5c.2,212,228.5,211.5,228.7,423.7"/>
          <path class="cls-63" d="M122.4,1752.5c.2,212,46.9,212,47.1,424"/>
          <path class="cls-63" d="M107.8,1752.5c.2,212-61.8,212.2-61.6,424.4"/>
          <path class="cls-28" d="M450.4,1751.6c.1,141.3.2,282.7.3,424.2"/>
          <path class="cls-28" d="M449.2,1751.6c.1,141.3.2,282.7.3,424.2"/>
          <path class="cls-28" d="M413.9,1751.8c.2,212-113.1,212.4-113,424.4"/>
          <path class="cls-28" d="M412.7,1751.8c.2,212-113.1,212.4-113,424.4"/>
          <path class="cls-28" d="M356.8,1751.9c.2,212-249.8,212.7-249.6,424.7"/>
          <path class="cls-28" d="M411.5,1751.8c.2,212-113.1,212.4-113,424.4"/>
          <path class="cls-28" d="M355.6,1751.9c.2,212-249.8,212.7-249.6,424.7"/>
          <path class="cls-28" d="M392.1,1751.8c.2,212-177.8,212.6-177.6,424.6"/>
          <path class="cls-28" d="M448,1751.6l.3,424.2"/>
          <path class="cls-28" d="M352,1751.9c.2,212-293.8,212.7-293.6,424.9"/>
          <path class="cls-28" d="M410.3,1751.8c.2,212-113.1,212.4-113,424.4"/>
          <path class="cls-28" d="M354.4,1751.9c.2,212-249.8,212.7-249.6,424.7"/>
          <path class="cls-28" d="M446.7,1751.8c.1,141.3.2,282.7.3,424.2"/>
          <path class="cls-28" d="M445.5,1751.8l.3,424.2"/>
        </g>
      </g>
    </g>
    <g id="Layer_3" data-name="Layer 3">
      <g id="Layer_3-2" data-name="Layer 3">
        <polygon class="cls-75" points="500.7 30.3 500.7 46.4 459.4 46.5 459.4 30.5 500.7 30.3"/>
        <polygon class="cls-75" points="174.3 31.4 174.3 47.6 73.4 48 73.4 31.8 174.3 31.4"/>
        <polygon class="cls-75" points="449.4 30.5 449.4 46.5 291.5 47.3 291.5 31 449.4 30.5"/>
        <polygon class="cls-75" points="63.4 31.9 63.4 48 25.7 48.1 25.7 31.9 63.4 31.9"/>
        <polygon class="cls-75" points="281.5 31 281.5 47.3 184.3 47.6 184.3 31.4 281.5 31"/>
        <polygon class="cls-75" points="143 460.1 143 476.3 96.8 476.3 96.8 460.2 143 460.1"/>
        <polygon class="cls-75" points="257.8 459.7 257.8 475.7 193.4 476.1 193.4 459.9 257.8 459.7"/>
        <polygon class="cls-75" points="183.4 459.9 183.4 476.1 153 476.1 153 460.1 183.4 459.9"/>
        <polygon class="cls-75" points="86.8 460.2 86.8 476.5 26.1 476.6 26.1 460.4 86.8 460.2"/>
        <polygon class="cls-75" points="501.1 458.8 501.1 474.8 267.8 475.7 267.8 459.7 501.1 458.8"/>
        <polygon class="cls-75" points="501.4 887.3 501.4 903.3 416.3 903.7 416.3 887.7 501.4 887.3"/>
        <polygon class="cls-75" points="406.3 887.7 406.3 903.7 265.4 904.2 265.4 888.2 406.3 887.7"/>
        <polygon class="cls-75" points="66.5 888.9 66.5 904.9 26.4 905.1 26.4 889.1 66.5 888.9"/>
        <polygon class="cls-75" points="255.4 888.2 255.4 904.2 172.8 904.6 172.8 888.6 255.4 888.2"/>
        <polygon class="cls-75" points="162.8 888.6 162.8 904.6 76.5 904.9 76.5 888.7 162.8 888.6"/>
        <polygon class="cls-75" points="501.7 1315.8 501.7 1331.8 360.8 1332.4 360.8 1316.3 501.7 1315.8"/>
        <polygon class="cls-75" points="350.8 1316.3 350.8 1332.4 218.3 1332.9 218.3 1316.9 350.8 1316.3"/>
        <polygon class="cls-75" points="126.1 1317.2 126.1 1333.3 67.7 1333.4 67.7 1317.4 126.1 1317.2"/>
        <polygon class="cls-75" points="188.3 1316.9 188.3 1332.9 136.1 1333.1 136.1 1317 188.3 1316.9"/>
        <polygon class="cls-75" points="57.7 1317.4 57.7 1333.4 6.7 1333.6 6.7 1317.6 57.7 1317.4"/>
        <polygon class="cls-75" points="502 1744.3 502 1760.3 347.7 1760.9 347.7 1744.8 502 1744.3"/>
        <polygon class="cls-75" points="337.7 1744.8 337.7 1760.9 200.4 1761.4 200.4 1745.4 337.7 1744.8"/>
        <polygon class="cls-75" points="93.6 1745.7 93.6 1761.7 43.8 1761.9 43.8 1745.9 93.6 1745.7"/>
        <polygon class="cls-75" points="170.4 1745.5 170.4 1761.6 103.6 1761.7 103.6 1745.7 170.4 1745.5"/>
        <polygon class="cls-75" points="33.8 1746.1 33.8 1762.1 7 1762.1 7 1746.1 33.8 1746.1"/>
        <polygon class="cls-75" points="502.4 2172.8 502.4 2188.8 342 2189.3 342 2173.3 502.4 2172.8"/>
        <polygon class="cls-75" points="232 2173.8 232.1 2189.9 151.9 2190.1 151.9 2174 232 2173.8"/>
        <polygon class="cls-75" points="332 2173.5 332 2189.5 242.1 2189.7 242 2173.7 332 2173.5"/>
        <polygon class="cls-75" points="141.9 2174 141.9 2190.1 70.2 2190.4 70.2 2174.4 141.9 2174"/>
        <polygon class="cls-75" points="60.2 2174.4 60.2 2190.4 44.4 2190.4 44.4 2174.4 60.2 2174.4"/>
        <polygon class="cls-75" points="13.4 2174.6 13.4 2190.6 7.4 2190.6 7.4 2174.6 13.4 2174.6"/>
        <polygon class="cls-75" points="34.4 2174.6 34.4 2190.6 23.4 2190.6 23.4 2174.6 34.4 2174.6"/>
      </g>
    </g>
    <g id="Layer_1-2" data-name="Layer 1">
      <g class="cls-64">
        <text class="cls-13" transform="translate(104.2 42.3)"><tspan x="0" y="0">NON U.S.</tspan></text>
      </g>
      <g class="cls-64">
        <text class="cls-13" transform="translate(210 42.3)"><tspan x="0" y="0">TOP 20 U.S.</tspan></text>
      </g>
      <g class="cls-64">
        <text class="cls-13" transform="translate(336.2 41.4)"><tspan x="0" y="0">NON TOP 20 U.S.</tspan></text>
      </g>
      <g class="cls-64">
        <text class="cls-13" transform="translate(464.5 41.3)"><tspan x="0" y="0">BROWN</tspan></text>
      </g>
      <g class="cls-64">
        <text class="cls-13" transform="translate(34.7 470.2)"><tspan x="0" y="0">RESEARCH</tspan></text>
      </g>
      <g class="cls-64">
        <text class="cls-13" transform="translate(101.2 470.2)"><tspan x="0" y="0">TEACHER</tspan></text>
      </g>
      <g class="cls-64">
        <text class="cls-13" transform="translate(159.1 470.2)"><tspan x="0" y="0">GAP</tspan></text>
      </g>
      <g class="cls-64">
        <text class="cls-13" transform="translate(202.8 470.2)"><tspan x="0" y="0">OTHER JOB</tspan></text>
      </g>
      <g class="cls-64">
        <text class="cls-13" transform="translate(372.3 470.2)"><tspan x="0" y="0">NO JOB</tspan></text>
      </g>
      <g class="cls-64">
        <text class="cls-13" transform="translate(103.2 899.2)"><tspan x="0" y="0">NON US</tspan></text>
      </g>
      <g class="cls-64">
        <text class="cls-13" transform="translate(30.6 899.2)"><tspan x="0" y="0">BROWN</tspan></text>
      </g>
      <g class="cls-64">
        <text class="cls-13" transform="translate(188.3 899.2)"><tspan x="0" y="0">NO MASTERS</tspan></text>
      </g>
      <g class="cls-64">
        <text class="cls-13" transform="translate(304 898.5)"><tspan x="0" y="0">NON TOP 20 U.S.</tspan></text>
      </g>
      <g class="cls-64">
        <text class="cls-13" transform="translate(437.5 898.5)"><tspan x="0" y="0">TOP 20 U.S.</tspan></text>
      </g>
      <g class="cls-64">
        <text class="cls-13" transform="translate(407.5 1327)"><tspan x="0" y="0">TOP 20 U.S.</tspan></text>
      </g>
      <g class="cls-64">
        <text class="cls-13" transform="translate(14.7 1327.7)"><tspan x="0" y="0">NON U.S.</tspan></text>
      </g>
      <g>
        <g class="cls-64">
          <text class="cls-54" transform="translate(64.4 1327.7)"><tspan x="0" y="0">NO DOCTORATE</tspan></text>
        </g>
        <g class="cls-64">
          <text class="cls-13" transform="translate(64.4 1327.7)"><tspan x="0" y="0">NO DOCTORATE</tspan></text>
        </g>
      </g>
      <g class="cls-64">
        <text class="cls-13" transform="translate(147.5 1327.7)"><tspan x="0" y="0">BROWN</tspan></text>
      </g>
      <g class="cls-64">
        <text class="cls-13" transform="translate(252.7 1327.7)"><tspan x="0" y="0">NON TOP 20 U.S.</tspan></text>
      </g>
      <g>
        <g class="cls-64">
          <text class="cls-33" transform="translate(1.2 1756.4)"><tspan x="0" y="0">TEACHER</tspan></text>
        </g>
        <g class="cls-64">
          <text class="cls-13" transform="translate(1.2 1756.4)"><tspan x="0" y="0">TEACHER</tspan></text>
        </g>
      </g>
      <g class="cls-64">
        <text class="cls-13" transform="translate(61.2 1756.4)"><tspan x="0" y="0">GAP</tspan></text>
      </g>
      <g class="cls-64">
        <text class="cls-13" transform="translate(114.2 1756.4)"><tspan x="0" y="0">OTHER JOB</tspan></text>
      </g>
      <rect class="cls-71" x="26.1" y="2.1" width="93.9" height="24.3" rx="4.3" ry="4.3"/>
      <g class="cls-64">
        <text class="cls-33" transform="translate(240 2184.4)"><tspan x="0" y="0">ASSOCIATE PROFESSOR</tspan></text>
      </g>
      <g class="cls-64">
        <text class="cls-13" transform="translate(251.7 1755.4)"><tspan x="0" y="0">DIRECT</tspan></text>
      </g>
      <g class="cls-64">
        <text class="cls-13" transform="translate(405.5 1755.4)"><tspan x="0" y="0">RESEARCH</tspan></text>
      </g>
      <g class="cls-64">
        <text class="cls-13" transform="translate(83.4 2184.6)"><tspan x="0" y="0">RESEARCH</tspan></text>
      </g>
      <g class="cls-64">
        <text class="cls-13" transform="translate(170.2 2184.9)"><tspan x="0" y="0">LECTURER</tspan></text>
      </g>
      <g class="cls-64">
        <text class="cls-13" transform="translate(395.3 2183.6)"><tspan x="0" y="0">PROFESSOR</tspan></text>
      </g>
      <g class="cls-64">
        <text class="cls-13" transform="translate(240 2184.4)"><tspan x="0" y="0">ASSOCIATE PROFESSOR</tspan></text>
      </g>
      <g class="cls-64">
        <text class="cls-25" transform="translate(44.3 2202.7)"><tspan x="0" y="0">PROF OF THE </tspan></text>
        <text class="cls-25" transform="translate(44.3 2210.7)"><tspan x="0" y="0">PRACTICE</tspan></text>
      </g>
      <g class="cls-64">
        <text class="cls-25" transform="translate(5.8 2248.8)"><tspan x="0" y="0">ASSOCIATE</tspan></text>
        <text class="cls-25" transform="translate(5.8 2256.8)"><tspan x="0" y="0">PROF OF THE </tspan></text>
        <text class="cls-25" transform="translate(5.8 2264.8)"><tspan x="0" y="0">PRACTICE</tspan></text>
      </g>
      <g class="cls-64">
        <text class="cls-25" transform="translate(24.5 2221.5)"><tspan x="0" y="0">ASSISTANT</tspan></text>
        <text class="cls-25" transform="translate(24.5 2229.5)"><tspan x="0" y="0">PROF OF THE </tspan></text>
        <text class="cls-25" transform="translate(24.5 2237.5)"><tspan x="0" y="0">PRACTICE</tspan></text>
      </g>
      <g class="cls-64">
        <text class="cls-22" transform="translate(35 18.4)"><tspan x="0" y="0">BACHELORS</tspan></text>
      </g>
      <rect class="cls-71" x="26.3" y="427" width="137.6" height="24.3" rx="4.3" ry="4.3"/>
      <g class="cls-64">
        <text class="cls-22" transform="translate(35.1 443.3)"><tspan x="0" y="0">BETWEEN DEGREES</tspan></text>
      </g>
      <rect class="cls-71" x="28.3" y="855.9" width="76.9" height="24.3" rx="4.3" ry="4.3"/>
      <g class="cls-64">
        <text class="cls-22" transform="translate(37.2 872.1)"><tspan x="0" y="0">MASTERS</tspan></text>
      </g>
      <rect class="cls-71" x="7.3" y="1282.2" width="91.9" height="24.3" rx="4.3" ry="4.3"/>
      <g class="cls-64">
        <text class="cls-22" transform="translate(16.2 1298.5)"><tspan x="0" y="0">DOCTORATE</tspan></text>
      </g>
      <rect class="cls-71" x="8.7" y="1714.5" width="135.4" height="24.3" rx="4.3" ry="4.3"/>
      <g class="cls-64">
        <text class="cls-22" transform="translate(17.5 1730.7)"><tspan x="0" y="0">AFTER DOCTORATE</tspan></text>
      </g>
      <rect class="cls-71" x="7.2" y="2145.5" width="68.9" height="24.3" rx="4.3" ry="4.3"/>
      <g class="cls-64">
        <text class="cls-22" transform="translate(16.1 2161.8)"><tspan x="0" y="0">BROWN</tspan></text>
      </g>
      <g>
        <g class="cls-64">
          <text class="cls-66" transform="translate(23.7 42.3)"><tspan x="0" y="0">UNKNOWN</tspan></text>
        </g>
        <g class="cls-64">
          <text class="cls-13" transform="translate(23.7 42.3)"><tspan x="0" y="0">UNKNOWN</tspan></text>
        </g>
      </g>
      <line class="cls-74" x1="10.4" y1="2189.9" x2="10.4" y2="2236.3"/>
      <line class="cls-74" x1="28.7" y1="2182.9" x2="28.7" y2="2211.9"/>
      <line class="cls-74" x1="52.6" y1="2177.9" x2="52.6" y2="2194.8"/>
    </g>
  </g>
</svg>