<svg width="1404" height="8763" viewBox="0 0 1404 8763" fill="none" xmlns="http://www.w3.org/2000/svg">
<circle cx="222.5" cy="579.5" r="18.5" fill="black"/>
<circle cx="174.5" cy="26.5" r="18.5" fill="black"/>
<circle cx="174.5" cy="299.5" r="18.5" fill="black"/>
<path d="M224 643V580C224 538.579 190.421 505 149 505H-35" stroke="#4278A5" stroke-width="50"/>
<circle cx="222.5" cy="667.5" r="18.5" fill="black"/>
<circle cx="174.5" cy="461.5" r="18.5" fill="black"/>
<circle cx="222.5" cy="848.5" r="18.5" fill="black"/>
<circle cx="174.5" cy="848.5" r="18.5" fill="black"/>
<path d="M273.004 8516.5L273.006 1049C273.006 993.772 317.777 949 373.006 949L1418.5 949" stroke="#A632ED" stroke-width="50" stroke-miterlimit="2.3662" stroke-linecap="square"/>
<circle cx="222.5" cy="579.5" r="18.5" fill="black"/>
<circle cx="272.5" cy="1063.5" r="18.5" fill="black"/>
<path d="M175.014 25L175.015 7918.5" stroke="#5347DD" stroke-width="50" stroke-miterlimit="2.3662" stroke-linecap="round"/>
<circle cx="174.5" cy="26.5" r="18.5" fill="black"/>
<circle cx="174.5" cy="667.5" r="18.5" fill="black"/>
<path d="M224 643V580C224 538.579 190.421 505 149 505H-35" stroke="#FC4720" stroke-width="50"/>
<path d="M224.008 668L224.009 8279" stroke="#FC4720" stroke-width="50" stroke-miterlimit="2.3662" stroke-linecap="square"/>
<circle cx="222.5" cy="667.5" r="18.5" fill="black"/>
<circle cx="222.5" cy="1063.5" r="18.5" fill="black"/>
<circle cx="174.5" cy="1063.5" r="18.5" fill="black"/>
<path d="M323 8763V1657C323 1615.58 289.421 1582 248 1582H-3" stroke="#4278A5" stroke-width="50"/>
<circle cx="272.5" cy="1669.5" r="18.5" fill="black"/>
<circle cx="222.5" cy="1669.5" r="18.5" fill="black"/>
<circle cx="174.5" cy="1669.5" r="18.5" fill="black"/>
</svg>
