<svg width="1404" height="531" viewBox="0 0 1404 531" fill="none" xmlns="http://www.w3.org/2000/svg">
<path d="M1454.5 506H1394C1366.39 506 1344 483.614 1344 456V0" stroke="#B3C622" stroke-width="50"/>
<path d="M-64 350.999C-77.8071 350.999 -89 362.192 -89 375.999C-89 389.806 -77.8071 400.999 -64 400.999L-64 350.999ZM199.509 25L199.509 -1.15183e-05L149.509 -9.33278e-06L149.509 25L199.509 25ZM162.451 256.049L181.422 272.331L162.451 256.049ZM143.48 239.767L55.4976 342.281L93.4397 374.844L181.422 272.331L143.48 239.767ZM36.5266 350.999L-64 350.999L-64 400.999L36.5266 400.999L36.5266 350.999ZM149.509 25L149.509 223.485L199.509 223.485L199.509 25L149.509 25ZM55.4976 342.281C50.7482 347.814 43.8192 350.999 36.5266 350.999L36.5266 400.999C58.4042 400.999 79.1913 391.446 93.4397 374.844L55.4976 342.281ZM181.422 272.331C193.093 258.732 199.509 241.405 199.509 223.485L149.509 223.485C149.509 229.458 147.37 235.234 143.48 239.767L181.422 272.331Z" fill="#F17459"/>
</svg>
