<svg width="1404" height="5012" viewBox="0 0 1404 5012" fill="none" xmlns="http://www.w3.org/2000/svg">
<path d="M273.002 2216L273.005 447C273.005 391.771 317.776 347 373.005 347L1418.5 347" stroke="#A632ED" stroke-width="50" stroke-miterlimit="2.3662" stroke-linecap="square"/>
<circle cx="222.5" cy="211.5" r="18.5" fill="black"/>
<circle cx="272.5" cy="461.5" r="18.5" fill="black"/>
<circle cx="174.5" cy="26.5" r="18.5" fill="black"/>
<circle cx="174.5" cy="299.5" r="18.5" fill="black"/>
<path d="M224 275V212C224 170.579 190.421 137 149 137H-35" stroke="#4278A5" stroke-width="50"/>
<path d="M224.004 300L224.005 2216" stroke="#4278A5" stroke-width="50" stroke-miterlimit="2.3662" stroke-linecap="square"/>
<circle cx="222.5" cy="299.5" r="18.5" fill="black"/>
<circle cx="222.5" cy="461.5" r="18.5" fill="black"/>
<circle cx="174.5" cy="461.5" r="18.5" fill="black"/>
<path d="M323 2241V836C323 794.579 289.421 761 248 761H-3" stroke="#FC4720" stroke-width="50"/>
<circle cx="272.5" cy="848.5" r="18.5" fill="black"/>
<circle cx="322.5" cy="848.5" r="18.5" fill="black"/>
<circle cx="222.5" cy="848.5" r="18.5" fill="black"/>
<circle cx="174.5" cy="848.5" r="18.5" fill="black"/>
<path d="M273.005 4978L273.004 447C273.004 391.772 317.775 347 373.004 347L1418.5 347" stroke="#A632ED" stroke-width="50" stroke-miterlimit="2.3662" stroke-linecap="square"/>
<circle cx="222.5" cy="211.5" r="18.5" fill="black"/>
<circle cx="272.5" cy="461.5" r="18.5" fill="black"/>
<path d="M175.014 25L175.015 4987" stroke="#F17459" stroke-width="50" stroke-miterlimit="2.3662" stroke-linecap="round"/>
<circle cx="174.5" cy="26.5" r="18.5" fill="black"/>
<circle cx="174.5" cy="299.5" r="18.5" fill="black"/>
<path d="M224 275V212C224 170.579 190.421 137 149 137H-35" stroke="#4278A5" stroke-width="50"/>
<path d="M224.007 300L224.004 4963" stroke="#4278A5" stroke-width="50" stroke-miterlimit="2.3662" stroke-linecap="square"/>
<circle cx="222.5" cy="299.5" r="18.5" fill="black"/>
<circle cx="222.5" cy="461.5" r="18.5" fill="black"/>
<circle cx="174.5" cy="461.5" r="18.5" fill="black"/>
<path d="M323 4993V836C323 794.579 289.421 761 248 761H-3" stroke="#FC4720" stroke-width="50"/>
<circle cx="272.5" cy="848.5" r="18.5" fill="black"/>
<circle cx="322.5" cy="848.5" r="18.5" fill="black"/>
<circle cx="222.5" cy="848.5" r="18.5" fill="black"/>
<circle cx="174.5" cy="848.5" r="18.5" fill="black"/>
</svg>
