<svg width="430" height="3199" viewBox="0 0 430 3199" fill="none" xmlns="http://www.w3.org/2000/svg">
<circle cx="72.2166" cy="193.131" r="16.6482" fill="black"/>
<circle cx="117.212" cy="418.106" r="16.6482" fill="black"/>
<circle cx="29.0212" cy="26.6482" r="16.6482" fill="black"/>
<circle cx="29.0212" cy="272.322" r="16.6482" fill="black"/>
<path d="M73.567 250.274V201.088C73.567 159.667 39.9883 126.088 -1.43303 126.088H-159.508" stroke="#4278A5" stroke-width="50"/>
<path d="M73.5743 272.771L73.5703 3301" stroke="#4278A5" stroke-width="50" stroke-miterlimit="2.3662" stroke-linecap="square"/>
<circle cx="72.2166" cy="272.322" r="16.6482" fill="black"/>
<circle cx="72.2166" cy="418.106" r="16.6482" fill="black"/>
<circle cx="29.0212" cy="418.106" r="16.6482" fill="black"/>
<circle cx="162.207" cy="766.368" r="16.6482" fill="black"/>
<circle cx="72.2166" cy="766.368" r="16.6482" fill="black"/>
<circle cx="29.0212" cy="766.368" r="16.6482" fill="black"/>
<path d="M122.667 4482.52L122.666 415.067C122.666 359.839 167.438 315.067 222.666 315.067L1153.5 315.067" stroke="#A632ED" stroke-width="50" stroke-miterlimit="2.3662" stroke-linecap="square"/>
<circle cx="72.2166" cy="193.131" r="16.6482" fill="black"/>
<circle cx="123.5" cy="421.958" r="21.5" fill="black"/>
<path d="M24.4834 25.2988L24.4842 4490.62" stroke="#F17459" stroke-width="50" stroke-miterlimit="2.3662" stroke-linecap="round"/>
<circle cx="24.5" cy="30.5" r="21.5" fill="black"/>
<circle cx="24.5" cy="276.174" r="21.5" fill="black"/>
<path d="M73.5665 250.274V201.088C73.5665 159.667 39.9879 126.088 -1.43349 126.088H-219.802" stroke="#4278A5" stroke-width="50"/>
<circle cx="73.0684" cy="276.174" r="21.5" fill="black"/>
<circle cx="73.0684" cy="421.958" r="21.5" fill="black"/>
<circle cx="24.5" cy="421.958" r="21.5" fill="black"/>
<path d="M172.657 4496.01V762.627C172.657 721.206 139.078 687.627 97.6569 687.627H-226" stroke="#FC4720" stroke-width="50"/>
<circle cx="123.063" cy="770.22" r="21.5" fill="black"/>
<circle cx="173.5" cy="770.22" r="21.5" fill="black"/>
<circle cx="73.0684" cy="770.22" r="21.5" fill="black"/>
<circle cx="22.5" cy="770.22" r="21.5" fill="black"/>
</svg>
