<svg width="1404" height="8593" viewBox="0 0 1404 8593" fill="none" xmlns="http://www.w3.org/2000/svg">
<circle cx="222.5" cy="579.5" r="18.5" fill="black"/>
<circle cx="174.5" cy="26.5" r="18.5" fill="black"/>
<circle cx="174.5" cy="299.5" r="18.5" fill="black"/>
<circle cx="222.5" cy="667.5" r="18.5" fill="black"/>
<circle cx="174.5" cy="461.5" r="18.5" fill="black"/>
<circle cx="222.5" cy="848.5" r="18.5" fill="black"/>
<circle cx="174.5" cy="848.5" r="18.5" fill="black"/>
<path d="M273.004 8434.5L273.006 967C273.006 911.772 317.777 867 373.006 867L1418.5 867" stroke="#A632ED" stroke-width="50" stroke-miterlimit="2.3662" stroke-linecap="square"/>
<circle cx="222.5" cy="579.5" r="18.5" fill="black"/>
<circle cx="272.5" cy="984.5" r="21.5" fill="black"/>
<path d="M175.014 25L175.015 7918.5" stroke="#5347DD" stroke-width="50" stroke-miterlimit="2.3662" stroke-linecap="round"/>
<circle cx="174.5" cy="26.5" r="18.5" fill="black"/>
<circle cx="174.5" cy="581.5" r="21.5" fill="black"/>
<path d="M224 554V491C224 449.579 190.421 416 149 416H-35" stroke="#FC4720" stroke-width="50"/>
<path d="M224.008 579L224.009 8190" stroke="#FC4720" stroke-width="50" stroke-miterlimit="2.3662" stroke-linecap="square"/>
<circle cx="223.5" cy="581.5" r="21.5" fill="black"/>
<circle cx="223.5" cy="984.5" r="21.5" fill="black"/>
<circle cx="174.5" cy="984.5" r="21.5" fill="black"/>
<path d="M323 8593V1487C323 1445.58 289.421 1412 248 1412H-3" stroke="#4278A5" stroke-width="50"/>
<circle cx="272.5" cy="1513.5" r="18.5" fill="black"/>
<circle cx="222.5" cy="1513.5" r="18.5" fill="black"/>
<circle cx="174.5" cy="1513.5" r="18.5" fill="black"/>
<circle cx="322.5" cy="1513.5" r="18.5" fill="black"/>
</svg>
