<svg width="1404" height="4878" viewBox="0 0 1404 4878" fill="none" xmlns="http://www.w3.org/2000/svg">
<path d="M133 0V4443.5" stroke="#DF4D8C" stroke-width="50"/>
<path d="M133 773V4853" stroke="#DF4D8C" stroke-width="50" stroke-linecap="round"/>
<path d="M1264 0V1121.5C1264 1149.11 1286.39 1171.5 1314 1171.5H1475.5" stroke="#FC4720" stroke-width="50"/>
<path d="M183 0V3300.29C183 3313.55 177.732 3326.27 168.355 3335.64L11.6447 3492.36C2.26785 3501.73 -10.4499 3507 -23.7107 3507H-139" stroke="#F17459" stroke-width="50"/>
<path d="M755 0L755 55C755 82.6142 777.386 105 805 105H1476" stroke="#4278A5" stroke-width="50"/>
<path d="M232.5 0V1395.5C232.5 1528.32 124.824 1636 -8 1636V1636" stroke="#5347DD" stroke-width="50"/>
<path d="M1314 0V3502.29C1314 3515.55 1319.27 3528.27 1328.64 3537.64L1528 3737" stroke="#B3C622" stroke-width="50"/>
<circle cx="182.5" cy="776.5" r="21.5" fill="black"/>
<circle cx="232.5" cy="776.5" r="21.5" fill="black"/>
<circle cx="132.5" cy="776.5" r="21.5" fill="black"/>
<circle cx="182.5" cy="2860.5" r="21.5" fill="black"/>
<circle cx="132.5" cy="2860.5" r="21.5" fill="black"/>
<circle cx="1263.5" cy="104.5" r="21.5" fill="black"/>
<circle cx="1313.5" cy="104.5" r="21.5" fill="black"/>
<circle cx="1313.5" cy="3261.5" r="21.5" fill="black"/>
<circle cx="132.5" cy="4852.5" r="18.5" fill="black"/>
</svg>
