<svg width="430" height="4450" viewBox="0 0 430 4450" fill="none" xmlns="http://www.w3.org/2000/svg">
<path d="M93.5744 4651L93.5744 371C93.5744 329.579 59.9958 296 18.5744 296L-11 296" stroke="#FC4720" stroke-width="30" stroke-miterlimit="2.3662" stroke-linecap="square"/>
<path d="M122.667 4715.45L122.666 648C122.666 592.772 167.438 548 222.666 548L1153.5 548" stroke="#A632ED" stroke-width="30" stroke-miterlimit="2.3662" stroke-linecap="square"/>
<circle cx="122.5" cy="820.5" r="11.5" fill="black"/>
<path d="M64.4834 15.2988L64.4842 4480.62" stroke="#5347DD" stroke-width="30" stroke-miterlimit="2.3662" stroke-linecap="round"/>
<circle cx="64.5" cy="19.5" r="11.5" fill="black"/>
<circle cx="64.5" cy="432.174" r="11.5" fill="black"/>
<circle cx="93.5" cy="432.174" r="11.5" fill="black"/>
<circle cx="93.5" cy="820.5" r="11.5" fill="black"/>
<circle cx="64.5" cy="820.5" r="11.5" fill="black"/>
<path d="M152.657 4806.01V1072.63C152.657 1031.21 119.078 997.627 77.6569 997.627H-246" stroke="#4278A5" stroke-width="30"/>
<circle cx="123.5" cy="1309.22" r="11.5" fill="black"/>
<circle cx="152.5" cy="1309.22" r="11.5" fill="black"/>
<circle cx="94.5" cy="1309.5" r="11.5" fill="black"/>
<circle cx="63.5" cy="1309.5" r="11.5" fill="black"/>
</svg>
