<svg width="430" height="1602" viewBox="0 0 430 1602" fill="none" xmlns="http://www.w3.org/2000/svg">
<path d="M497 366L-7 366" stroke="#DF4D8C" stroke-width="30"/>
<path d="M377 0V1602" stroke="#B3C622" stroke-width="30"/>
<circle cx="316.5" cy="365.5" r="12.5" fill="black"/>
<path d="M347 3.77666e-05L347 396.885V396.885C347 398.467 347 399.258 346.976 400.032C346.691 409.229 343.873 418.169 338.834 425.868C338.409 426.516 337.956 427.164 337.049 428.46L255.018 545.681C252.982 548.59 251.964 550.045 250.91 551.354C242.155 562.23 229.251 568.949 215.321 569.887C213.644 570 211.868 570 208.318 570L-85 570" stroke="#F17459" stroke-width="30"/>
<circle cx="347.5" cy="365.5" r="12.5" fill="black"/>
</svg>
