<svg width="430" height="4450" viewBox="0 0 430 4450" fill="none" xmlns="http://www.w3.org/2000/svg">
<path d="M94.5744 4651L94.5744 371C94.5744 329.579 60.9958 296 19.5744 296L-10 296" stroke="#FC4720" stroke-width="30" stroke-miterlimit="2.3662" stroke-linecap="square"/>
<path d="M124.667 4715.45L124.666 648C124.666 592.772 169.438 548 224.666 548L1155.5 548" stroke="#A632ED" stroke-width="30" stroke-miterlimit="2.3662" stroke-linecap="square"/>
<circle cx="124.5" cy="820.5" r="11.5" fill="black"/>
<path d="M64.4834 15.2988L64.4842 4480.62" stroke="#5347DD" stroke-width="30" stroke-miterlimit="2.3662" stroke-linecap="round"/>
<circle cx="64.5" cy="19.5" r="11.5" fill="black"/>
<circle cx="64.5" cy="432.174" r="11.5" fill="black"/>
<circle cx="94.5" cy="432.174" r="11.5" fill="black"/>
<circle cx="94.5" cy="820.5" r="11.5" fill="black"/>
<circle cx="64.5" cy="820.5" r="11.5" fill="black"/>
<path d="M154.657 4806.01V1072.63C154.657 1031.21 121.078 997.627 79.6569 997.627H-244" stroke="#4278A5" stroke-width="30"/>
<circle cx="124.5" cy="1309.22" r="11.5" fill="black"/>
<circle cx="154.5" cy="1309.22" r="11.5" fill="black"/>
<circle cx="94.5" cy="1309.5" r="11.5" fill="black"/>
<circle cx="63.5" cy="1309.5" r="11.5" fill="black"/>
</svg>
