<?xml version="1.0" encoding="utf-8"?>
<!-- Generator: Adobe Illustrator 26.5.0, SVG Export Plug-In . SVG Version: 6.00 Build 0)  -->
<svg version="1.1" id="Layer_1" xmlns="http://www.w3.org/2000/svg" xmlns:xlink="http://www.w3.org/1999/xlink" x="0px" y="0px"
	 viewBox="0 0 627.36 489.12" style="enable-background:new 0 0 627.36 489.12;" xml:space="preserve">
<style type="text/css">
	.st0{clip-path:url(#SVGID_00000086688020750225593940000002731969593705210278_);}
	.st2{fill:#030303;}
	.st3{fill:#686868;}
</style>
<g>
	<defs>
		<rect id="SVGID_1_" x="-43.57" y="-43.7" width="627.36" height="489.12"/>
	</defs>
	<clipPath id="SVGID_00000132067708207461553910000001397696845418223525_">
		<use xlink:href="#SVGID_1_"  style="overflow:visible;"/>
	</clipPath>
	<g style="clip-path:url(#SVGID_00000132067708207461553910000001397696845418223525_);">
		<g>
			<path class="st2" d="M98.96,127.1c-0.39-1.14,0.55-1.35,1.22-1.7c2.54-1.34,5.1-2.66,7.64-3.99
				c39.49-20.6,78.98-41.2,118.47-61.81c2.83-1.48,5.72-2.85,8.47-4.48c1.81-1.07,3.32-0.96,5.14,0
				c22.47,11.81,44.97,23.57,67.47,35.33c43.02,22.48,86.04,44.94,129.06,67.41c24.98,13.05,49.95,26.1,74.92,39.16
				c4.06,2.13,4.07,2.15,4.07,6.62c-0.03,34.71-0.07,69.43-0.09,104.14c0,9.04-0.01,18.08,0.12,27.11c0.04,2.83-1,4.51-3.56,5.83
				c-27.28,14.15-54.52,28.39-81.76,42.62c-16.49,8.61-32.97,17.24-49.46,25.83c-1.47,0.77-3.05,1.33-4.58,1.99
				c0.12-2.55,0.33-5.09,0.34-7.64c0.03-14.63,0.01-29.27,0.02-43.9c0.01-28.39,0.01-56.77,0.07-85.16c0-1.86-0.62-2.97-2.31-3.73
				c-2.47-1.12-4.88-2.39-7.28-3.65c-19.5-10.28-38.96-20.63-58.5-30.83c-18.9-9.87-37.88-19.59-56.82-29.4
				c-9.29-4.81-18.56-9.66-27.82-14.53c-15.97-8.4-31.92-16.86-47.9-25.25c-7.85-4.12-15.76-8.13-23.62-12.22
				C134.51,145.61,116.74,136.35,98.96,127.1z M368.62,220.48c0.48-0.03,0.96-0.06,1.44-0.09c11.66-0.55,22.71-3.22,32.82-9.28
				c1.57-0.94,3.2-1.79,4.79-2.72c4.01-2.35,7.27-5.5,9.58-9.53c3.51-6.14,3.55-12.31-0.32-18.35c-2.36-3.69-5.45-6.68-9.02-9.18
				c-5.25-3.68-10.81-6.84-16.83-9.06c-11.59-4.27-23.55-6.16-35.94-5.41c-9.94,0.6-19.37,3.03-28.34,7.25
				c-6.18,2.91-11.79,6.62-16.32,11.9c-6.02,7.02-5.2,16.34-0.3,22.48c2.67,3.35,5.81,6.17,9.46,8.38c3.07,1.87,6.18,3.68,9.36,5.33
				C341.42,218.67,354.8,220.63,368.62,220.48z M161.11,118c1.22,0.93,2.1,1.73,3.09,2.34c1.97,1.21,3.99,2.35,6.03,3.44
				c21.87,11.73,43.75,23.43,65.6,35.21c1.99,1.07,3.6,1.14,5.56-0.02c9.19-5.46,18.47-10.79,27.66-16.26
				c1.98-1.18,3.92-2.54,5.54-4.15c1.9-1.9,3.63-4.04,5.05-6.32c1.91-3.06,1.6-6.34-0.46-9.24c-1.13-1.59-2.6-3.07-4.2-4.2
				c-6.44-4.56-13.73-6.83-21.56-6.81c-3.7,0.01-7.4,0.98-11.11,1.5c-0.99,0.14-1.98,0.22-3.09,0.33c0.11-0.79,0.13-1.27,0.24-1.73
				c1.29-5.41,0.31-7.78-4.2-11.06c-6.59-4.78-14-6.83-22.02-6.85c-5.92-0.02-11.53,1.51-16.86,4.01
				C184.28,103.86,172.89,110.76,161.11,118z M423.49,363.78c0.5-0.06,0.74-0.05,0.96-0.12c5.4-1.85,10.1-5.09,15.07-7.79
				c1.8-0.98,2.51-2.86,2.59-4.88c0.05-1.43-0.1-2.88-0.1-4.31c0.02-7.27,0.06-14.54,0.09-21.82c0.01-1.31,0.59-2.29,1.77-2.9
				c0.92-0.48,1.82-0.99,2.73-1.49c5.03-2.78,10.13-5.44,15.07-8.38c7.93-4.72,14.11-11.18,18.4-19.41
				c3.88-7.44,4.98-15.27,3.3-23.48c-1.32-6.43-5.98-9.97-12.49-9.1c-2.81,0.37-5.64,1.18-8.26,2.28c-4.78,2-9.46,4.26-14.08,6.61
				c-6.9,3.5-13.67,7.27-20.6,10.72c-3.29,1.64-4.59,3.94-4.56,7.6c0.13,17.35,0.09,34.71,0.1,52.06
				C423.5,347.44,423.49,355.51,423.49,363.78z"/>
			<path class="st3" d="M98.96,127.1c17.77,9.25,35.54,18.5,53.32,27.74c7.87,4.09,15.77,8.1,23.62,12.22
				c15.98,8.39,31.92,16.85,47.9,25.25c9.26,4.87,18.53,9.72,27.82,14.53c18.93,9.81,37.92,19.53,56.82,29.4
				c19.54,10.21,39,20.56,58.5,30.83c2.4,1.27,4.81,2.53,7.28,3.65c1.69,0.76,2.31,1.87,2.31,3.73
				c-0.06,28.39-0.06,56.77-0.07,85.16c-0.01,14.63,0.02,29.27-0.02,43.9c-0.01,2.55-0.22,5.09-0.34,7.64
				c-2.05-1.01-4.13-1.96-6.16-3.02c-50.77-26.62-101.53-53.24-152.29-79.87c-38.95-20.44-77.89-40.9-116.86-61.31
				c-1.39-0.73-2.04-1.55-2-3.13c0.08-2.64-0.01-5.28-0.01-7.92c0-40.78,0-81.56,0.01-122.35C98.8,131.41,98.91,129.26,98.96,127.1z
				 M281.61,297.31c-1.73,0.67-3.2,1.1-4.54,1.78c-7.26,3.69-14.48,7.44-21.71,11.18c-0.71,0.37-1.41,0.76-2.06,1.22
				c-1.72,1.21-2.36,2.84-2.13,4.97c0.43,4.16,2.93,6.81,6.27,8.79c1.89,1.12,3.9,1.04,5.94-0.01c4.32-2.24,8.72-4.35,13.08-6.5
				c3.51-1.73,7.01-3.48,10.54-5.17c1.92-0.91,2.38-0.72,3.43,1.16c0.31,0.56,0.57,1.14,0.86,1.71
				c5.63,10.94,11.29,21.86,16.87,32.82c1.51,2.95,3.74,4.71,7.04,5.06c3.94,0.42,6.73-2.88,5.66-6.73
				c-0.27-0.99-0.74-1.94-1.21-2.86c-5.75-11.5-11.53-22.99-17.28-34.5c-0.52-1.03-0.9-2.13-1.36-3.25
				c0.98-0.51,1.68-0.88,2.38-1.24c6.73-3.5,13.44-7.04,20.2-10.49c3.01-1.54,4.25-2.41,3.21-7.16c-0.05-0.23-0.1-0.47-0.16-0.7
				c-1.58-6.34-6.8-8.88-12.65-6.08c-5.98,2.86-11.92,5.8-17.87,8.71c-0.57,0.28-1.14,0.59-1.72,0.84
				c-0.95,0.42-1.72,0.19-2.22-0.75c-0.67-1.27-1.31-2.56-1.96-3.84c-4.34-8.55-8.68-17.1-13.02-25.64
				c-1.46-2.87-3.82-4.58-6.83-5.64c-3.43-1.2-7.62,2.67-6.36,6.22c0.43,1.2,0.79,2.44,1.36,3.58c4.44,8.94,8.91,17.87,13.38,26.8
				C279.67,293.43,280.59,295.28,281.61,297.31z M151.31,248.78c-1.04-1.18-1.72-1.95-2.4-2.72c-4.44-5.03-8.67-10.25-13.77-14.67
				c-1.77-1.53-3.66-2.56-6.05-2.36c-1.56,0.13-2.79,0.88-3.27,2.4c-0.97,3.06-0.87,6.05,1.41,8.55
				c6.99,7.69,14.03,15.33,21.06,22.98c1.6,1.74,3.66,2.81,5.79,3.75c1.66,0.73,3.14,0.41,4.4-0.83c1.02-1.01,1.98-2.08,2.92-3.17
				c8.22-9.59,16.4-19.21,24.64-28.78c3.5-4.06,7.14-7.99,10.67-12.01c0.49-0.56,1.05-1.3,1.09-1.99c0.08-1.5-0.06-3.04-0.28-4.53
				c-0.53-3.5-2.64-5.8-5.92-6.87c-2.96-0.97-5.31-0.02-7.4,2.42c-9.98,11.65-20.09,23.19-30.15,34.77
				C153.27,246.62,152.46,247.5,151.31,248.78z"/>
			<path class="st2" d="M359.79,170.31c3.69,0.55,9.11,1.08,14.41,2.2c6.1,1.29,11.47,4.35,16.38,8.16c1.98,1.54,3.49,3.49,4.6,5.76
				c1.37,2.79,1.29,5.55-0.1,8.29c-1.15,2.26-2.79,4.1-4.9,5.48c-7.16,4.66-15.09,7.08-23.56,6.92c-7.69-0.15-15.21-1.8-22.28-5.06
				c-4.03-1.85-7.71-4.21-10.81-7.41c-5.15-5.3-4.81-11.77,0.91-16.46c3.76-3.09,8.06-5.13,12.77-6.33
				C350.77,170.95,354.37,170.31,359.79,170.31z"/>
			<path class="st2" d="M222.9,134.03c0.42-0.34,0.62-0.57,0.88-0.72c4.8-2.69,9.53-5.52,14.43-7.99c3.85-1.94,8.02-2.53,12.35-1.58
				c2.02,0.44,3.74,1.38,5.32,2.6c2.23,1.73,2.31,4.55,0.15,6.39c-1.15,0.98-2.42,1.84-3.71,2.62c-3.48,2.12-7,4.15-10.49,6.25
				c-1.59,0.96-3.15,0.98-4.75,0.05c-0.14-0.08-0.28-0.14-0.42-0.22C232.16,139.02,227.67,136.6,222.9,134.03z"/>
			<path class="st2" d="M207.48,125.85c-5.15-2.82-10.11-5.53-15.38-8.42c0.86-0.68,1.36-1.19,1.96-1.53
				c3.19-1.83,6.37-3.66,9.61-5.4c4.21-2.26,8.69-2.53,13.27-1.5c2.1,0.47,3.72,1.85,5.07,3.44c1.06,1.24,0.8,3.11-0.49,4.31
				c-0.76,0.7-1.58,1.36-2.46,1.91C215.21,121.09,211.34,123.47,207.48,125.85z"/>
			<path class="st2" d="M442.07,306.43c-0.05-0.98-0.11-1.68-0.12-2.37c-0.04-4.47-0.02-8.94-0.12-13.41
				c-0.03-1.62,0.41-2.58,2.03-3.3c3.56-1.59,6.99-3.47,10.46-5.26c2.17-1.12,4.44-1.76,6.89-1.68c2.66,0.08,3.75,1.15,3.94,3.8
				c0.19,2.78-0.37,5.39-1.81,7.8c-1.84,3.08-4.31,5.56-7.38,7.36c-3.78,2.21-7.65,4.27-11.51,6.34
				C443.78,306.05,442.99,306.15,442.07,306.43z"/>
		</g>
	</g>
</g>
</svg>
